/* XPM */
static char *result[] = {
/* columns rows colors chars-per-pixel */
"35 55 148 2 ",
"   c #221216",
".  c #241619",
"X  c #25191B",
"o  c #2A1B1C",
"O  c #2E201E",
"+  c #33231E",
"@  c #241C21",
"#  c #2A1E23",
"$  c #2D1E34",
"%  c #291E3F",
"&  c #262225",
"*  c #2B2021",
"=  c #262629",
"-  c #332321",
";  c #392625",
":  c #362823",
">  c #3B2A25",
",  c #322629",
"<  c #34292C",
"1  c #3D2A28",
"2  c #3D3027",
"3  c #3E3128",
"4  c #252D30",
"5  c #392F32",
"6  c #31213E",
"7  c #283436",
"8  c #293B3D",
"9  c #3B3235",
"0  c #3B3837",
"q  c #3E3539",
"w  c #432D2B",
"e  c #42322A",
"r  c #4A322E",
"t  c #49382F",
"y  c #4E3732",
"u  c #463936",
"i  c #4E3933",
"p  c #40373B",
"a  c #523A35",
"s  c #583D37",
"d  c #583F39",
"f  c #554037",
"g  c #5D433B",
"h  c #62463A",
"j  c #634A3F",
"k  c #322142",
"l  c #3B2758",
"z  c #3C295E",
"x  c #3F2A64",
"c  c #463D42",
"v  c #412D6B",
"b  c #2A4245",
"n  c #2C494D",
"m  c #2D4F52",
"M  c #2B5355",
"N  c #2D575A",
"B  c #2E5C5F",
"V  c #3A5756",
"C  c #2E6164",
"Z  c #32676A",
"A  c #376464",
"S  c #307679",
"D  c #34797C",
"F  c #347275",
"G  c #4D4449",
"H  c #524A4F",
"J  c #5F4F49",
"K  c #534B50",
"L  c #634740",
"P  c #654B41",
"I  c #694D42",
"U  c #6E5047",
"Y  c #6B5348",
"T  c #725346",
"R  c #73554A",
"E  c #765A4D",
"W  c #7A5A4E",
"Q  c #645753",
"!  c #6B5A54",
"~  c #735E55",
"^  c #7A5C50",
"/  c #7F6053",
"(  c #7B655C",
")  c #76645D",
"_  c #534862",
"`  c #60566E",
"'  c #655B72",
"]  c #676469",
"[  c #6C6A6F",
"{  c #776965",
"}  c #7E6E69",
"|  c #7E706B",
" . c #6E6C72",
".. c #6E647A",
"X. c #716F75",
"o. c #727177",
"O. c #7F7471",
"+. c #737278",
"@. c #835F51",
"#. c #846455",
"$. c #896253",
"%. c #876758",
"&. c #8A6759",
"*. c #8B695A",
"=. c #926B5C",
"-. c #96705F",
";. c #956F60",
":. c #8A7568",
">. c #957060",
",. c #9C7564",
"<. c #9F7867",
"1. c #947C6D",
"2. c #827775",
"3. c #877973",
"4. c #A17967",
"5. c #A57C6A",
"6. c #A87F6C",
"7. c #A0806F",
"8. c #AD826F",
"9. c #AE8370",
"0. c #B18571",
"q. c #4F3891",
"w. c #513995",
"e. c #357D80",
"r. c #776E82",
"t. c #378184",
"y. c #388487",
"u. c #378789",
"i. c #348B8E",
"p. c #398A8D",
"a. c #398F92",
"s. c #399396",
"d. c #3A9699",
"f. c #968C8A",
"g. c #988D8D",
"h. c #A59D9B",
"j. c #AAA2A8",
"k. c #B5ACAC",
"l. c #BCB5BA",
"z. c #C1BABC",
"x. c #C2BAC2",
"c. c #C7C0C3",
"v. c #CDC6C7",
"b. c #CEC6C8",
"n. c #D0C9CA",
"m. c #DAD3D5",
"M. c #E5DFE0",
"N. c None",
/* pixels */
"N.N.N.N.N.N.N.N.N.N.N.N.N.N.N.N.N.N.N.N.N.N.N.N.N.N.N.N.N.N.N.N.N.N.N.",
"N.N.N.N.N.N.N.N.N.N.N.N.N.N.N.N.N.N.N.N.N.N.N.N.N.N.N.N.N.N.N.N.N.N.N.",
"N.N.N.N.N.N.N.N.N.N.N.N.N.N.N.N.N.N.N.N.N.N.N.N.N.N.N.N.N.N.N.N.N.N.N.",
"N.N.N.N.N.N.N.N.N.N.N.N.N.N.N.N.N.N.N.N.N.N.N.N.N.N.N.N.N.N.N.N.N.N.N.",
"N.N.N.N.N.N.N.N.N.N.N.N.N.N.N.N.N.N.N.N.N.N.N.N.N.N.N.N.N.N.N.N.N.N.N.",
"N.N.N.N.N.N.N.N.N.N.N.N.N.N.N.N.N.N.N.N.N.N.N.N.N.N.N.N.N.N.N.N.N.N.N.",
"N.N.N.N.N.N.N.N.N.N.N.N.N.N.N.N.N.N.N.N.N.N.N.N.N.N.N.N.N.N.N.N.N.N.N.",
"N.N.N.N.N.N.N.N.N.N.N.N.N.N.N.N.N.N.N.N.N.N.N.N.N.N.N.N.N.N.N.N.N.N.N.",
"N.N.N.N.N.N.N.N.N.N.N.N.N.N.N.N.N.N.N.N.N.N.N.N.N.N.N.N.N.N.N.N.N.N.N.",
"N.N.N.N.N.N.N.N.N.N.N.N.N.N.N.N.N.N.N.N.N.N.N.N.N.N.N.N.N.N.N.N.N.N.N.",
"N.N.N.N.N.N.N.N.N.N.N.N.N.N.N.N.N.N.N.N.N.N.N.N.N.N.N.N.N.N.N.N.N.N.N.",
"N.N.N.N.N.N.N.N.N.N.N.N.N.N.N.N.N.N.N.N.N.N.N.N.N.N.N.N.N.N.N.N.N.N.N.",
"N.N.N.N.N.N.X . . . X X . . . X X X X . X . X X . . . . X N.N.N.N.N.N.",
"N.N.N.N.N.N.X o - - - : - * O O O + : : : 2 : : + o X o X N.N.N.N.N.N.",
"N.N.N.N.N.N.. : 3 e 3 e e e e e e e 3 e e 3 3 e e o + + X N.N.N.N.N.N.",
"N.N.N.N.N.N.. : 3 f W E Y #.#.%.*.*.#.%.#.R e e > o + + o N.N.N.N.N.N.",
"N.N.N.N.N.N.X : 3 P 9.,.> J 6.9.7.E E 8.9.<.u 3 3 o + + o N.N.N.N.N.N.",
"N.N.N.N.N.N.o f P #.9.8.@.e #.,.> + / 0.9.<.j f t o + + o N.N.N.N.N.N.",
"N.N.N.N.N.N.N.&.9.9.5.P s R 4.6./ *.-.8.9.8.8.5.,.> + g ; N.N.N.N.N.N.",
"N.N.N.N.N.N.N.*.9.9.^ Q h.f.) *.( | J j <.9.8.9.8.e > @.w N.N.N.N.N.N.",
"N.N.N.N.N.N.N.&.0.7.~ z.j.x.k.J z.M.b.2.R 9.9.9.6.r + @.r N.N.N.N.N.N.",
"N.N.N.N.N.N.N.*.9.,.3.l.% _ m.O.n...] c.~ 5.9.9.6.y r $.s N.N.N.N.N.N.",
"N.N.N.N.N.N.+ =.0.5.) l.` r.n.! j...` l.( 8.8.9.6.T W =.s N.N.N.N.N.N.",
"N.N.N.N.N.N.O *.8.8.%.} k.k.{ P ! f.g.} =.9.8.9.6.T $.$.r N.N.N.N.N.N.",
"N.N.N.N.N.N.o &.0.9.9.;.^ Y P ^ E #.%.,.9.0.9.9.5.T $.T o N.N.N.N.N.N.",
"N.N.N.N.N.N.X ^ 9.9.9.9.9.6.*.%.;.9.0.9.9.6.9.9.5.j $.T o N.N.N.N.N.N.",
"N.N.N.N.N.N.. U 0.9.9.9.<.^ E W R @.6.9.9.9.6.0.4.I $.T O N.N.N.N.N.N.",
"N.N.N.N.N.N.. I 9.9.9.9.;.h h h h T 5.9.9.9.9.9.,.j $.@.; N.N.N.N.N.N.",
"N.N.N.N.N.N.. I 0.0.9.0.8.6.7.7.6.9.9.9.9.9.9.9.,.h @.@.> N.N.N.N.N.N.",
"N.N.N.N.N.N.. a W #.*.;.,.6.8.8.0.9.9.9.6.5.6.5.L + w w o N.N.N.N.N.N.",
"N.N.N.N.N.N.X . X O * : 0 u f f g g d d a w w 1 w @.E h - N.N.N.N.N.N.",
"N.N.N.N.N.N.. : W *.V S y.D Z B M n k 4 @       g 0.0.9.I . N.N.N.N.N.",
"N.N.N.N.N.N.o @.9.7.A i.d.d.d.d.d.s.s.p.e.Z n = a 9.9.0.*.- N.N.N.N.N.",
"N.N.N.N.N.N.N.&.0.1.C i.d.d.d.d.d.s.d.d.d.d.d.N w 6.9.9.*.N.N.N.N.N.N.",
"N.N.N.N.N.N.N.^ 0.:.N S t.t.t.u.u.a.d.s.d.s.d.C ; 4.0.0.U . N.N.N.N.N.",
"N.N.N.N.N.N.N.a ;.i @ & & & & & = 8 u.s.d.d.d.F # L W R ; . N.N.N.N.N.",
"N.N.N.N.N.N.N.. o # G H K K H G p # B s.d.d.d.a.m . o   . N.N.N.N.N.N.",
"N.N.N.N.N.N.N.N.N.,  .+.+.+.+.+.X.< # 7 n m m m b X N.N.N.N.N.N.N.N.N.",
"N.N.N.N.N.N.N.N.N.9  .o.X.o.o.o.X.q 6 v v v z l k X N.N.N.N.N.N.N.N.N.",
"N.N.N.N.N.N.N.N.N.q  .o.+.o.+.o.o.c l q.w.w.w.w.v N.N.N.N.N.N.N.N.N.N.",
"N.N.N.N.N.N.N.N.N.9  .+.o.o.o.o.+.G @ $ k k 6 $ # N.N.N.N.N.N.N.N.N.N.",
"N.N.N.N.N.N.N.N.N.< ]  .X.o. .[ ] q N.N.N.N.N.N.N.N.N.N.N.N.N.N.N.N.N.",
"N.N.N.N.N.N.N.N.N.X , < 9 q 5 , # X N.N.N.N.N.N.N.N.N.N.N.N.N.N.N.N.N.",
"N.N.N.N.N.N.N.N.N.N.N.N.N.N.. . N.N.N.N.N.N.N.N.N.N.N.N.N.N.N.N.N.N.N.",
"N.N.N.N.N.N.N.N.N.N.N.N.N.N.N.N.N.N.N.N.N.N.N.N.N.N.N.N.N.N.N.N.N.N.N.",
"N.N.N.N.N.N.N.N.N.N.N.N.N.N.N.N.N.N.N.N.N.N.N.N.N.N.N.N.N.N.N.N.N.N.N.",
"N.N.N.N.N.N.N.N.N.N.N.N.N.N.N.N.N.N.N.N.N.N.N.N.N.N.N.N.N.N.N.N.N.N.N.",
"N.N.N.N.N.N.N.N.N.N.N.N.N.N.N.N.N.N.N.N.N.N.N.N.N.N.N.N.N.N.N.N.N.N.N.",
"N.N.N.N.N.N.N.N.N.N.N.N.N.N.N.N.N.N.N.N.N.N.N.N.N.N.N.N.N.N.N.N.N.N.N.",
"N.N.N.N.N.N.N.N.N.N.N.N.N.N.N.N.N.N.N.N.N.N.N.N.N.N.N.N.N.N.N.N.N.N.N.",
"N.N.N.N.N.N.N.N.N.N.N.N.N.N.N.N.N.N.N.N.N.N.N.N.N.N.N.N.N.N.N.N.N.N.N.",
"N.N.N.N.N.N.N.N.N.N.N.N.N.N.N.N.N.N.N.N.N.N.N.N.N.N.N.N.N.N.N.N.N.N.N.",
"N.N.N.N.N.N.N.N.N.N.N.N.N.N.N.N.N.N.N.N.N.N.N.N.N.N.N.N.N.N.N.N.N.N.N.",
"N.N.N.N.N.N.N.N.N.N.N.N.N.N.N.N.N.N.N.N.N.N.N.N.N.N.N.N.N.N.N.N.N.N.N.",
"N.N.N.N.N.N.N.N.N.N.N.N.N.N.N.N.N.N.N.N.N.N.N.N.N.N.N.N.N.N.N.N.N.N.N."
};
