/* XPM */
static char *result[] = {
/* columns rows colors chars-per-pixel */
"43 63 112 2 ",
"   c #020202",
".  c #060805",
"X  c #0A0C06",
"o  c #0A0D09",
"O  c #0E1407",
"+  c #0D120A",
"@  c #10160A",
"#  c #141C0D",
"$  c #151E11",
"%  c #16200A",
"&  c #19240E",
"*  c #1D290F",
"=  c #1A2311",
"-  c #1E2A12",
";  c #1C2119",
":  c #212D14",
">  c #222C1A",
",  c #243314",
"<  c #273A14",
"1  c #2A3D16",
"2  c #263419",
"3  c #29371C",
"4  c #2B3C1B",
"5  c #262D21",
"6  c #2E3528",
"7  c #313F24",
"8  c #2D4316",
"9  c #2F421E",
"0  c #304717",
"q  c #334B17",
"w  c #31451C",
"e  c #344C1A",
"r  c #365019",
"t  c #3B551D",
"y  c #3D5A1D",
"u  c #3E611C",
"i  c #324521",
"p  c #364B22",
"a  c #384D25",
"s  c #37432C",
"d  c #3C5326",
"f  c #3E5A21",
"g  c #3C5228",
"h  c #3F5828",
"j  c #42631F",
"k  c #405C22",
"l  c #40572A",
"z  c #425B2A",
"x  c #40463B",
"c  c #436321",
"v  c #476921",
"b  c #4A6D23",
"n  c #47612E",
"m  c #49632F",
"M  c #4D7224",
"N  c #4F7824",
"B  c #4D7228",
"V  c #507425",
"C  c #537A26",
"Z  c #527629",
"A  c #547B29",
"S  c #587F29",
"D  c #4B6432",
"F  c #58733A",
"G  c #444543",
"H  c #57624F",
"J  c #637D47",
"K  c #61774B",
"L  c #656E5E",
"P  c #558327",
"I  c #568428",
"U  c #5A852A",
"Y  c #5D8B2B",
"T  c #5D8433",
"R  c #608E2D",
"E  c #63932E",
"W  c #67992F",
"Q  c #689C2F",
"!  c #608C32",
"~  c #659531",
"^  c #679A30",
"/  c #699D31",
"(  c #6A943B",
")  c #6E9E39",
"_  c #6EA433",
"`  c #70A634",
"'  c #72A935",
"]  c #72A639",
"[  c #75AA3B",
"{  c #78AE3D",
"}  c #6C8D45",
"|  c #6F9644",
" . c #799659",
".. c #77AA41",
"X. c #7AAC44",
"o. c #7FAE4A",
"O. c #81AF4E",
"+. c #82B24E",
"@. c #83AF53",
"#. c #85B153",
"$. c #89B35A",
"%. c #8CB85A",
"&. c #8EB562",
"*. c #91B865",
"=. c #94BA6C",
"-. c #92AA7B",
";. c #98BB72",
":. c #9DBE78",
">. c #9EC177",
",. c #A0C17C",
"<. c #92A381",
"1. c None",
/* pixels */
"1.1.1.1.1.1.1.G > $ X @ @ @ O O @ O O @ # @ @ # @ @ O @ @ O X + o 1.1.1.1.1.1.1.1.1.1.",
"1.1.1.1.1.1.1.x k U S S S S S S R C S S S S S S S S S S S b : 7 2 1.1.1.1.1.1.1.1.1.1.",
"1.1.1.1.1.1.1.& C ` ` ` ` ` ` ` ` _ ` _ [ &.#._ ` _ ` ` ` R 4 l 4 1.1.1.1.1.1.1.1.1.1.",
"1.1.1.1.1.1.1.# C ` ` ` ` ` ` ` _ _ ` ` ` ] ] ` [ [ ` _ ` S 1 l 3 1.1.1.1.1.1.1.1.1.1.",
"1.1.1.1.1.1.1.% C ` ` / / _ ) ` _ _ _ ` _ _ _ ` [ [ ` _ ` R 2 l 7 1.1.1.1.1.1.1.1.1.1.",
"1.1.1.1.1.1.1.% C ` ` R c j j b E ' ` ` S j j j k S / _ ` R 1 a 4 1.1.1.1.1.1.1.1.1.1.",
"1.1.1.1.1.1.1.% C ` R 4 @ # o + y / ' S 2 @ $ $ # : Z _ _ S 1 l 4 1.1.1.1.1.1.1.1.1.1.",
"1.1.1.1.1.1.1.% C ` M @ # 2 = . * R _ t X # : > > # t Q ` R 2 l 4 1.1.1.1.1.1.1.1.1.1.",
"1.1.1.1.1.1.1.% C ` V # = = @ @ , Y _ t . . X @ > * t Q ' R 2 l 3 1.1.1.1.1.1.1.1.1.1.",
"1.1.1.1.1.1.1.% C ` M O X .   . : Y _ y         # # f / ' R 1 a 7 1.1.1.1.1.1.1.1.1.1.",
"1.1.1.1.1.1.1.% C ` V X         : | X.y         O @ k ` ' U 1 l 4 1.1.1.1.1.1.1.1.1.1.",
"1.1.1.1.1.1.1.% C _ V X         6 -.=.y             t / ' U 1 a 4 1.1.1.1.1.1.1.1.1.1.",
"1.1.1.1.1.1.1.% C _ V X         , ( [ k .           t ^ ' U 4 g 4 1.1.1.1.1.1.1.1.1.1.",
"1.1.1.1.1.1.1.% C ' U , . . . O r / ] B & . .     = b _ ' R 1 g 7 1.1.1.1.1.1.1.1.1.1.",
"1.1.1.1.1.1.1.% C ' _ P q q q y E { [ / M e 0 q q b ^ ` ` Y 4 g 4 1.1.1.1.1.1.1.1.1.1.",
"1.1.1.1.1.1.1.% C _ _ _ ` ` ` ` ' ` ' ] ` ` ' ` ` ` ` ` ` Y 1 g 3 1.1.1.1.1.1.1.1.1.1.",
"1.1.1.1.1.1.1.% C ' _ ` _ Q E E E E E E R E W ` ` ` ` ` ` Y 4 i , 1.1.1.1.1.1.1.1.1.1.",
"1.1.1.1.1.1.1.% C ' _ _ W k , , < , , < 1 4 e Z E _ ` ` ` U < 3 = 1.1.1.1.1.1.1.1.1.1.",
"1.1.1.1.1.1.1.% C ' ] ~ f +             o $ # - e U ` ] _ C - : = 1.1.1.1.1.1.1.1.1.1.",
"1.1.1.1.1.1.1.% C ' _ B @               . o $ # + t / / E j - , & 1.1.1.1.1.1.1.1.1.1.",
"1.1.1.1.1.1.1.% C ' _ j         o - , , @   X # X 8 R E I M * , & 1.1.1.1.1.1.1.1.1.1.",
"1.1.1.1.1.1.1.% C ' _ v . X & 1 y Y W E c < @ @ O 8 N P I j * , & 1.1.1.1.1.1.1.1.1.1.",
"1.1.1.1.1.1.1.% C ' _ A q r A / / ` ` _ ` E j 1 1 t C P Y j - , & 1.1.1.1.1.1.1.1.1.1.",
"1.1.1.1.1.1.1.% C ' ' ' ` ` ' ' ] ' ' ' ` _ W Y P P P P Y j - : & 1.1.1.1.1.1.1.1.1.1.",
"1.1.1.1.1.1.1.# b E R E E R R R R R R Y U N N M M M M M M u & - # 1.1.1.1.1.1.1.1.1.1.",
"1.1.1.1.1.1.1.O < 0 0 0 e y y t t t t t r 8 8 8 8 8 < < < * @ @ + 1.1.1.1.1.1.1.1.1.1.",
"1.1.1.1.1.1.1.1.1.1.1.o 2 V b V N M M M v u u y t y * % = = o 1.1.1.1.1.1.1.1.1.1.1.1.",
"1.1.1.1.1.1.1.1.1.1.1.1.r ` ' ' ' ' ` _ _ _ _ / Y P 0 * 4 , O 1.1.1.1.1.1.1.1.1.1.1.1.",
"1.1.1.1.1.1.1.1.1.1.1.1.e _ _ ` _ _ _ _ ' ' ` _ ^ Y 0 : 4 : + 1.1.1.1.1.1.1.1.1.1.1.1.",
"1.1.1.1.1.1.1.1.1.1.1.1.r _ ` _ _ _ ` ` o.&.X._ _ _ t 4 p , + 1.1.1.1.1.1.1.1.1.1.1.1.",
"1.1.1.1.1.1.1.1.1.1.1.1.e ] @.X._ _ o.$.&.;.o._ _ _ t i z i @ 1.1.1.1.1.1.1.1.1.1.1.1.",
"1.1.1.1.1.1.1.1.1.1.1.1.r ] @.o._ ` *.>.X.[ ' _ _ _ t i n g = 1.1.1.1.1.1.1.1.1.1.1.1.",
"1.1.1.1.1.1.1.1.1.1.1.1.r _ ` ` _ _ #.%.' _ _ _ _ ' f 9 n g $ 1.1.1.1.1.1.1.1.1.1.1.1.",
"1.1.1.1.1.1.1.1.1.1.1.1.r _ _ _ _ ` ' ' ` ` ` _ ' ' f 9 n g $ 1.1.1.1.1.1.1.1.1.1.1.1.",
"1.1.1.1.1.1.1.1.1.1.1.1.r _ ` ] ` _ _ _ _ ` _ _ _ ] f 9 n g $ 1.1.1.1.1.1.1.1.1.1.1.1.",
"1.1.1.1.1.1.1.1.1.1.1.1.r _ [ { ` _ _ _ ` ` ` _ ..X.f 9 n g $ 1.1.1.1.1.1.1.1.1.1.1.1.",
"1.1.1.1.1.1.1.1.1.1.1.1.r _ ' ' ' _ _ ] _ ` ` _ o.$.h 9 n g $ 1.1.1.1.1.1.1.1.1.1.1.1.",
"1.1.1.1.1.1.1.1.1.1.1.1.r _ _ _ _ _ _ ' ` _ ` _ [ ..f 9 n g $ 1.1.1.1.1.1.1.1.1.1.1.1.",
"1.1.1.1.1.1.1.1.1.1.1.1.e _ _ _ _ ` _ ` ` _ _ _ _ _ t 9 n g $ 1.1.1.1.1.1.1.1.1.1.1.1.",
"1.1.1.1.1.1.1.1.1.1.1.1.r _ _ ` _ ' ` _ _ ` ` ` _ _ t 9 n g $ 1.1.1.1.1.1.1.1.1.1.1.1.",
"1.1.1.1.1.1.1.1.1.1.1.1.r _ _ _ _ ` _ _ [ $.o._ _ _ t i n g $ 1.1.1.1.1.1.1.1.1.1.1.1.",
"1.1.1.1.1.1.1.1.1.1.1.1.r _ ` ` _ _ _ ` ] o.X.` ` ^ q 9 n g $ 1.1.1.1.1.1.1.1.1.1.1.1.",
"1.1.1.1.1.1.1.1.1.1.1.1.r _ { { ' _ ` _ _ ' ..' _ E 8 9 n g $ 1.1.1.1.1.1.1.1.1.1.1.1.",
"1.1.1.1.1.1.1.1.1.1.1.1.r _ ' ] ` _ _ _ _ ' { ' _ I 8 7 n g $ 1.1.1.1.1.1.1.1.1.1.1.1.",
"1.1.1.1.1.1.1.1.1.1.1.1.r _ _ _ _ _ _ _ _ _ _ _ E P 8 9 n g $ 1.1.1.1.1.1.1.1.1.1.1.1.",
"1.1.1.1.1.1.1.1.1.1.1.1.t _ _ [ o.[ _ _ _ _ ` Q Y P 8 4 n g $ 1.1.1.1.1.1.1.1.1.1.1.1.",
"1.1.1.1.1.1.1.1.1.1.1.1.e _ _ ..$..._ ` _ ` _ R I P 8 i n g = 1.1.1.1.1.1.1.1.1.1.1.1.",
"1.1.1.1.1.1.1.1.1.1.1.1.r _ _ ` { { [ ` _ _ _ U P P 8 9 n p @ 1.1.1.1.1.1.1.1.1.1.1.1.",
"1.1.1.1.1.1.1.1.1.1.1.1.t _ _ _ ` [ ' ` _ _ E P P I 8 9 a 2 + 1.1.1.1.1.1.1.1.1.1.1.1.",
"1.1.1.1.1.1.1.1.1.1.1.1.y ' ` _ ` _ _ _ _ E I P P P 8 : 9 , O 1.1.1.1.1.1.1.1.1.1.1.1.",
"1.1.1.1.1.1.1.1.1.1.1.1.t ` ` ` _ _ ` _ W I P I I P 8 - , : + 1.1.1.1.1.1.1.1.1.1.1.1.",
"1.1.1.1.1.1.1.1.1.1.1.1.r ` ` ` ` ` _ E I I I I I I 8 - 4 : + 1.1.1.1.1.1.1.1.1.1.1.1.",
"1.1.1.1.1.1.1.1.1.1.1.1.9 I I I U A M v v u v u u u , % - - o 1.1.1.1.1.1.1.1.1.1.1.1.",
"1.1.1.1.1.1.1.1.O * < , < 8 4 < , = - - & , 8 8 8 8 , : - @ $ & = O 1.1.1.1.1.1.1.1.1.",
"1.1.1.1.1.1.1.1.& A W E E R P M t , a g 3 c ^ E W E I N j , p h z > 1.1.1.1.1.1.1.1.1.",
"1.1.1.1.1.1.1.1.- Y ' o.$.` E P u , h h 7 B ' X.#...^ I M , a m D 3 1.1.1.1.1.1.1.1.1.",
"1.1.1.1.1.1.1.1.& Y [ &.,.] ~ P u , h z 3 b _ $.:.O.E I u 8 p n n 2 1.1.1.1.1.1.1.1.1.",
"1.1.1.1.1.1.1.1.5  ...X.o.^ I P u 2 l z 7 K o...@.) Y P M , a n z - 1.1.1.1.1.1.1.1.1.",
"1.1.1.1.1.1.1.1.> } Y b ^ b c U y 2 h a 2 F ( b E Z j C M < p h w = 1.1.1.1.1.1.1.1.1.",
"1.1.1.1.1.1.1.1.& U A e E f h T c - 4 4 - b U f I c f T Z , 2 9 4 $ 1.1.1.1.1.1.1.1.1.",
"1.1.1.1.1.1.1.1.& M b 8 Z a L -.D & , 2 = c B e N r H <.J - > 4 4 # 1.1.1.1.1.1.1.1.1.",
"1.1.1.1.1.1.1.1.o , : # , = 5 s > # - - $ - , $ : = ; s 5 $ = - - # 1.1.1.1.1.1.1.1.1.",
"1.1.1.1.1.1.1.1.  . . . . . . . . . . . . . .   . . . . o . . . . . 1.1.1.1.1.1.1.1.1."
};
