/* XPM */
static char *result[] = {
/* columns rows colors chars-per-pixel */
"35 55 160 2 ",
"   c #231417",
".  c #241619",
"X  c #25191C",
"o  c #2A1B1B",
"O  c #2F201F",
"+  c #32241E",
"@  c #261721",
"#  c #261B21",
"$  c #2A1A25",
"%  c #291928",
"&  c #2E1D34",
"*  c #2F1E39",
"=  c #321F3D",
"-  c #252224",
";  c #2D2326",
":  c #272A2C",
">  c #242629",
",  c #342522",
"<  c #372921",
"1  c #392B23",
"2  c #362A2C",
"3  c #3B2929",
"4  c #3B2725",
"5  c #3F3129",
"6  c #272F31",
"7  c #392E30",
"8  c #273639",
"9  c #28373A",
"0  c #29393B",
"q  c #223235",
"w  c #3A3033",
"e  c #432E2B",
"r  c #41332A",
"t  c #48372E",
"y  c #4B392F",
"u  c #473735",
"i  c #4E3A32",
"p  c #42383B",
"a  c #4B3531",
"s  c #533B34",
"d  c #5A3E37",
"f  c #573E38",
"g  c #5B433A",
"h  c #554136",
"j  c #63453D",
"k  c #664A3F",
"l  c #68483F",
"z  c #322042",
"x  c #352349",
"c  c #2B3E41",
"v  c #3D3043",
"b  c #392656",
"n  c #3B2759",
"m  c #3C295B",
"M  c #3E2D52",
"N  c #3D2863",
"B  c #453D42",
"V  c #483F43",
"C  c #402A6B",
"Z  c #432D72",
"A  c #452E7A",
"S  c #4A3576",
"D  c #463179",
"F  c #4C3973",
"G  c #2B4446",
"H  c #2B4548",
"J  c #2D4E51",
"K  c #225154",
"L  c #2F5659",
"P  c #25585B",
"I  c #2F595C",
"U  c #2D5254",
"Y  c #30595C",
"T  c #215E60",
"R  c #2F5C60",
"E  c #236163",
"W  c #246568",
"Q  c #26696B",
"!  c #316568",
"~  c #326D70",
"^  c #347275",
"/  c #357A7D",
"(  c #38797A",
")  c #32767A",
"_  c #474145",
"`  c #494145",
"'  c #4C4449",
"]  c #5F4741",
"[  c #554F54",
"{  c #585155",
"}  c #5B555A",
"|  c #5E585C",
" . c #624740",
".. c #654A42",
"X. c #6A4C42",
"o. c #6F5249",
"O. c #715146",
"+. c #74544A",
"@. c #79594E",
"#. c #615B5F",
"$. c #7D5D52",
"%. c #56486A",
"&. c #594D69",
"*. c #51426D",
"=. c #5E5564",
"-. c #5F5862",
";. c #5D546E",
":. c #55457C",
">. c #625C60",
",. c #5F6A66",
"<. c #4C7F7F",
"1. c #75736B",
"2. c #6E6C72",
"3. c #716F76",
"4. c #706E79",
"5. c #727177",
"6. c #737278",
"7. c #875F51",
"8. c #8E6455",
"9. c #8E6B5B",
"0. c #936857",
"q. c #926758",
"w. c #946859",
"e. c #94705F",
"r. c #967161",
"t. c #9B7564",
"y. c #9F7866",
"u. c #837C71",
"i. c #A07967",
"p. c #A47C6A",
"a. c #A87E6C",
"s. c #8F8A7E",
"d. c #9F8576",
"f. c #AC816E",
"g. c #AE8471",
"h. c #B08571",
"j. c #4A3482",
"k. c #4F3890",
"l. c #523A96",
"z. c #523A98",
"x. c #337E81",
"c. c #5B498E",
"v. c #685F83",
"b. c #665B84",
"n. c #686081",
"m. c #328284",
"M. c #348689",
"N. c #35898C",
"B. c #388A8E",
"V. c #398D91",
"C. c #3A9496",
"Z. c #3A9598",
"A. c #588E8B",
"S. c #499090",
"D. c #6F8780",
"F. c #708F89",
"G. c #7D8D85",
"H. c #64928E",
"J. c #878C81",
"K. c None",
/* pixels */
"K.K.K.K.K.K.K.K.K.K.K.K.K.K.K.K.K.K.K.K.K.K.K.K.K.K.K.K.K.K.K.K.K.K.K.",
"K.K.K.K.K.K.K.K.K.K.K.K.K.K.K.K.K.K.K.K.K.K.K.K.K.K.K.K.K.K.K.K.K.K.K.",
"K.K.K.K.K.K.K.K.K.K.K.K.K.K.K.K.K.K.K.K.K.K.K.K.K.K.K.K.K.K.K.K.K.K.K.",
"K.K.K.K.K.K.K.K.K.K.K.K.K.K.K.K.K.K.K.K.K.K.K.K.K.K.K.K.K.K.K.K.K.K.K.",
"K.K.K.K.K.K.K.K.K.K.K.K.K.K.K.K.K.K.K.K.K.K.K.K.K.K.K.K.K.K.K.K.K.K.K.",
"K.K.K.K.K.K.K.K.K.K.K.K.K.K.K.K.K.K.K.K.K.K.K.K.K.K.K.K.K.K.K.K.K.K.K.",
"K.K.K.K.K.K.K.K.K.K.K.K.K.K.K.K.K.K.K.K.K.K.K.K.K.K.K.K.K.K.K.K.K.K.K.",
"K.K.. . . . . . . . . . o .   O . o . . . X X . . . . . . . K.K.K.K.K.",
"K.. o o o + o o   + + + + + + + < , , < < , O ; O o o o . . K.K.K.K.K.",
"K.. o + < < + +   + r t r r y r 5 r r r r r r 5 5 r 5 5 + . K.K.K.K.K.",
"K.o o + + 1 + +   1 r r r r r r r r r r r r r r r r r r ,   K.K.K.K.K.",
"K.. o 1 1 1 1 + o + r r r r r r r r r r r r r r r r r r , X K.K.K.K.K.",
"K.. o + 1 1 1 +   + r r r r r r r r r r r r r r r r r r , X K.K.K.K.K.",
"K.. o < 1 + 5 + o 1 r r r r r r r r r r r r r r r r r r 1 . K.K.K.K.K.",
"K.. o + 1 + 5 + o 5 r r r r r r r r r r r r r r r r r r 1 o K.K.K.K.K.",
"K.. 4 X.h + + + o + r r r r r r r r r r r r r r r r r r 3 o K.K.K.K.K.",
"K.  d w.k + 1 + . 5 r 5 r r r r r r r r r r r r r r r r 5 O K.K.K.K.K.",
"K.K.h 0.k < 1 + o 5 r r r r r r r r r r r r r r r r r r 3 X K.K.K.K.K.",
"K.K.j 0.k 5 1 + X 5 r r r r r r r r r r r r r r r r r r 1 o K.K.K.K.K.",
"K.K.k 0.k < + + . 5 r r r r r r r r r r r r r r r r r r 1 . K.K.K.K.K.",
"K.K.l w.j + + + o 5 r r r r r r r r r r r r r r r r r r 1 X K.K.K.K.K.",
"K.K.X.w.s + 1 + . 1 r r r r r r r r r r r r r r r r r r , X K.K.K.K.K.",
"K.K.j w.l i i , . 1 r r r r r 5 r r r r r r r r r r r r , . K.K.K.K.K.",
"K.. s w.w.8.8.s . 1 r r r r r 5 r r r r r r r r r r r r $ . K.K.K.K.K.",
"K.. e 8.q.w.w.s . 3 r r r 5 5 5 5 5 5 5 5 5 5 5 r r r r O . K.K.K.K.K.",
"K.. , 7.q.8.w.d o r i r t t h h g g h h h h i i t t y y + . K.K.K.K.K.",
"K.. , 7.w.w.w.O.h 9.t.r.e.t.p.f.f.f.f.p.y.p.p.y.t.t.t.t.a . K.K.K.K.K.",
"K.. o 8.w.w.w.+.X.p.g.g.h.h.g.h.h.h.h.h.g.g.h.g.h.h.f.g.a . K.K.K.K.K.",
"K.. o g l X.X.d t f g g g  .O.+.o.o.X... ...X. . .g d d , . K.K.K.K.K.",
"K..   . . o X # # X X X # X .   .     X         . X $ . . . K.K.K.K.K.",
". , j 7.,.^ P ~ / / x./ / ^ ! L G 8 : - X       . R x.s . K.K.K.K.K.K.",
"  i g.h.s.C.Q m.Z.Z.Z.Z.Z.Z.Z.C.C.C.N.m.~ L H 8 q ) H.]   K.K.K.K.K.K.",
"  e a.g.d.S.Q / Z.Z.Z.Z.C.C.C.C.Z.Z.Z.Z.Z.Z.Z.x.T M.F.X.. K.K.K.K.K.K.",
". 3 p.g.g.A.Q m.Z.Z.Z.Z.Z.Z.Z.Z.C.Z.C.C.Z.Z.Z.M.W N.G.+.. K.K.K.K.K.K.",
"K., r.h.h.D.W m.Z.Z.Z.C.Z.C.C.Z.Z.Z.Z.Z.Z.C.Z.M.T N.J.+.K.K.K.K.K.K.K.",
"K.. @.h.f.1.K m.Z.Z.Z.Z.Z.Z.C.Z.Z.Z.Z.Z.Z.Z.Z.) K / u.a K.K.K.K.K.K.K.",
"K.K.e o.g 2 > ( V.V.C.C.Z.Z.Z.Z.S.Z.Z.Z.C.C.C.L @ > 3 . K.K.K.K.K.K.K.",
"K.K.. .   . . > : : 9 H J P I I Y L J H c 0 9 > . . . K.K.K.K.K.K.K.K.",
"K.K.K.K.K.K.% = 2 x x b m m b $           . % % . K.K.K.K.K.K.K.K.K.K.",
"K.K.K.K.K.@ Z l.z.z.z.z.z.z.j.$   .   @ = C Z Z z . K.K.K.K.K.K.K.K.K.",
"K.K.K.K.K.x k.z.z.z.z.z.z.k.m .   . & N A A A A C $ K.K.K.K.K.K.K.K.K.",
"K.K.K.K.; ;.c.l.z.z.z.z.z.k.* . X x Z A A A D Z S v . K.K.K.K.K.K.K.K.",
"K.K.K.  B 6.4.b.c.k.z.z.z.D @ K.X b A A A Z S F =.{ ; . K.K.K.K.K.K.K.",
"K.K.. . ` 4.6.6.4.b.c.z.z.b K.K.K.& A A S %.=.>.>.| 2 . K.K.K.K.K.K.K.",
"K.K.K.. o ' 2.6.6.6.4.v.:.& K.K.K.. M &.-.>.#.>.{ w X . K.K.K.K.K.K.K.",
"K.K.K.K.K.K._ } 2.6.6.6.` . K.K.K.. 2 { >.| } _ ; . K.K.K.K.K.K.K.K.K.",
"K.K.K.K.K.K.K.X 2 B | [ o K.K.K.K.K.. p V 7 , # K.K.K.K.K.K.K.K.K.K.K.",
"K.K.K.K.K.K.K.K.K.  X X . K.K.K.K.K.. . .   K.K.K.K.K.K.K.K.K.K.K.K.K.",
"K.K.K.K.K.K.K.K.K.K.. . K.K.K.K.K.K.K.. K.K.K.K.K.K.K.K.K.K.K.K.K.K.K.",
"K.K.K.K.K.K.K.K.K.K.K.K.K.K.K.K.K.K.K.K.K.K.K.K.K.K.K.K.K.K.K.K.K.K.K.",
"K.K.K.K.K.K.K.K.K.K.K.K.K.K.K.K.K.K.K.K.K.K.K.K.K.K.K.K.K.K.K.K.K.K.K.",
"K.K.K.K.K.K.K.K.K.K.K.K.K.K.K.K.K.K.K.K.K.K.K.K.K.K.K.K.K.K.K.K.K.K.K.",
"K.K.K.K.K.K.K.K.K.K.K.K.K.K.K.K.K.K.K.K.K.K.K.K.K.K.K.K.K.K.K.K.K.K.K.",
"K.K.K.K.K.K.K.K.K.K.K.K.K.K.K.K.K.K.K.K.K.K.K.K.K.K.K.K.K.K.K.K.K.K.K.",
"K.K.K.K.K.K.K.K.K.K.K.K.K.K.K.K.K.K.K.K.K.K.K.K.K.K.K.K.K.K.K.K.K.K.K."
};
