/* XPM */
static char *result[] = {
/* columns rows colors chars-per-pixel */
"35 55 178 2 ",
"   c #17110F",
".  c #1C1513",
"X  c #231417",
"o  c #241619",
"O  c #26191B",
"+  c #2A1B1B",
"@  c #311E1E",
"#  c #2E201E",
"$  c #32221F",
"%  c #37291F",
"&  c #271720",
"*  c #2B1B2D",
"=  c #281C24",
"-  c #2E1D33",
";  c #2F1E3A",
":  c #25193D",
">  c #311F3D",
",  c #2E2225",
"<  c #262C2F",
"1  c #262023",
"2  c #332422",
"3  c #3A2626",
"4  c #372920",
"5  c #3A2A23",
"6  c #33262A",
"7  c #3D2928",
"8  c #372C2B",
"9  c #3F3129",
"0  c #3D3027",
"q  c #272B34",
"w  c #3A2E32",
"e  c #273336",
"r  c #2B373A",
"t  c #3D3236",
"y  c #422D2B",
"u  c #42322B",
"i  c #4A392F",
"p  c #49342A",
"a  c #4A3530",
"s  c #4D3A35",
"d  c #40363A",
"f  c #533A33",
"g  c #563D39",
"h  c #583E39",
"j  c #5A4136",
"k  c #5D433D",
"l  c #5E493C",
"z  c #55423A",
"x  c #62463F",
"c  c #64493E",
"v  c #694B3F",
"b  c #2A1F41",
"n  c #332446",
"m  c #352949",
"M  c #253D41",
"N  c #3B2758",
"B  c #3E2A62",
"V  c #473D42",
"C  c #453857",
"Z  c #442E76",
"A  c #452E7A",
"S  c #493577",
"D  c #2C4648",
"F  c #2D4C4F",
"G  c #3F4644",
"H  c #2D4D50",
"J  c #2F5B5E",
"K  c #2A565A",
"L  c #305A5D",
"P  c #3D615F",
"I  c #276467",
"U  c #336B6D",
"Y  c #2C797D",
"T  c #2B7679",
"R  c #347274",
"E  c #357A7B",
"W  c #357478",
"Q  c #4A4146",
"!  c #4A474B",
"~  c #594D4A",
"^  c #5E514E",
"/  c #534A56",
"(  c #5A5357",
")  c #5E585C",
"_  c #634B41",
"`  c #6B4F44",
"'  c #6F5144",
"]  c #64524C",
"[  c #6D554A",
"{  c #735245",
"}  c #785547",
"|  c #755549",
" . c #795649",
".. c #76594C",
"X. c #7A594C",
"o. c #695751",
"O. c #615B5F",
"+. c #6E5F5B",
"@. c #7A5D51",
"#. c #735B50",
"$. c #73635E",
"%. c #4E4460",
"&. c #55476B",
"*. c #5C5268",
"=. c #615A61",
"-. c #635972",
";. c #476460",
":. c #646066",
">. c #656D64",
",. c #7F716D",
"<. c #6E6D73",
"1. c #6D687D",
"2. c #716F75",
"3. c #706E79",
"4. c #727177",
"5. c #7F7370",
"6. c #727278",
"7. c #796D69",
"8. c #845D4F",
"9. c #845F51",
"0. c #836254",
"q. c #896556",
"w. c #8A6759",
"e. c #8C6A5A",
"r. c #926757",
"t. c #936758",
"y. c #946959",
"u. c #926857",
"i. c #93705F",
"p. c #967160",
"a. c #9B7463",
"s. c #9F7867",
"d. c #867874",
"f. c #A17967",
"g. c #A47B6A",
"h. c #A87F6C",
"j. c #A07766",
"k. c #4F817F",
"l. c #84877A",
"z. c #AC826E",
"x. c #A58473",
"c. c #AE8370",
"v. c #B08571",
"b. c #4E378C",
"n. c #4D368A",
"m. c #513996",
"M. c #523A98",
"N. c #2E7D80",
"B. c #337E81",
"V. c #5C4D8C",
"C. c #584591",
"Z. c #645985",
"A. c #398A8D",
"S. c #328487",
"D. c #368F92",
"F. c #398F93",
"G. c #3A9496",
"H. c #3A9599",
"J. c #55908E",
"K. c #439596",
"L. c #748C83",
"P. c #918581",
"I. c #998F8C",
"U. c #A79D9A",
"Y. c #B3ABAB",
"T. c #B0A8B3",
"R. c #B9B1B0",
"E. c #C1BAB9",
"W. c #BFB8C0",
"Q. c #C5BDC6",
"!. c #CCC4C6",
"~. c #C9C2C9",
"^. c #CFC8CC",
"/. c #D1CBCE",
"(. c #D9D3D4",
"). c #E6DFE1",
"_. c #E9E4E4",
"`. c None",
/* pixels */
"`.`.`.`.`.`.`.`.`.`.`.`.`.`.`.`.`.`.`.`.`.`.`.`.`.`.`.`.`.`.`.`.`.`.`.",
"`.`.`.`.`.`.`.`.`.`.`.`.`.`.`.`.`.`.`.`.`.`.`.`.`.`.`.`.`.`.`.`.`.`.`.",
"`.`.`.`.`.`.`.`.`.`.`.`.`.`.`.`.`.`.`.`.`.`.`.`.`.`.`.`.`.`.`.`.`.`.`.",
"`.`.`.`.`.`.`.`.`.`.`.`.`.`.`.`.`.`.`.`.`.`.`.`.`.`.`.`.`.`.`.`.`.`.`.",
"`.`.`.`.`.`.`.`.`.`.`.`.`.`.`.`.`.`.`.`.`.`.`.`.`.`.`.`.`.`.`.`.`.`.`.",
"`.`.`.`.o o X o o o O o o o O + + # O O o o o X o o o + o o o O `.`.`.",
"`.`.`.`.o # # 2 2 2 2 2 4 5 8 5 0 0 8 4 2 + O # $ # + + + + o O `.`.`.",
"`.`.`.o + 7 9 9 u 9 9 u 9 9 9 9 9 9 9 9 u , + % 5 % 5 2 % 2 + O `.`.`.",
"`.`.`.`.o 0 p i # $ i i i 0   4 i i u 9 u $ + % % % % 4 5 2 + o `.`.`.",
"`.`.`.`.o 0 ..[   [ s.a.s.y., . e.p.j u u $ + % 4 % 5 4 4 % + `.`.`.`.",
"`.`.`.`.o 0 w.c l z.v.v.c.c.e.8 e.v.c 0 0 @ + % 5 % 5 5 5 4 + `.`.`.`.",
"`.`.`.`.+ z p.g.z.v.z.z.c.c.c.p.z.z.0.l l 5 + % % % % 4 % 4 + `.`.`.`.",
"`.`.`.`.2 a.z.z.s.s.z.z.z.s.c i _ x.z.z.z.k + % j v j % % 4 + `.`.`.`.",
"`.`.`.`.7 g.f.c s ~ ..i.i.] ,.,.s ..z.z.v.c + % { y.8.y 4 4 + `.`.`.`.",
"`.`.`.`.y s._ ( Y./.R.] [ E._._.U.j g.z.v.v + % v y.X.5 % % + `.`.`.`.",
"`.`.`.`.a e.] !.Q.!._.7.I.(.-.-.^.d.i.z.v.{ 5 p 8.y.X.4 % 5 + `.`.`.`.",
"`.`.`.`.p 0.P.Q.m C ^.d.R.T.: b W.P.w.v.v.q.| q.r.u. .% % % + `.`.`.`.",
"`.`.`.`.y e.d.~.%.*.E.~ U.~.%.*./.$.p.z.v.w.X.y.u.y. .5 % % + `.`.`.`.",
"`.`.`.`.a s.#.I.Y.Y.d.c o.R.^.!.d...z.v.z.e.| u.u.t. .5 4 % + `.`.`.`.",
"`.`.`.`.a g.g..._ ~ c $.] z +.o...z.c.z.v.q.| u.t.t. .% 4 % + `.`.`.`.",
"`.`.`.`.a h.c.c.z.g.0...X.@.y.s.c.c.z.c.c.w.' r.y.t. .% 5 % o `.`.`.`.",
"`.`.`.`.s h.c.c.z.z.a.p.i.f.v.v.c.c.c.c.z.w.' u.y.t.} % % $ o `.`.`.`.",
"`.`.`.`.s z.z.z.z.9.| |  . .9.h.c.c.c.c.c.w.' u.t.t.q.v v f + `.`.`.`.",
"`.`.`.`.p z.z.z.f.v f f f f h j.c.c.c.c.c.w.' u.y.t.t.t.y. .+ `.`.`.`.",
"`.`.`.`.7 j.v.c.h.g.a.p.p.a.j.h.c.c.v.z.z.q.{ r.t.y.r.r.t.8.o `.`.`.`.",
"`.`.`.`., p.c.c.c.v.v.v.v.v.v.h.c.c.z.v.z.0.` e.y.t.r.r.t. .+ `.`.`.`.",
"`.`.`.`.= e.c.h.z.c.c.c.v.v.z.v.c.c.z.z.z.X.c 9.8.8.q.r.r.{ + `.`.`.`.",
"`.`.`.`.O y f f g k _ k x x k k k h f s f 7 # + @ @ % y y 3 o `.`.`.`.",
"`.`.`.`.O o X o o X X X X . X X X X O < e e e e e H K r X o `.`.`.`.`.",
"`.`.`.`.`.o a @.7 X X O = e r F L U Y A.D.D.S.K E H.K.l.| 2 o `.`.`.`.",
"`.`.`.`.`.O 0.x.G M J R B.A.F.H.H.H.H.H.H.H.Y I D.H.L.c.z.w.+ o `.`.`.",
"`.`.`.`.`.O w.h.P T H.H.H.G.H.G.H.H.H.H.G.H.S.I D.J.x.z.c.q.O o `.`.`.",
"`.`.`.`.`.= e.z.;.Y H.H.G.H.G.H.H.H.H.H.H.H.D.I A.l.z.z.z.k X `.`.`.`.",
"`.`.`.`.`.`.0.v.>.Y H.H.H.H.G.H.H.H.K.H.H.G.H.Y J.x.z.v.p.7 `.`.`.`.`.",
"`.`.`.`.`.`.| v.>.W H.H.H.H.G.H.H.H.H.H.G.H.H.S.! j.v.h.x `.`.`.`.`.`.",
"`.`.`.`.`.`.7 h 8 I H.H.H.H.H.H.H.H.H.H.H.H.H.G.r f j.X.@ `.`.`.`.`.`.",
"`.`.`.`.`.`.o X X < D F J U W W E W W U U U R W D o 3 = `.`.`.`.`.`.`.",
"`.`.`.`.`.`.`.`.`.X o * q n m n n q * o o o o o O o o `.`.`.`.`.`.`.`.",
"`.`.`.`.`.`.`.`.`.O Z n.m.m.m.m.m.n.m X o + X X o o `.`.`.`.`.`.`.`.`.",
"`.`.`.`.`.`.`.`.+ N m.M.m.M.M.m.m.n.* o X X + - n O `.`.`.`.`.`.`.`.`.",
"`.`.`.`.`.`.`.X * n.M.m.M.M.M.m.m.C X X & b Z Z Z - o `.`.`.`.`.`.`.`.",
"`.`.`.`.`.`.o + / C.M.M.M.m.M.M.b.* & ; Z A A S S C o `.`.`.`.`.`.`.`.",
"`.`.`.`.`.`.o V 6.1.V.m.M.m.M.M.Z X N Z Z Z Z S *.O.6 o `.`.`.`.`.`.`.",
"`.`.`.`.`.o o Q 2.6.3.Z.m.m.m.n.* O N S Z S &.o.O.) w o `.`.`.`.`.`.`.",
"`.`.`.`.`.`.o o Q <.6.6.1.C.m.n `.`.q S &.=.O.O.( w O o `.`.`.`.`.`.`.",
"`.`.`.`.`.`.`.`.o Q <.6.4.1.C O `.`.& C =.O.) ! 2 X `.`.`.`.`.`.`.`.`.",
"`.`.`.`.`.`.`.`.`.`.d :.6.=.2 o `.`.`.6 ( ~ t + `.`.`.`.`.`.`.`.`.`.`.",
"`.`.`.`.`.`.`.`.`.`.`.6 / t o `.`.`.`.o 6 = o `.`.`.`.`.`.`.`.`.`.`.`.",
"`.`.`.`.`.`.`.`.`.`.`.`.o o o `.`.`.`.O o o `.`.`.`.`.`.`.`.`.`.`.`.`.",
"`.`.`.`.`.`.`.`.`.`.`.`.`.o `.`.`.`.`.`.`.`.`.`.`.`.`.`.`.`.`.`.`.`.`.",
"`.`.`.`.`.`.`.`.`.`.`.`.`.`.`.`.`.`.`.`.`.`.`.`.`.`.`.`.`.`.`.`.`.`.`.",
"`.`.`.`.`.`.`.`.`.`.`.`.`.`.`.`.`.`.`.`.`.`.`.`.`.`.`.`.`.`.`.`.`.`.`.",
"`.`.`.`.`.`.`.`.`.`.`.`.`.`.`.`.`.`.`.`.`.`.`.`.`.`.`.`.`.`.`.`.`.`.`.",
"`.`.`.`.`.`.`.`.`.`.`.`.`.`.`.`.`.`.`.`.`.`.`.`.`.`.`.`.`.`.`.`.`.`.`.",
"`.`.`.`.`.`.`.`.`.`.`.`.`.`.`.`.`.`.`.`.`.`.`.`.`.`.`.`.`.`.`.`.`.`.`."
};
