/* XPM */
static char *_0883b9e85b94e15e18f4c07daaab341fhqsgssIj4TMMwIC[] = {
/* columns rows colors chars-per-pixel */
"38 60 168 2 ",
"   c None",
".  c #211416",
"X  c #241619",
"o  c #25191B",
"O  c #2B1E1D",
"+  c #2E201D",
"@  c #31221D",
"#  c #251D23",
"$  c #2B1E22",
"%  c #2A1E2F",
"&  c #2E1D34",
"*  c #311F3D",
"=  c #272021",
"-  c #2F2121",
";  c #27272B",
":  c #2B2A2D",
">  c #2B272B",
",  c #342422",
"<  c #392626",
"1  c #3B2C26",
"2  c #32262A",
"3  c #342A2D",
"4  c #3D2D29",
"5  c #372923",
"6  c #3F3128",
"7  c #2E2039",
"8  c #262D32",
"9  c #382E32",
"0  c #31203E",
"q  c #273336",
"w  c #283336",
"e  c #2A3639",
"r  c #3A3134",
"t  c #3E3539",
"y  c #412E2B",
"u  c #43332B",
"i  c #49352E",
"p  c #4C392F",
"a  c #453331",
"s  c #4C3632",
"d  c #4D3933",
"f  c #433A3E",
"g  c #473B3C",
"h  c #543D36",
"j  c #563F38",
"k  c #564035",
"l  c #52423C",
"z  c #5B423A",
"x  c #5E493D",
"c  c #62453D",
"v  c #62493E",
"b  c #2F2F41",
"n  c #392E4A",
"m  c #2A3F41",
"M  c #39354A",
"N  c #3A2756",
"B  c #3B265A",
"V  c #37375A",
"C  c #37385A",
"Z  c #3A3654",
"A  c #3E2963",
"S  c #473E42",
"D  c #452F73",
"F  c #463076",
"G  c #47307A",
"H  c #2B4145",
"J  c #2D4B4D",
"K  c #384144",
"L  c #2E5558",
"P  c #2F5A5B",
"I  c #3A5D5B",
"U  c #2E5D60",
"Y  c #305D60",
"T  c #306567",
"R  c #316769",
"E  c #31696A",
"W  c #396969",
"Q  c #336E72",
"!  c #34797C",
"~  c #337174",
"^  c #414545",
"/  c #534D52",
"(  c #5B565B",
")  c #5E5A5F",
"_  c #654B41",
"`  c #6A4E42",
"'  c #6C5246",
"]  c #6D544A",
"[  c #715246",
"{  c #73564A",
"}  c #78564A",
"|  c #74584C",
" . c #7B5A4C",
".. c #685750",
"X. c #6B5950",
"o. c #755D54",
"O. c #7E5E51",
"+. c #7E6155",
"@. c #7B645B",
"#. c #524863",
"$. c #625E64",
"%. c #665C75",
"&. c #676369",
"*. c #656267",
"=. c #7D6D64",
"-. c #7C6F6A",
";. c #6E6C72",
":. c #6A6078",
">. c #686272",
",. c #71677E",
"<. c #727177",
"1. c #737279",
"2. c #7F7473",
"3. c #815D4F",
"4. c #825F51",
"5. c #846254",
"6. c #8B6657",
"7. c #856659",
"8. c #8A6759",
"9. c #82695D",
"0. c #8C6A5B",
"q. c #936D5E",
"w. c #876D64",
"e. c #8D6E62",
"r. c #826F69",
"t. c #82746B",
"y. c #8B776C",
"u. c #967161",
"i. c #9B7463",
"p. c #9F7866",
"a. c #9F7B6A",
"s. c #8A7975",
"d. c #897B78",
"f. c #A07967",
"g. c #A47B69",
"h. c #A97F6C",
"j. c #8D817F",
"k. c #90817D",
"l. c #AC826E",
"z. c #A78270",
"x. c #AE8370",
"c. c #B18571",
"v. c #4A3281",
"b. c #378386",
"n. c #37868A",
"m. c #38878A",
"M. c #35898C",
"N. c #388B8E",
"B. c #398E91",
"V. c #399396",
"C. c #3A9598",
"Z. c #3A989B",
"A. c #8E8280",
"S. c #8E8B8F",
"D. c #908589",
"F. c #888090",
"G. c #908691",
"H. c #A09290",
"J. c #A59C9D",
"K. c #9E95A3",
"L. c #ADA4A4",
"P. c #ADA5AF",
"I. c #B0A5A5",
"U. c #AEA6B1",
"Y. c #BBB2B4",
"T. c #BEB5BB",
"R. c #CDC6CA",
"E. c #D0C9CC",
/* pixels */
"                                                                            ",
"                                                                            ",
"                                                                            ",
"                                                                            ",
"                                                                            ",
"                                                                            ",
"                                                                            ",
"                                                                            ",
"                                                                            ",
"                                                                            ",
"                                                                            ",
"                                                                            ",
"                                                                            ",
"              X X o X o X o o O o X X X X X o o o o X X X X X               ",
"              o o o o + + , , , , , , O O O + + - - - + - O o               ",
"              O , O O 1 1 6 4 1 1 1 1 1 1 1 1 1 1 1 1 1 4 5 O               ",
"              O , + O u u u z ` ' ' ] ] ] ' ' ` x v _ h u 1 O               ",
"              O @ + O 6 u i 5.i.p.8.+.0.a.p.q.] j 7.u._ u 5 O               ",
"              O @ + O u u j u.x.c.0.v x 8.g.7.l v p.l.O.z i ,               ",
"              , 1 @ 4 ' | O.f.l.c.i._ p { f.5.k { q.h.i.8.{ d               ",
"              s z , j f.z.x.l.l.p.8.7.7.0.f.u.@.X.' u.l.c.i.                ",
"              c [ 5 z l.l.x.x.i.| o.s.k.w.7.s.J.J.-.o.f.c.u.                ",
"              _ { y z h.l.x.l.O.t.L.R.E.H.r.Y.U.K.Y.=.i.l.i.                ",
"              ` } i c l.x.l.l.7.I.S.>.K.L.S.T.#.Z U.d.i.l.p.                ",
"              ` 6.{  .l.l.l.l.9.L.F.:.G.A.s.T.,.%.P.r.i.l.i.j               ",
"              c 6.3. .h.x.c.c.u.y.A.D.2...X.j.L.J.s.0.g.c.p.j               ",
"              d 3.4. .g.l.c.x.h.i.e.e.+.| { ] @.w.e.g.l.c.i.d               ",
"              i  .4.| f.l.l.l.x.l.g.g.i.8.7.8.i.f.g.l.x.x.q.a               ",
"              u  .3.{ f.l.l.l.l.l.x.f.0.5.O.7.q.h.c.x.l.x.8.y               ",
"              i 5.3.' p.l.l.l.l.x.l.0.[ ` v _ [ i.l.x.l.x.5.4               ",
"              j 6.3.' p.c.x.x.x.x.l.i.7.5.4.4.6.f.x.c.c.c.7.4               ",
"              s [ v z 8.l.l.x.x.c.x.x.c.c.x.x.l.l.h.g.g.f. .4               ",
"              , s s s z 5.8.0.q.q.q.i.i.i.q.q.8.+.| ] ' _ s $               ",
"            , h  .7.O.i < < 1 y s d l l l g g ^ K e : 4 5 O X               ",
"          . u 8.c.x.f.z X o # ; e H J L U T ~ b.n.! I 9.7.j O               ",
"          O z p.c.l.p.d : J T ! n.B.V.V.V.V.V.C.V.M.W y.x.q.s               ",
"            O.i.c.x.q.a L M.V.V.C.C.C.C.C.C.C.C.V.M.T t.x.u.                ",
"            s 0.c.x.q.4 Y V.C.C.C.C.V.N.m.b.b.b.b.! P =.l.0.                ",
"          . , z 5.5._ 2 Q V.C.V.C.B.R H e e q q w 8 ; l 0.'                 ",
"            o O < < 2 J n.C.Z.C.C.! H 2 t f f f f f t 2 u 5                 ",
"                  . = J R E E E P m > S $.&.&.&.&.&.$.9 O                   ",
"                    # b M Z C V n 7 2 / 1.1.1.1.1.1.;.f                     ",
"                    % B D G v.v.v.A n ( 1.<.<.<.<.<.;.S                     ",
"                      N D F F F F N M ) 1.<.<.<.<.<.;.S                     ",
"                      $ & * 0 0 & # r ( 1.<.<.<.<.<.;.f                     ",
"                                    3 S ) $.&.&.*.$.( 9                     ",
"                                      O - 2 r f t 3 2 o                     ",
"                                          X X                               ",
"                                                                            ",
"                                                                            ",
"                                                                            ",
"                                                                            ",
"                                                                            ",
"                                                                            ",
"                                                                            ",
"                                                                            ",
"                                                                            ",
"                                                                            ",
"                                                                            ",
"                                                                            "
};
