/* XPM */
static char *result[] = {
/* columns rows colors chars-per-pixel */
"35 55 177 2 ",
"   c #231417",
".  c #241619",
"X  c #26191B",
"o  c #2A1B1C",
"O  c #301F1F",
"+  c #1F1338",
"@  c #261B23",
"#  c #2A1D22",
"$  c #2A1E2C",
"%  c #301F21",
"&  c #2D1D32",
"*  c #2F1F39",
"=  c #301F3B",
"-  c #2F2225",
";  c #252B2D",
":  c #2B2C2E",
">  c #262124",
",  c #342322",
"<  c #3A2625",
"1  c #3C2D26",
"2  c #33262A",
"3  c #35292D",
"4  c #3D2C29",
"5  c #3F3128",
"6  c #3E3027",
"7  c #2B2332",
"8  c #392D31",
"9  c #352831",
"0  c #253639",
"q  c #2A3A3D",
"w  c #26363A",
"e  c #373537",
"r  c #422D2B",
"t  c #42332B",
"y  c #52392F",
"u  c #4C3532",
"i  c #4C3C36",
"p  c #533B33",
"a  c #5E463E",
"s  c #5F483C",
"d  c #544136",
"f  c #61463F",
"g  c #624A3D",
"h  c #2F2345",
"j  c #342747",
"k  c #293F43",
"l  c #3B2858",
"z  c #3F2C65",
"x  c #473E42",
"c  c #473C5B",
"v  c #412C69",
"b  c #432F71",
"n  c #463174",
"m  c #48327B",
"M  c #2B474B",
"N  c #2B4A4D",
"B  c #2C4447",
"V  c #2F5155",
"C  c #2B5B5D",
"Z  c #2D5F60",
"A  c #26696C",
"S  c #276568",
"D  c #326467",
"F  c #326669",
"G  c #336B6D",
"H  c #336F72",
"J  c #2B7579",
"K  c #2B7276",
"L  c #347477",
"P  c #357679",
"I  c #367B7E",
"U  c #4A4246",
"Y  c #564843",
"T  c #4D4452",
"R  c #5A555A",
"E  c #644C41",
"W  c #684D43",
"Q  c #6C5245",
"!  c #6C534B",
"~  c #61514B",
"^  c #735549",
"/  c #75594C",
"(  c #795B4E",
")  c #775648",
"_  c #6A5B56",
"`  c #6C5D59",
"'  c #675852",
"]  c #735B52",
"[  c #7C5D51",
"{  c #6F615E",
"}  c #796258",
"|  c #564C64",
" . c #615C62",
".. c #675F7B",
"X. c #666369",
"o. c #69666D",
"O. c #6B686E",
"+. c #656167",
"@. c #796C65",
"#. c #6F6C73",
"$. c #6E6B7B",
"%. c #6B647F",
"&. c #716F75",
"*. c #706E7A",
"=. c #737277",
"-. c #747378",
";. c #856355",
":. c #886557",
">. c #856658",
",. c #8D6B5C",
"<. c #8B6759",
"1. c #926D5E",
"2. c #95705F",
"3. c #946F60",
"4. c #967060",
"5. c #9C7564",
"6. c #9F7867",
"7. c #8A7D7A",
"8. c #A17967",
"9. c #A57C6A",
"0. c #A87F6C",
"q. c #5B827D",
"w. c #6F857D",
"e. c #79877D",
"r. c #8C807D",
"t. c #95877A",
"y. c #938071",
"u. c #AC826F",
"i. c #B0836F",
"p. c #A58573",
"a. c #AE8370",
"s. c #B18471",
"d. c #493481",
"f. c #4E368B",
"g. c #50398D",
"h. c #4F3891",
"j. c #523B96",
"k. c #523A99",
"l. c #2E7D80",
"z. c #367E80",
"x. c #544384",
"c. c #564293",
"v. c #584590",
"b. c #6B6381",
"n. c #766D83",
"m. c #348689",
"M. c #36888C",
"N. c #378587",
"B. c #3A9396",
"V. c #3A9598",
"C. c #3A989C",
"Z. c #568D89",
"A. c #4E9291",
"S. c #748D84",
"D. c #948986",
"F. c #908785",
"G. c #9A918E",
"H. c #928999",
"J. c #9D9390",
"K. c #A39997",
"L. c #9B93A2",
"P. c #A69EAC",
"I. c #A9A1AE",
"U. c #ABA2A0",
"Y. c #B0A7A5",
"T. c #B7AFB1",
"R. c #BEB6BE",
"E. c #B9B1B6",
"W. c #C3BBBC",
"Q. c #C4BDC4",
"!. c #CCC4C6",
"~. c #CAC3C9",
"^. c #D4CDCB",
"/. c #DED7D8",
"(. c #E6E0E1",
"). c #F1EBEC",
"_. c None",
/* pixels */
"_._._._._._._._._._._._._._._._._._._._._._._._._._._._._._._._._._._.",
"_._._._._._._._._._._._._._._._._._._._._._._._._._._._._._._._._._._.",
"_._._._._._._._._._._._._._._._._._._._._._._._._._._._._._._._._._._.",
"_._._._._._._._._._._._._._._._._._._._._._._._._._._._._._._._._._._.",
"_._._._._._.. X     X X _._._._._.X X . .   . . . _._._.. _._._._._._.",
"_._._._._._.. . X X X O , , , - o o X X X X X   . X X . . X _._._._._.",
"_._._._._._.. , 1 1 5 5 5 t 5 t t 5 6 1 1 1 1 1 4 1 4 1 X X _._._._._.",
"_._._._._._.X 5 t t 5 5 5 5 5 5 5 5 5 5 t 5 6 t t t t 4 X . _._._._._.",
"_._._._._._.X 4 t t g E g g s E g Q Q / / ^ Q Q s t t 6 X _._._._._._.",
"_._._._._._.X t 5 d 9.u.u.u.u.u.a.a.a.a.a.a.u.a.2.t 5 5 X _._._._._._.",
"_._._._._._.o 4 6 d u.u.a.a.a.s.a.a.a.a.a.a.a.s.2.t 5 5 X _._._._._._.",
"_._._._._._.4 [ / ;.u.u.a.a.u.s.a.a.u.;.Q ,.u.u.8.( / Q , _._._._._._.",
"_._._._._._.u 0.a.a.u.u.8./ Y ( 6.u./ d d i 4.s.a.a.a.0.t _._._._._._.",
"_._._._._._.u 0.a.u.u.u.s Y F.G.} / r.^.^.{ ^ u.a.a.a.0.u _._._._._._.",
"_._._._._._.p 0.a.a.s.>.' !.(.).F.{ /.I.I.W.! 0.a.a.u.u.u _._._._._._.",
"_._._._._._.p a.a.a.a./ Y.I.| R.U.G.~.h l ~.@.5.a.a.u.u.p _._._._._._.",
"_._._._._._.u 0.a.a.a.[ T.n.& H.F.G.~.h c ~.} 8.a.a.a.0.u _._._._._._.",
"_._._._._._.u 9.a.a.s.3.7.R.L.T.' _ !.P.E.K.] a.a.a.a.0.u _._._._._._.",
"_._._._._._.4 9.a.a.a.0.] ` @.~ ! W _ K.r.Q 8.a.u.a.a.0.u _._._._._._.",
"_._._._._._.< 5.a.a.a.a.0.5.,.:.} / E E } 9.a.u.a.u.a.8.4 _._._._._._.",
"_._._._._._.% 4.a.a.a.a.a.s.s.8.;.>.1.i.i.u.a.a.a.u.a.5., _._._._._._.",
"_._._._._._.% 4.a.a.a.a.s.s.8.1.2.2.2.9.u.i.a.a.a.u.s.4.# _._._._._._.",
"_._._._._._.# 3.a.a.a.a.u.0.) y p y y g 9.u.i.a.a.a.i.,.o _._._._._._.",
"_._._._._._.o :.a.a.a.a.s.u.1.( / ) ) ;.u.u.u.s.a.a.s.<.X _._._._._._.",
"_._._._._._.X :.s.u.a.a.a.u.a.a.s.u.u.s.a.u.a.u.a.a.s.;.. _._._._._._.",
"_._._._._._.X :.s.a.a.a.a.a.a.a.a.a.s.u.a.a.a.a.a.a.s.;.. _._._._._._.",
"_._._._._._.X ;.0.9.0.0.0.0.9.9.8.5.8.8.9.0.p.9.0.9.5.^ X _._._._._._.",
"_._._._._._.  O r r r r t r r r < % , < r r r 4 r r , o . _._._._._._.",
"_._._._.X o < 9 ; X             X @ ; w M M N M 0 0 q e < X . _._._._.",
"_._._._.o ( 5.w.N.0     . # w V F I N.B.V.V.V.B.S K B.e.9.W X _._._._.",
"_._._._.o 1.s.t.B.C w B D z.B.B.V.V.V.V.V.B.V.B.A J A.p.s.)   _._._._.",
"_._._._.X [ s.p.Z.A m.V.V.V.V.V.V.B.V.V.V.V.V.V.J m.S.u.s.f _._._._._.",
"_._._._._.E 0.s.e.A M.V.B.V.V.V.V.V.V.V.V.V.V.V.J N.t.i.0.u _._._._._.",
"_._._._._.u 0.s.7.Z M.V.V.V.V.B.V.V.V.V.B.V.V.B.J q.a.i.5.4 _._._._._.",
"_._._._._., 4.s.;.: I V.V.B.V.V.V.V.V.V.B.V.V.B.S @.s.s.[ # _._._._._.",
"_._._._._.  E E o X I C.C.C.V.V.V.V.V.V.V.V.V.B.k < [ 4.u   _._._._._.",
"_._._._._.X . . _.X V F F L P L L L P D Z N.V.B.q   X , X _._._._._._.",
"_._._._._._._._._.X X   . X $ $ X $ & @ X L C.B.q   _.    _._._._._._.",
"_._._._._._._._._.@ z n b n m m & l f.m & G I D ; . _._._._._._._._._.",
"_._._._._._._._._.$ f.k.k.k.k.j.* l k.h.* 7 7 @ . . _._._._._._._._._.",
"_._._._._._._._._.& f.k.j.k.k.h.= l k.k.d.d.f.b $   _._._._._._._._._.",
"_._._._._._._._._.& h.k.k.k.k.k.l v k.k.k.k.j.h.& X _._._._._._._._._.",
"_._._._._._._._._.7 x.v.v.v.j.j.c b j.j.k.k.k.h.$ X _._._._._._._._._.",
"_._._._._._._._._.- o.$.$.*.$.$.T | %.%.b.b.b...9 . _._._._._._._._._.",
"_._._._._._._._._.- O.-.&.&.=.=.U R =.=.=.-.-.&.8   _._._._._._._._._.",
"_._._._._._._._._.#  .O.O.&.&.O.3 x O.O.X.X.+. .2   _._._._._._._._._.",
"_._._._._._._._._.. @ # 2 8 t 9 . # 3 - # > # o X X _._._._._._._._._.",
"_._._._._._._._._._.. .   _._._._._._._._.. X     _._._._._._._._._._.",
"_._._._._._._._._._._._._._._._._._._._._._._._._._._._._._._._._._._.",
"_._._._._._._._._._._._._._._._._._._._._._._._._._._._._._._._._._._.",
"_._._._._._._._._._._._._._._._._._._._._._._._._._._._._._._._._._._.",
"_._._._._._._._._._._._._._._._._._._._._._._._._._._._._._._._._._._.",
"_._._._._._._._._._._._._._._._._._._._._._._._._._._._._._._._._._._.",
"_._._._._._._._._._._._._._._._._._._._._._._._._._._._._._._._._._._.",
"_._._._._._._._._._._._._._._._._._._._._._._._._._._._._._._._._._._."
};
