/* XPM */
static char *result[] = {
/* columns rows colors chars-per-pixel */
"35 55 161 2 ",
"   c #231417",
".  c #241619",
"X  c #26191C",
"o  c #2A1B1C",
"O  c #2F201E",
"+  c #32241E",
"@  c #36281F",
"#  c #261720",
"$  c #241C20",
"%  c #291A25",
"&  c #2A1B2C",
"*  c #2E1D35",
"=  c #311E3C",
"-  c #252224",
";  c #2F2325",
":  c #262628",
">  c #292629",
",  c #272B2D",
"<  c #342522",
"1  c #372921",
"2  c #392B23",
"3  c #3B2B2A",
"4  c #35282B",
"5  c #3F3129",
"6  c #272D30",
"7  c #3A2E31",
"8  c #283234",
"9  c #27383C",
"0  c #293B3D",
"q  c #223436",
"w  c #442D29",
"e  c #41332A",
"r  c #4B372D",
"t  c #49392E",
"y  c #503A2F",
"u  c #4D3C31",
"i  c #413539",
"p  c #473737",
"a  c #543C35",
"s  c #593E37",
"d  c #573F39",
"f  c #5A3F39",
"g  c #564236",
"h  c #5C433B",
"j  c #5B4136",
"k  c #63453D",
"l  c #68473E",
"z  c #66493D",
"x  c #694B3E",
"c  c #321F40",
"v  c #332042",
"b  c #352349",
"n  c #3D2E49",
"m  c #2A3D40",
"M  c #3A2655",
"N  c #3A2759",
"B  c #3C285C",
"V  c #3D2864",
"C  c #3F2A6B",
"Z  c #473E42",
"A  c #493F44",
"S  c #432E6E",
"D  c #422D72",
"F  c #452F7A",
"G  c #463077",
"H  c #493676",
"J  c #463079",
"K  c #4D3973",
"L  c #2C474A",
"P  c #2C4144",
"I  c #215356",
"U  c #2E5356",
"Y  c #2F575A",
"T  c #2F595C",
"R  c #255A5D",
"E  c #305A5D",
"W  c #215F61",
"Q  c #305E62",
"!  c #236263",
"~  c #23676A",
"^  c #266B6E",
"/  c #32676A",
"(  c #2F6D70",
")  c #346F73",
"_  c #2F7C7F",
"`  c #347376",
"'  c #347578",
"]  c #347B7E",
"[  c #397B7D",
"{  c #4A4145",
"}  c #4C4549",
"|  c #584F53",
" . c #544D52",
".. c #595256",
"X. c #5C565B",
"o. c #634740",
"O. c #654941",
"+. c #6B4B43",
"@. c #6F5148",
"#. c #755547",
"$. c #725449",
"%. c #615B5F",
"&. c #7D5B50",
"*. c #564869",
"=. c #594D69",
"-. c #52426D",
";. c #5E5563",
":. c #55457B",
">. c #5E5670",
",. c #615A61",
"<. c #5E6C66",
"1. c #4E7F7E",
"2. c #6B686E",
"3. c #72746B",
"4. c #6F6D73",
"5. c #706E79",
"6. c #727177",
"7. c #737278",
"8. c #805F53",
"9. c #8B6254",
"0. c #8C6A5A",
"q. c #916657",
"w. c #936857",
"e. c #946959",
"r. c #94715F",
"t. c #9A7463",
"y. c #9F7967",
"u. c #857C71",
"i. c #A17A67",
"p. c #A57D6A",
"a. c #AA7F6C",
"s. c #8C8A7D",
"d. c #9D8576",
"f. c #AC826E",
"g. c #A78471",
"h. c #AE8470",
"j. c #B08571",
"k. c #493381",
"l. c #4F388F",
"z. c #513A96",
"x. c #523A98",
"c. c #2F7D81",
"v. c #327E80",
"b. c #5B4A8E",
"n. c #655D84",
"m. c #686182",
"M. c #348284",
"N. c #33878A",
"B. c #35898C",
"V. c #388B8E",
"C. c #398E91",
"Z. c #3A9497",
"A. c #3A9599",
"S. c #568E8C",
"D. c #469191",
"F. c #6B8982",
"G. c #7F8D83",
"H. c #728F88",
"J. c #65928D",
"K. c #898B80",
"L. c None",
/* pixels */
"L.L.L.L.L.L.L.L.L.L.L.L.L.L.L.L.L.L.L.L.L.L.L.L.L.L.L.L.L.L.L.L.L.L.L.",
"L.L.L.L.L.L.L.L.L.L.L.L.L.L.L.L.L.L.L.L.L.L.L.L.L.L.L.L.L.L.L.L.L.L.L.",
"L.L.L.L.L.L.L.L.L.L.L.L.L.L.L.L.L.L.L.L.L.L.L.L.L.L.L.L.L.L.L.L.L.L.L.",
"L.L.L.L.L.L.L.L.L.L.L.L.L.L.L.L.L.L.L.L.L.L.L.L.L.L.L.L.L.L.L.L.L.L.L.",
"L.L.L.L.L.L.L.L.L.L.L.L.L.L.L.L.L.L.L.L.L.L.L.L.L.L.L.L.L.L.L.L.L.L.L.",
"L.L.L.L.L.L.L.L.L.L.L.L.L.L.L.L.L.L.L.L.L.L.L.L.L.L.L.L.L.L.L.L.L.L.L.",
"L.L.L.L.L.L.L.L.L.L.L.L.L.L.L.L.L.L.L.L.L.L.L.L.L.L.L.L.L.L.L.L.L.L.L.",
"L.L.L.L.L.X . . . . . . . X . . . X X X . . . . . . X . . . . . . L.L.",
"L.L.L.L.L.. . o o o o o O 1 1 1 < < < 1 1 < < < < o . o o o o o . X L.",
"L.L.L.L.L.. + 3 5 5 e e e e 5 5 e e e e e e e e e <   + @ @ @ @ o X L.",
"L.L.L.L.L.. + e e e e e e e e e e e e e e e e e e 1 . + 2 @ @ 2 o X L.",
"L.L.L.L.L.. < e e e e e e e e e e e e e e e e e e 1 X + @ 2 @ @ o . L.",
"L.L.L.L.L.. < e e e e e e e e e e e e e e e e e e 1 . + 2 @ w @ o . L.",
"L.L.L.L.L.X 1 e e e e e e e e e e e e e e e e e e 2   + @ @ @ @ o . L.",
"L.L.L.L.L.o 3 e e e e e e e e e e e e e e e e e e 2 o @ 2 @ @ @ o . L.",
"L.L.L.L.L.X 3 e e e e e e e e e e e e e e e e e e 2 o @ @ @ y x 2 . L.",
"L.L.L.L.L.o 3 e 5 e e e e e e e e e e e e e e e e 5 o @ @ @ z e.a . L.",
"L.L.L.L.L.o 3 e e e e e e e e e e e e e e e e e 5 5 X @ @ @ x e.s L.L.",
"L.L.L.L.L.X 3 5 5 t e e e e e e e e e e e e e e 5 3 o + 2 @ x e.k L.L.",
"L.L.L.L.L.X 2 e 5 5 e e e e e e e e e e e e e e e 5 o + @ @ x e.l L.L.",
"L.L.L.L.L.X 1 e 5 5 5 5 e e e e e e e e e e e e e 2 X + 2 @ j e.O.L.L.",
"L.L.L.L.L.. < 5 e t t 5 e e e e e e e e e e e e e w   O @ @ y w.+.L.L.",
"L.L.L.L.L.X < 5 5 t 5 5 e e e e e e e e e e e e e 2 . < r r z w.O.X L.",
"L.L.L.L.L.X ; 5 5 5 5 5 e e 5 e e e e e e e e e e 2 . s q.9.w.w.a . L.",
"L.L.L.L.L.. o e e 5 e 5 e 5 5 5 5 5 5 e 5 5 5 5 e 3 . s e.w.e.9.w   L.",
"L.L.L.L.L.. < r p t r r t a t g g h h g u u e t r e o h e.w.e.9.<   L.",
"L.L.L.L.L.  e t.t.t.t.y.y.i.p.g.g.f.g.p.y.y.t.e.t.0.j #.w.w.e.9.<   L.",
"L.L.L.L.L.  p h.h.h.h.h.j.j.j.j.f.f.j.j.j.h.j.j.j.y.z #.e.e.q.9.< . L.",
"L.L.L.L.L.. < d a j o.O.+.o.o.O.@.+.#.$.$.o.h h f s e a +.+.l k o . L.",
"L.L.L.L.L.. . . - $     .               . X $ $ $ $ $ O X $ X . . . L.",
"L.L.L.L.L.L.. t 1.Q .       X - 6 0 L Y / ' v.v.v.[ M.( R ' <.&.o.< . ",
"L.L.L.L.L.L.  o.J.] q 9 L T ` M.V.C.Z.A.A.A.A.A.A.A.A.] ^ Z.s.j.f.a . ",
"L.L.L.L.L.L.. O.H.N.W M.A.A.A.A.A.Z.A.Z.Z.Z.Z.A.A.A.A.v.^ D.d.j.p.w . ",
"L.L.L.L.L.L.. $.G.B.! N.A.A.A.A.Z.A.A.Z.A.A.A.Z.Z.Z.Z.v.^ S.g.h.p.w . ",
"L.L.L.L.L.L.L.$.K.B.W N.A.Z.A.A.A.A.A.A.Z.A.A.A.A.Z.A.M.~ F.h.j.r.< L.",
"L.L.L.L.L.L.L.r u.v.I ] A.Z.A.Z.Z.A.Z.A.Z.A.Z.A.A.A.A.c.I 3.j.j.&.X L.",
"L.L.L.L.L.L.L.X 3 > # Y Z.Z.Z.Z.A.A.A.A.Z.Z.Z.Z.Z.C.C.` : 4 h $.p L.L.",
"L.L.L.L.L.L.L.L.    . > 0 m m L U Y Q E T / U L 9 8 6 , . . . . . L.L.",
"L.L.L.L.L.L.L.L.L.L.X % %             % M N N M b v = * % X L.L.L.L.L.",
"L.L.L.L.L.L.L.L.L.. c D D S c # . . . % k.x.x.x.x.z.z.l.S # L.L.L.L.L.",
"L.L.L.L.L.L.L.L.L.& S F F F F B *   . . N z.x.z.x.z.x.x.z.b . L.L.L.L.",
"L.L.L.L.L.L.L.L.. n H J F F F F D b .   * l.x.x.x.x.x.x.b.>.; L.L.L.L.",
"L.L.L.L.L.L.L.. o ..;.-.H F F F F M X L.% G x.x.x.z.b.n.5.7.{ . L.L.L.",
"L.L.L.L.L.L.L.. 4 X.%.,.;.*.K F F * L.L.L.M z.z.b.m.5.6.7.6.{ . . L.L.",
"L.L.L.L.L.L.L.. X 7 | ,.%.%.%.=.M . L.L.L.& :.n.6.6.7.7.4.} X . L.L.L.",
"L.L.L.L.L.L.L.L.L.. ; { ..%.,...< . L.L.L.L.{ 7.7.6.2...Z L.L.L.L.L.L.",
"L.L.L.L.L.L.L.L.L.L.L.X ; 3 Z i X L.L.L.L.L.$  .X.i 4 X L.L.L.L.L.L.L.",
"L.L.L.L.L.L.L.L.L.L.L.L.L.  . . . L.L.L.L.L.X X X   L.L.L.L.L.L.L.L.L.",
"L.L.L.L.L.L.L.L.L.L.L.L.L.L.L.. L.L.L.L.L.L.L.. . L.L.L.L.L.L.L.L.L.L.",
"L.L.L.L.L.L.L.L.L.L.L.L.L.L.L.L.L.L.L.L.L.L.L.L.L.L.L.L.L.L.L.L.L.L.L.",
"L.L.L.L.L.L.L.L.L.L.L.L.L.L.L.L.L.L.L.L.L.L.L.L.L.L.L.L.L.L.L.L.L.L.L.",
"L.L.L.L.L.L.L.L.L.L.L.L.L.L.L.L.L.L.L.L.L.L.L.L.L.L.L.L.L.L.L.L.L.L.L.",
"L.L.L.L.L.L.L.L.L.L.L.L.L.L.L.L.L.L.L.L.L.L.L.L.L.L.L.L.L.L.L.L.L.L.L.",
"L.L.L.L.L.L.L.L.L.L.L.L.L.L.L.L.L.L.L.L.L.L.L.L.L.L.L.L.L.L.L.L.L.L.L.",
"L.L.L.L.L.L.L.L.L.L.L.L.L.L.L.L.L.L.L.L.L.L.L.L.L.L.L.L.L.L.L.L.L.L.L."
};
