/* XPM */
static char *result[] = {
/* columns rows colors chars-per-pixel */
"35 55 153 2 ",
"   c #221316",
".  c #241619",
"X  c #25191B",
"o  c #2A1C1C",
"O  c #2F211F",
"+  c #31231E",
"@  c #251C21",
"#  c #2C1D22",
"$  c #2F1E36",
"%  c #252124",
"&  c #2C2022",
"*  c #262528",
"=  c #2F2829",
"-  c #332422",
";  c #3A2727",
":  c #362822",
">  c #3A2A25",
",  c #312629",
"<  c #352A2D",
"1  c #3E2C29",
"2  c #3F3128",
"3  c #262D30",
"4  c #32213F",
"5  c #293437",
"6  c #293B3E",
"7  c #3B3335",
"8  c #3F3539",
"9  c #432D2B",
"0  c #42332A",
"q  c #48332E",
"w  c #4B3A2F",
"e  c #4E3532",
"r  c #4E3932",
"t  c #41373B",
"y  c #41383C",
"u  c #483938",
"i  c #523B35",
"p  c #593D37",
"a  c #593F39",
"s  c #534136",
"d  c #574139",
"f  c #5F483E",
"g  c #5C4337",
"h  c #62463C",
"j  c #654A3E",
"k  c #291E40",
"l  c #332142",
"z  c #3B2757",
"x  c #3D295E",
"c  c #473D41",
"v  c #402A64",
"b  c #422C6B",
"n  c #2B4649",
"m  c #2D4A4E",
"M  c #2B4143",
"N  c #2E4F52",
"B  c #2C5254",
"V  c #2E575B",
"C  c #2E5A5D",
"Z  c #3A5856",
"A  c #305D60",
"S  c #2D6262",
"D  c #316266",
"F  c #396665",
"G  c #31676A",
"H  c #32777A",
"J  c #34767A",
"K  c #4A4246",
"L  c #4D454A",
"P  c #51494E",
"I  c #5F4F4A",
"U  c #634740",
"Y  c #664D42",
"T  c #6A4E44",
"R  c #6B5145",
"E  c #6C5148",
"W  c #735446",
"Q  c #725549",
"!  c #765A4D",
"~  c #7B5A4D",
"^  c #645753",
"/  c #675953",
"(  c #6C5B54",
")  c #735D55",
"_  c #7B5C51",
"`  c #7F6153",
"'  c #766058",
"]  c #7B655D",
"[  c #524863",
"{  c #5F556F",
"}  c #645B74",
"|  c #67656A",
" . c #6C6A6F",
".. c #786A66",
"X. c #7E6F6A",
"o. c #7F706C",
"O. c #6E6C72",
"+. c #6E647C",
"@. c #706F74",
"#. c #727177",
"$. c #737279",
"%. c #846354",
"&. c #8A6354",
"*. c #876658",
"=. c #8B675A",
"-. c #8C6A5B",
";. c #916C5D",
":. c #92705F",
">. c #806E68",
",. c #946E60",
"<. c #8A7568",
"1. c #967161",
"2. c #9C7664",
"3. c #9F7867",
"4. c #957C6D",
"5. c #817673",
"6. c #8A7B77",
"7. c #A07967",
"8. c #A57C6A",
"9. c #A97F6C",
"0. c #A1806F",
"q. c #AB816E",
"w. c #AE8370",
"e. c #B18571",
"r. c #513A95",
"t. c #377F82",
"y. c #766C83",
"u. c #378184",
"i. c #388386",
"p. c #378789",
"a. c #38878A",
"s. c #358C8F",
"d. c #398E91",
"f. c #3A9295",
"g. c #3A9699",
"h. c #938887",
"j. c #978B8B",
"k. c #998E8B",
"l. c #A89F9C",
"z. c #AAA2AF",
"x. c #ABA3A3",
"c. c #B4ABAC",
"v. c #B8AFAD",
"b. c #B8B1BB",
"n. c #C2BABC",
"m. c #C2BBC3",
"M. c #CEC6C8",
"N. c #CFC8C9",
"B. c #CAC3C6",
"V. c #D1C9C9",
"C. c #D9D2D4",
"Z. c #E5DEE0",
"A. c None",
/* pixels */
"A.A.A.A.A.A.A.A.A.A.A.A.A.A.A.A.A.A.A.A.A.A.A.A.A.A.A.A.A.A.A.A.A.A.A.",
"A.A.A.A.A.A.A.A.A.A.A.A.A.A.A.A.A.A.A.A.A.A.A.A.A.A.A.A.A.A.A.A.A.A.A.",
"A.A.A.A.A.A.A.A.A.A.A.A.A.A.A.A.A.A.A.A.A.A.A.A.A.A.A.A.A.A.A.A.A.A.A.",
"A.A.A.A.A.A.A.A.A.A.A.A.A.A.A.A.A.A.A.A.A.A.A.A.A.A.A.A.A.A.A.A.A.A.A.",
"A.A.A.A.A.A.A.A.A.A.A.A.A.A.A.A.A.A.A.A.A.A.A.A.A.A.A.A.A.A.A.A.A.A.A.",
"A.A.A.A.A.A.A.A.A.A.A.A.A.A.A.A.A.A.A.A.A.A.A.A.A.A.A.A.A.A.A.A.A.A.A.",
"A.A.A.A.A.A.A.A.A.A.A.A.A.A.A.A.A.A.A.A.A.A.A.A.A.A.A.A.A.A.A.A.A.A.A.",
"A.A.A.A.A.A.A.A.A.A.A.A.A.A.A.A.A.A.A.A.A.A.A.A.A.A.A.A.A.A.A.A.A.A.A.",
"A.A.A.A.A.A.A.A.A.A.A.A.A.A.A.A.A.A.A.A.A.A.A.A.A.A.A.A.A.A.A.A.A.A.A.",
"A.A.A.A.A.A.A.A.A.A.A.A.A.A.A.A.A.A.A.A.A.A.A.A.A.A.A.A.A.A.A.A.A.A.A.",
"A.A.A.A.A.A.A.A.A.A.A.A.A.A.A.A.A.A.A.A.A.A.A.A.A.A.A.A.A.A.A.A.A.A.A.",
"A.A.A.A.A.A.A.A.A.A.A.A.A.A.A.A.A.A.A.A.A.A.A.A.A.A.A.A.A.A.A.A.A.A.A.",
"A.A.A.A.A.A.X . X . o . X X O . X . . . X X X X . . . . X A.A.A.A.A.A.",
"A.A.A.A.A.A.X o o X + + > > > > : - O O + + - - - - - O X A.A.A.A.A.A.",
"A.A.A.A.A.A.X > + o 9 0 0 0 0 2 0 0 0 0 0 0 0 2 2 0 0 : X A.A.A.A.A.A.",
"A.A.A.A.A.A.X + + o 0 0 0 W %.%.*.*.-.*.%.` R ! _ s 0 : X A.A.A.A.A.A.",
"A.A.A.A.A.A.o + + X 2 2 r 3.e.w.! ! 0.e.8.I > 1.e.Y 2 > . A.A.A.A.A.A.",
"A.A.A.A.A.A.o + + O w s j 8.w.w.` + 2 2.*.0 %.q.q.*.R d O A.A.A.A.A.A.",
"A.A.A.A.A.A.- h + 9 2.0.q.q.e.q.:.*.%.q.8.Q s T q.e.w.-.A.A.A.A.A.A.A.",
"A.A.A.A.A.A.9 &.> q q.w.w.w.7.j E o.] -.' k.l./ ! q.e.-.A.A.A.A.A.A.A.",
"A.A.A.A.A.A.e &.9 q q.q.e.w.W 5.N.Z.n.E v.m.z.n.) 8.e.-.A.A.A.A.A.A.A.",
"A.A.A.A.A.A.i &.q r q.e.q.q.' B.| +.V.$.C.[ k b.6.2.e.,.A.A.A.A.A.A.A.",
"A.A.A.A.A.A.p ;.~ W q.q.q.q.] n.} y.l.^ V.y.{ b.] 7.e.-.- A.A.A.A.A.A.",
"A.A.A.A.A.A.q &.&.W 9.e.e.e.;.>.j.h.^ Y ..v.c.X.-.w.e.;.- A.A.A.A.A.A.",
"A.A.A.A.A.A.+ W &.W 8.q.e.w.w.2.*.*.! _ Y E _ ,.w.w.e.*.o A.A.A.A.A.A.",
"A.A.A.A.A.A.O W &.R 7.e.q.w.w.w.w.w.1.-.,.9.e.w.w.w.w._ X A.A.A.A.A.A.",
"A.A.A.A.A.A.o W &.Y 7.w.e.w.q.w.q.%.~ W ! ~ 7.e.w.w.w.Q . A.A.A.A.A.A.",
"A.A.A.A.A.A.+ %.&.Y 2.e.w.w.e.w.8.W j h h j 1.w.w.w.w.T . A.A.A.A.A.A.",
"A.A.A.A.A.A.1 &.%.j 2.e.w.w.w.w.q.q.q.q.9.q.w.e.e.e.e.Q . A.A.A.A.A.A.",
"A.A.A.A.A.A.X 9 9 ; U 8.8.9.q.w.q.e.e.q.w.8.2.,.=.*._ i . A.A.A.A.A.A.",
"A.A.A.A.A.A.O U _ _ 9 1 9 q r d a h h p e u 7 = # O o . X A.A.A.A.A.A.",
"A.A.A.A.A.. T e.w.w.U     . @ 3 6 n B C G t.a.J Z -._ - . A.A.A.A.A.A.",
"A.A.A.A.A.- =.e.q.w.i * m G t.d.f.g.g.g.g.g.g.s.F 0.e.%.o A.A.A.A.A.A.",
"A.A.A.A.A.A.-.e.e.8.9 V g.g.g.g.g.g.g.g.g.g.g.s.S 4.e.-.A.A.A.A.A.A.A.",
"A.A.A.A.A.. Q e.e.8.; A g.g.g.g.g.d.a.i.u.u.i.H B <.e._ A.A.A.A.A.A.A.",
"A.A.A.A.A.. ; Q _ U # J g.g.f.g.i.6 * * % % % @ @ i ;.i A.A.A.A.A.A.A.",
"A.A.A.A.A.A.. . . . N d.g.g.g.d.A # c L P P P P K # O X A.A.A.A.A.A.A.",
"A.A.A.A.A.A.A.A.A.o M N N N m 5 @ < O.$.$.$.#.$.O.< A.A.A.A.A.A.A.A.A.",
"A.A.A.A.A.A.A.A.A.@ l z x b b v l 8 #.#.#.#.#.#.O.7 A.A.A.A.A.A.A.A.A.",
"A.A.A.A.A.A.A.A.A.A.b r.r.r.r.r.x K $.#.#.#.#.#.@.8 A.A.A.A.A.A.A.A.A.",
"A.A.A.A.A.A.A.A.A.A.# $ l l l $ @ L $.#.#.#.#.#.O.8 A.A.A.A.A.A.A.A.A.",
"A.A.A.A.A.A.A.A.A.A.A.A.A.A.A.A.A.8 | O.@.#.@.O.| < A.A.A.A.A.A.A.A.A.",
"A.A.A.A.A.A.A.A.A.A.A.A.A.A.A.A.A.X & , 7 t 8 < , . A.A.A.A.A.A.A.A.A.",
"A.A.A.A.A.A.A.A.A.A.A.A.A.A.A.A.A.A.A.. . A.A.A.A.A.A.A.A.A.A.A.A.A.A.",
"A.A.A.A.A.A.A.A.A.A.A.A.A.A.A.A.A.A.A.A.A.A.A.A.A.A.A.A.A.A.A.A.A.A.A.",
"A.A.A.A.A.A.A.A.A.A.A.A.A.A.A.A.A.A.A.A.A.A.A.A.A.A.A.A.A.A.A.A.A.A.A.",
"A.A.A.A.A.A.A.A.A.A.A.A.A.A.A.A.A.A.A.A.A.A.A.A.A.A.A.A.A.A.A.A.A.A.A.",
"A.A.A.A.A.A.A.A.A.A.A.A.A.A.A.A.A.A.A.A.A.A.A.A.A.A.A.A.A.A.A.A.A.A.A.",
"A.A.A.A.A.A.A.A.A.A.A.A.A.A.A.A.A.A.A.A.A.A.A.A.A.A.A.A.A.A.A.A.A.A.A.",
"A.A.A.A.A.A.A.A.A.A.A.A.A.A.A.A.A.A.A.A.A.A.A.A.A.A.A.A.A.A.A.A.A.A.A.",
"A.A.A.A.A.A.A.A.A.A.A.A.A.A.A.A.A.A.A.A.A.A.A.A.A.A.A.A.A.A.A.A.A.A.A.",
"A.A.A.A.A.A.A.A.A.A.A.A.A.A.A.A.A.A.A.A.A.A.A.A.A.A.A.A.A.A.A.A.A.A.A.",
"A.A.A.A.A.A.A.A.A.A.A.A.A.A.A.A.A.A.A.A.A.A.A.A.A.A.A.A.A.A.A.A.A.A.A.",
"A.A.A.A.A.A.A.A.A.A.A.A.A.A.A.A.A.A.A.A.A.A.A.A.A.A.A.A.A.A.A.A.A.A.A.",
"A.A.A.A.A.A.A.A.A.A.A.A.A.A.A.A.A.A.A.A.A.A.A.A.A.A.A.A.A.A.A.A.A.A.A."
};
