/* XPM */
static char *result[] = {
/* columns rows colors chars-per-pixel */
"35 55 174 2 ",
"   c #191211",
".  c #221416",
"X  c #241619",
"o  c #26191B",
"O  c #2A1C1C",
"+  c #321E1E",
"@  c #2C201C",
"#  c #32231F",
"$  c #261C21",
"%  c #2A1B2C",
"&  c #271A24",
"*  c #2D1D33",
"=  c #2F1E3A",
"-  c #25193B",
";  c #2E2225",
":  c #252A2D",
">  c #332421",
",  c #3A2625",
"<  c #372920",
"1  c #3A2A23",
"2  c #362A2C",
"3  c #3F3128",
"4  c #292934",
"5  c #30203D",
"6  c #273134",
"7  c #2B3538",
"8  c #3C3235",
"9  c #422E2B",
"0  c #42322A",
"q  c #49352E",
"w  c #52392F",
"e  c #4C3531",
"r  c #4C3932",
"t  c #473B3B",
"y  c #533C35",
"u  c #553C35",
"i  c #5A4036",
"p  c #5C433C",
"a  c #574238",
"s  c #61463E",
"d  c #644A3F",
"f  c #694B3F",
"g  c #2A1E40",
"h  c #322444",
"j  c #352649",
"k  c #392654",
"l  c #3C295D",
"z  c #3D2A61",
"x  c #473E42",
"c  c #453954",
"v  c #463958",
"b  c #442D76",
"n  c #452E7A",
"m  c #493576",
"M  c #2A4447",
"N  c #2D4E51",
"B  c #2E5659",
"V  c #295B5C",
"C  c #3C4645",
"Z  c #315F61",
"A  c #276467",
"S  c #326668",
"D  c #326A6C",
"F  c #3A6060",
"G  c #2D7A7D",
"H  c #2B7679",
"J  c #337274",
"K  c #35777A",
"L  c #337B7E",
"P  c #4D454A",
"I  c #49494A",
"U  c #584946",
"Y  c #5E504B",
"T  c #5F585C",
"R  c #5A5356",
"E  c #544B5D",
"W  c #654B42",
"Q  c #6A4E43",
"!  c #6C5145",
"~  c #64524B",
"^  c #6A544C",
"/  c #725245",
"(  c #735449",
")  c #7A5649",
"_  c #76594D",
"`  c #7A5A4C",
"'  c #6F5D56",
"]  c #615B5F",
"[  c #655751",
"{  c #725A50",
"}  c #7B5D51",
"|  c #7E6053",
" . c #56496A",
".. c #5E5663",
"X. c #5F556D",
"o. c #625E63",
"O. c #60566D",
"+. c #446361",
"@. c #5F6B65",
"#. c #7A6F6C",
"$. c #776864",
"%. c #7C716E",
"&. c #6F6A7D",
"*. c #6C6878",
"=. c #706E75",
"-. c #706E78",
";. c #727177",
":. c #666B64",
">. c #825C4E",
",. c #825F52",
"<. c #846355",
"1. c #8A6455",
"2. c #8B6959",
"3. c #8A6759",
"4. c #926757",
"5. c #936857",
"6. c #926758",
"7. c #946959",
"8. c #95705F",
"9. c #946F60",
"0. c #967161",
"q. c #9B7564",
"w. c #9F7866",
"e. c #847875",
"r. c #837672",
"t. c #A17967",
"y. c #A47C6A",
"u. c #A87F6D",
"i. c #7F8178",
"p. c #8C817E",
"a. c #858A7F",
"s. c #AC826F",
"d. c #A7816F",
"f. c #A58473",
"g. c #AE8370",
"h. c #B08571",
"j. c #4E378C",
"k. c #4D3688",
"l. c #513996",
"z. c #523A98",
"x. c #327D80",
"c. c #5D4C8D",
"v. c #574292",
"b. c #655984",
"n. c #328386",
"m. c #398A8C",
"M. c #368E92",
"N. c #398F92",
"B. c #3A9396",
"V. c #3A9598",
"C. c #39989A",
"Z. c #508280",
"A. c #55908F",
"S. c #419597",
"D. c #738C84",
"F. c #988E8B",
"G. c #9A9190",
"H. c #A49B98",
"J. c #ADA4A9",
"K. c #B4ACAF",
"L. c #B8B0AF",
"P. c #BEB6BB",
"I. c #BDB5B4",
"U. c #C2BBBF",
"Y. c #C3BBC3",
"T. c #CAC3C4",
"R. c #CFC8CD",
"E. c #C8C0C8",
"W. c #D2CBCF",
"Q. c #DAD4D6",
"!. c #E3DDDF",
"~. c #E4DEE0",
"^. c #EEE7E8",
"/. c None",
/* pixels */
"/././././././././././././././././././././././././././././././././././.",
"/././././././././././././././././././././././././././././././././././.",
"/././././././././././././././././././././././././././././././././././.",
"/././././././././././././././././././././././././././././././././././.",
"/././././././././././././././././././././././././././././././././././.",
"/././.o X X X X X O X X o o o O o O $ o o o X o X X X X X X o /./././.",
"/././.o X o O O @ @ # # o o # # 1 1 3 1 1 1 > > > > # @ + O X o /././.",
"/././.o o > < < 0 # # # o # 0 0 0 0 0 3 9 3 0 3 0 3 0 3 0 3 o X /././.",
"/././.o O # 1 1 < 1 < < O # 0 3 3 r r <   0 r r r > @ 0 q 1 o o /././.",
"/./././.@ # 1 # 1 < < < O @ 0 3 a q.2.  # 8.w.t.w._   ! _ 3 o /./././.",
"/./././.@ # 3 # < < < < @ # 0 1 U h.2.1 9.s.g.g.g.g.W W 3.1 o /./././.",
"/./././.@ < < # < < < 1 # # s s | h.y.q.s.s.g.s.g.g.d.t.0.a O /./././.",
"/./././.O < # 3 i f i 1 < s h.s.s.d.d q d q.s.s.f.w.w.s.s.q.> /./././.",
"/./././.O < # 0 1.5.f # @ f h.h.s.` a #.#.^ 8.0.{ ~ y W w.y.1 /./././.",
"/./././.O < < 1 >.5.f < @ f h.h.d.p J.!.!.T.' ~ I.Q.K.[ W t.9 /./././.",
"/./././.O < < 1 ) 5.>.w < f h.h.8.e.R.X.X.Q.F.%.^.E.U.R.Y 2.e /./././.",
"/./././.@ < 1 1 ) 7.4.1.( 3.h.g.2.F.P.g - J.I.%.W.l j Y.F.} q /./././.",
"/./././.@ # 1 1 ) 5.5.5.` 2.s.h.8.$.W.X.c E.H.Y T...P Y.#.3.9 /./././.",
"/./././.O # 1 1 ` 5.5.5.) 2.h.s.s._ F.T.R.I.[ W %.K.K.G.{ t.q /./././.",
"/./././.@ # # 1 ` 5.5.5.) 2.h.g.s.y._ ' $.U ! | W ~ ^ | y.y.e /./././.",
"/./././.O # # 1 ) 7.5.5./ 2.s.s.s.f.g.w.7.| _ } } y.u.g.g.y.r /./././.",
"/./././.X # # 3 ) 5.5.5./ 3.h.s.s.s.s.s.g.y.8.8.w.g.g.g.g.u.y /./././.",
"/./././.X u d Q 1.5.5.5.! 3.g.g.h.s.h.u.<._ _ ) _ ,.u.g.g.u.r /./././.",
"/./././.O ) 7.5.5.5.5.5./ 2.g.g.s.h.h.w.i y w w w s y.g.g.u.q /./././.",
"/./././.+ ) 7.5.5.5.5.6./ 3.g.g.g.g.g.g.w.7.9.9.0.t.h.h.u.t., /./././.",
"/./././.O ) 7.5.5.5.5.6.! <.g.s.g.g.g.g.g.h.h.g.g.h.u.h.h.q.; /./././.",
"/./././.O / 5.4.1.>.>.` d >.s.s.u.g.h.g.g.g.g.g.h.u.h.u.s.7.& /./././.",
"/./././.X + 9 , , > O ; + , y e u u u p p W W p W p u y y 9 o /./././.",
"/././././.X X 7 B N : : 6 6 6 4 & X   .   X . X . . . X . X X /./././.",
"/./././.X + ( e.V.V.x.V x.N.N.m.K S B M 7 : $ o X X , _ 9 X /././././.",
"/././.X + <.g.f.D.B.M.A G V.V.V.V.V.C.V.M.m.L J Z M I y.,.X /././././.",
"/././.o o <.g.g.f.A.M.A n.V.V.V.V.V.V.V.V.V.V.V.B.H Z f.3.O /././././.",
"/./././.X p g.g.s.a.N.A M.V.V.V.V.V.V.V.V.B.B.B.B.G +.s.3.& /././././.",
"/././././., 9.g.g.f.Z.x.V.V.V.V.B.V.V.B.V.V.V.V.V.G @.h.,././././././.",
"/./././././.p g.h.t.I n.V.V.V.V.V.V.V.B.V.V.B.V.V.G :.h.( /./././././.",
"/./././././.$ ` w.u 7 M.C.V.C.V.C.V.C.C.V.V.V.V.V.A 3 p 1 /./././././.",
"/././././././.O , X M J D D S D J K K K J D B M M : X . X /./././././.",
"/./././././././.. X o o o o X X $ 5 h h j j 5 * X . /././././././././.",
"/././././././././.o . . X X X X j j.l.l.l.l.l.j.v X /././././././././.",
"/././././././././.X h = o . X . & k.l.z.l.l.z.z.z.k X /./././././././.",
"/./././././././.o * b b l = o X X z z.z.z.z.z.l.z.k.* X /././././././.",
"/./././././././.o c m n n n v = X * j.z.z.z.z.l.l.c.E O X /./././././.",
"/././././././.X 2 T ..m b n n b k & l l.z.z.z.l.c.&.;.x X /./././././.",
"/././././././.X 8 T o.T  .m n n l o % k.z.z.l.b.=.;.=.x X o /././././.",
"/././././././.o X 8 R o.] o. .m 5 /./.j l.v.b.;.;.=.P . o /./././././.",
"/././././././././.X > P ] ] o.x $ /./.o v -.;.;.=.P o /./././././././.",
"/././././././././././.& 8 U R , X /./.o ; o.;.o.t o /././././././././.",
"/./././././././././././.o & ; X /./././.o 8 P ; /././././././././././.",
"/././././././././././././.X X X /./././.X X X /./././././././././././.",
"/././././././././././././././././././././.o /././././././././././././.",
"/././././././././././././././././././././././././././././././././././.",
"/././././././././././././././././././././././././././././././././././.",
"/././././././././././././././././././././././././././././././././././.",
"/././././././././././././././././././././././././././././././././././.",
"/././././././././././././././././././././././././././././././././././."
};
