/* XPM */
static char *d429ff603d4a4cecc7f6ca9e4857531aNEa4RFaAkzJolmKz[] = {
/* columns rows colors chars-per-pixel */
"64 64 173 2 ",
"   c None",
".  c #131C07",
"X  c #161E08",
"o  c #172108",
"O  c #1A250A",
"+  c #1E2B0B",
"@  c #21260E",
"#  c #212E0C",
"$  c #24340D",
"%  c #29360F",
"&  c #27380F",
"*  c #293A0F",
"=  c #272D10",
"-  c #2B2E12",
";  c #352B17",
":  c #372B19",
">  c #3B2D1A",
",  c #263610",
"<  c #2C3512",
"1  c #273910",
"2  c #2B3D10",
"3  c #353517",
"4  c #333B16",
"5  c #373618",
"6  c #3D311C",
"7  c #3B3B1A",
"8  c #42341E",
"9  c #413C1C",
"0  c #473720",
"q  c #463C20",
"w  c #4B3A22",
"e  c #503E25",
"r  c #2E4212",
"t  c #314613",
"y  c #394217",
"u  c #344914",
"i  c #344915",
"p  c #344A14",
"a  c #344B14",
"s  c #354B14",
"d  c #344A15",
"f  c #354A15",
"g  c #354B15",
"h  c #354B16",
"j  c #344C14",
"k  c #354C14",
"l  c #354D14",
"z  c #354C15",
"x  c #354D15",
"c  c #364D15",
"v  c #374D15",
"b  c #354E15",
"n  c #364E15",
"m  c #374E15",
"M  c #364F15",
"N  c #374F15",
"B  c #374D16",
"V  c #374E16",
"C  c #374F16",
"Z  c #344B14",
"A  c #384F16",
"S  c #394917",
"D  c #3C4119",
"F  c #3C4E18",
"G  c #375015",
"H  c #375115",
"J  c #375116",
"K  c #375015",
"L  c #385115",
"P  c #385016",
"I  c #385116",
"U  c #395116",
"Y  c #395117",
"T  c #385216",
"R  c #395216",
"E  c #395316",
"W  c #395317",
"Q  c #3A5216",
"!  c #3A5316",
"~  c #3A5217",
"^  c #3A5317",
"/  c #3A5416",
"(  c #3A5417",
")  c #3B5417",
"_  c #3B5517",
"`  c #3A5617",
"'  c #3B5617",
"]  c #3B5717",
"[  c #3C5517",
"{  c #3C5617",
"}  c #3C5717",
"|  c #3D5717",
" . c #3A5316",
".. c #3C5817",
"X. c #3D5817",
"o. c #3D5917",
"O. c #3A5218",
"+. c #3A5318",
"@. c #3B5318",
"#. c #3B5518",
"$. c #3C5518",
"%. c #3C5618",
"&. c #3C5718",
"*. c #3D5718",
"=. c #3C5619",
"-. c #3D5818",
";. c #3D5918",
":. c #3D5819",
">. c #3E5918",
",. c #3E5919",
"<. c #3E5A18",
"1. c #3F5A18",
"2. c #3E5B18",
"3. c #3F5B18",
"4. c #3F5A19",
"5. c #3E5B19",
"6. c #3F5B19",
"7. c #3E591A",
"8. c #3F5A1A",
"9. c #3F5C18",
"0. c #3F5C19",
"q. c #3F5D19",
"w. c #3E5A18",
"e. c #44461D",
"r. c #40491A",
"t. c #405B19",
"y. c #405C19",
"u. c #405D19",
"i. c #415D19",
"p. c #405E19",
"a. c #415E19",
"s. c #415D1A",
"d. c #405D1A",
"f. c #415E1A",
"g. c #415F1A",
"h. c #405D19",
"j. c #42601A",
"k. c #42611A",
"l. c #43611A",
"z. c #43611B",
"x. c #43601A",
"c. c #43621A",
"v. c #43621B",
"b. c #43631A",
"n. c #44611B",
"m. c #44621B",
"M. c #44631B",
"N. c #45641B",
"B. c #45651B",
"V. c #45661B",
"C. c #46661B",
"Z. c #45651D",
"A. c #46651D",
"S. c #47671C",
"D. c #44641B",
"F. c #47681C",
"G. c #48681C",
"H. c #4B6D1D",
"J. c #4B6E1D",
"K. c #4B6D1E",
"L. c #4B6D1F",
"P. c #4C6F1E",
"I. c #4D711F",
"U. c #4D711F",
"Y. c #4E721E",
"T. c #4F741F",
"R. c #474320",
"E. c #4E4024",
"W. c #534226",
"Q. c #564328",
"!. c #5A4629",
"~. c #5D482B",
"^. c #604B2C",
/* pixels */
"                                                                                                                                ",
"                                          +.t.$.n f.t.                    +.-.$.V f.-.                                          ",
"                                      m.-.h u.P.t.u.f.f.-.            m.$.h m.L.-.f.g.g.-.                                      ",
"                                  I.L.-.! n t.m.+.n #.$.0.Y.T.$.! P.L.-.+.A u.m.+.n #.#.f.I.T.-.                                ",
"                                n B.M.{ h ) u.M.u.$.v.u.u.m.u.p r 0.B._ h ! u.M.q.] b.q.` J ` r                                 ",
"                                p t t r r h X.u.-.#.l.u.$.h _ A j _ 9.n u A -.t.q.` 0.j r & ` r                                 ",
"                          $.-.n 2 2 t t 2 2 { u.Z.G.u.n r r u.M.n h n r r ! G.M.] H $ $ & r & r     $.                          ",
"                        -.i -.u.* r p r r t Z n n Z.Z.n 2 r u.+.p n t p h -.Z.! r r $ $ # $ + $ ! u.u.u.$.                      ",
"                  H.Z.#.  t -.u.r & r r r n ! l r H -.r $ % l l l t H 0.{ n A Z r i h & + + $ $ t i         Y.                  ",
"              ! t M.G.-.    -.+.r r n ] p r X.X.l -.X.p Z t t u.X.j 9.u.t r $.X.t t.X.p r $ r r h H   ! {   B.n                 ",
"          +.$.$.h _ { n r t   n t ] l.! r r u.u.Z t & 2 t ! C.{ H X.u.H * * u.0.t r 2 * r ` k.j n   u.$.! h ! n n u.u.          ",
"    Z.f.  t Z.P.X.! ! r t t   _ r ] 0.n * t l.n p ! n ! t & t * # t _ p & * u.l i H p ! j r r r ! u.H i r 2 u.G.u.u.Z.  $.      ",
"A P.P.-.    u.f.Z p t r t $.0.t * * * r * r p _ p & H n & O + # + + $ $ $ 1 t _ p $ H H 1 $ & r r #.H r 1 r X.-.+.n   H     I.! ",
"    u.+.    Z.u._ G G ! A n p * r & * r * & r 0.n & $ $ @ O + $ $ + $ & & & & X.j * & $ # # $ $ # 2 ! 2 $ r { n #.f.F.-.! 2   r ",
"t * 1 r 2 r   u.X.r l _ r & r r * * r p r & * n & O O # # @ O @ # @ @ 2 & @ & h $ O + $ # + # $ & r n 2 r * r -.u.  0.i , $     ",
"t *   t r 2   l.y.9._ t # $ l H * & r 2 $ + & i + O O + O O @ O + # * & # @ $ t $ O # # o + $ # & & $ $ 2 r l.Z.$.  + $ &   $   ",
"* 2 p r r   _ n t L X.t $ $ l * * & * r $ + & $ + + # # o o @ - @ @ $ * # $ & + + $ $ # O + $ $ & r * r 2 t _ l 2 & $ & +   & & ",
"! 1 l p t ! _ n * t l * # $ r * $ # $ $ $ $ & $ + O + + o @ O = O O O + @ $ $ $ + O $ + O + $ $ & + t ! Z t p t 2 r A r + # & & ",
"! Z ! 0.t 2 -.B.L / l t r & $ t * $ $ $ $ & r & @ O o o o . . O @ O O @ # $ & & + O o O + O + $ r $ t n * & / y.A { X.H i r     ",
"G y.B.! t t u.l.l t $ * * r t r & * $ $ $ + & & # O X o O O O X o + O O # O $ r $ O o + O $ $ $ * r l t $ & X.9.n t 2 r i u.Z.! ",
"p 0.0.! t h t.! G G t G r & r * $ & & $ O O & $ O O o o . O O O . O @ O o O $ $ O O O + O $ & & # * l r + & ! p n _ n _ _ r p r ",
"t t r r 2 r r _ G & / / t r r & $ r r $ + + $ $ + O # $ + + + O O # $ @ O + # $ + + $ r $ & r $ & p l * * & & G _ 2 ] n * & r r ",
"p 2 r h r r t u.o.G / Z $ $ / / r r & & & & $ & % % * * O O & r $ $ # # $ + $ & & & r r + # l H r t r * r r r ] n r & & $ $ 1 r ",
"r 2 t ! Z 2 n ! t / 9.l $ $ / j r r + r & r t r $ t l * # @ r r $ $ + $ + r t r $ r H r # + H l r r $ r t l X.j $ $ + & $ + $ * ",
"i r #.n * & G G & * p * $ & t r r r r / r & r r + r t $ + $ r & * & r l t * * * # r l $ + $ r r r r t o.r $ * r $ + @ & $ $ & & ",
"p 2 i H r * r * & & * * & & $ 2.r + t H r $ r r r t H r r $ + H r @ r l * $ r p * l l r t $ $ o.t + r * $ + $ $ $ + * * + $ & & ",
"i 2 r r r r t p r & & l r $ & / / ] / t $ + H H r r $ r r H ] 9.G / L t $ # l _ r * $ r r l L 9.r + + $ $ O # $ $ + * & # $ * r ",
"_ j p i j p r j r $ * p $ o $ / r t 9.t $ & H r r t r l r r t r # t { p + $ / r r l r l t r t t + O + & + + $ & $ + + & * & & r ",
"n ] p * r r * p r $ H t + O $ & O $ & $ $ $ & r r & j H & + + + O + $ $ $ $ & t t & l l r + $ & O + + $ O $ $ & $ + + $ & * t r ",
"p _ l * & * t r r $ * * $ $ r $ r & & r r & $ ..l $ $ $ + O + O $ # $ & & & $ _ l $ & $ # O $ + + + r & + $ $ $ & $ & $ # $ r r ",
"p r r r & * h n j & $ r * r r t r $ $ l r + $ j $ O O $ + O + + # + # t * O $ t $ O O & # + $ $ $ O $ $ $ # & * * r * & + & r r ",
"p * r j r r t l p p r * p * r t r $ t j + . $ t O o o + O O O + # O r r + . $ l + O O $ + + $ & $ O o $ & $ * * * * $ & $ + & r ",
"r * t J j & H H & b j $ & $ & 2 2 + H r + + & $ + + + + o + O + # O r r O + $ # + + $ $ O $ $ & $ + O + $ $ & & $ + # r $ + $ & ",
"t r ` b * & H j $ $ & & $ $ j r r $ & r & & r 2 + o & $ o O + + $ + + $ + $ r r + O r & + $ $ + & $ r + + + $ r $ + + $ + $ & $ ",
"b * j b 2 2 t r & & & & $ $ 2 H H 2 & r r r r r $ o o + + o + + $ # + & r r r r $ O + $ & + & r r r & + O + + $ $ $ r r # $ r & ",
"j r r j 2 j t r t & $ H r & & t r H r & r & 2 r & O . + + + + + + & $ + & $ $ r r + o + $ $ r r O o + & $ O + $ + + $ $ $ $ & r ",
"` ` j r j t t H r $ 2 t $ o $ J & r j $ + $ r & & + + + o o o O o $ $ + + + r r $ + + $ + + $ r O o O & + O & & & # + & r $ & r ",
"j ..j r t 2 & t r $ H r + O & $ + + & & $ & j t & & & O o o + o . o + + + + r r r r r + + + + & + + + + + $ + & & + # $ $ r t r ",
"j ` j r & 2 j j r $ & 2 $ & 2 $ 2 & $ r * & & j * $ + + + o o o + + + $ + $ & j r & $ $ + + + + + + r r + $ $ $ & $ & $ + & r r ",
"j r r r & & j J j & & r 2 t t j r $ + j r + + j + o o + O o o O o o o r & O + j + o o & + O $ & + + $ $ & + $ r r * * & # $     ",
"r r i n i r H ! j t r & H 2 * b r & H j O . + j + o o + o o o O + o & & O . # t $ O o $ + + $ $ & O O $ $ $ * * * * $ $ %   &   ",
"r   #.H j   _ _ r H j $ 1 & & * r + j r + $ & + + + # + o O o o + o & $ O O $ + + + $ $ O $ + & $ + + + # $ r * $ $ & * $   & % ",
"H r -.H     H -.& $ & $ $ & t t r & $ 2 * r r 2 # o $ + o O O O + o o $ + $ r & + + r # + $ + $ & * * # + $ & r & @ * & + $ * * ",
"W   i n 2 r i j t & 2 r * & t J H r & r r r r r $ O o # + o O + $ $ O $ & & r t $ + + $ & + & & r * * $ # # $ * & $ r r # &     ",
"i r   t i h H i t & $ H j * 2 b r H r & r & * r $ O O + + O + + + & $ + & $ $ r & + O $ $ $ r r $ + $ & & + # & $ # & & * % &   ",
"] _ p ! +.n H n r & j t & O 2 ` 2 r j & & & r r $ # # O O O + # o $ & + + # r r & $ $ + + + & r $ + # & # # & & ,   O * * $ * 2 ",
"  -.n     r     r & H H & & r b & $ & * & & b j r & * @ o O + # + O + + # $ t t r r r $ + & $ r & $ * & # $ 2 2 2 #     $       ",
"        1 t H _ j & & r & r j j j * & j 2 2 2 H * $ $ # + O @ # # + $ & & $ r j r $ $ $ $ + $ & $ & r * $ , 1 r 2 2 ,   +       ",
"            X.] H r r p p j H j r , 1 H i $ 1 j $ + @ $ # @ + @ # @ # 2 * # & l & + + & $ + $ & $ @ & & 1 & & 2 r p             ",
"                ] _ i   ] n   H i 2 _ j $ O r T , # + $ + @ # # $ # * * # @ * A 1 # # & + $ & 1 1       2 & * r                 ",
"                    _     2 h   t & i H 1 r r i , & 2 $ @ # % 3 $ = * % # - * 4 , , * * # & 2 r & $ $   +                       ",
"                        &   _ $.j 1 & r r i J r , ; 2 $ # $ $ < * # - $ $ % 4 y , # * & $ & & r 2 r *                           ",
"                              -.$.p r ! ! n A t 4 6 - < , = # 1 4 * 4 4 4 t 7 u *   @ & 2 $ & r r t                             ",
"                                  -.n     r   t.y 3 ; 9 5 5 4 7 7 u 2 3 4 2 4 r.r #     &   r                                   ",
"                                          r n   4 < < 3 - q W.W.8 7 5 6 - 3 y e.2 & &   @                                       ",
"                                            { _ t t 4 8 w w w W.8 > ; 6 3 5 S F t r r                                           ",
"                                                7 R.Q.Q.^.w e e > : : : 8 8 9 e.t                                               ",
"                                                W.!.~.^.^.~.e !.8 8 8 8 8 8 8 ;                                                 ",
"                                                Q.~.Q.e Q.!.Q.~.8 8 8 8 8 > 8 >                                                 ",
"                                                !.Q.Q.w Q.W.~.W.> 8 8 ; 8 : 8 8                                                 ",
"                                                  Q.!.e ~.w W.0 0 0 8 > > : >                                                   ",
"                                                      w e w e e 8 8 w > :                                                       ",
"                                                          w e !.0 8 8                                                           ",
"                                                              Q.w                                                               "
};
