/* XPM */
static char *_0b718db9a584f70d0d42de26a118c27jd693f2FKxXkc2s2[] = {
/* columns rows colors chars-per-pixel */
"62 58 237 2 ",
"   c None",
".  c #361F11",
"X  c #321F0B",
"o  c #2B260E",
"O  c #3C230B",
"+  c #342114",
"@  c #3C2214",
"#  c #372815",
"$  c #441F0B",
"%  c #47240B",
"&  c #552C15",
"*  c #54321C",
"=  c #59341D",
"-  c #58381B",
";  c #463219",
":  c #633A1C",
">  c #4B3A23",
",  c #5B3A22",
"<  c #533826",
"1  c #442D20",
"2  c #3C4718",
"3  c #1D4B2A",
"4  c #07552B",
"5  c #0D4D35",
"6  c #174B35",
"7  c #055633",
"8  c #0B5434",
"9  c #055A34",
"0  c #0A5A35",
"q  c #075639",
"w  c #0C553A",
"e  c #065B38",
"r  c #0C5C3B",
"t  c #125C3C",
"y  c #1A5E3B",
"u  c #155737",
"i  c #074F2E",
"p  c #2B4523",
"a  c #374A2A",
"s  c #225C2D",
"d  c #38532C",
"f  c #215A34",
"g  c #285738",
"h  c #3A5631",
"j  c #324D3A",
"k  c #06662A",
"l  c #13632E",
"z  c #0D732F",
"x  c #056534",
"c  c #0B6435",
"v  c #066A34",
"b  c #0A6C34",
"n  c #06663A",
"m  c #0C643B",
"M  c #06693B",
"N  c #0C6A3C",
"B  c #136335",
"V  c #12633C",
"C  c #136C3D",
"Z  c #1B6937",
"A  c #06723A",
"S  c #0C733C",
"D  c #0C7C3E",
"F  c #087434",
"G  c #11723D",
"H  c #127A3E",
"J  c #1E7333",
"K  c #14752E",
"L  c #246D33",
"P  c #236C3B",
"I  c #2B6C3C",
"U  c #266A3B",
"Y  c #3C6735",
"T  c #27753A",
"R  c #2E6D33",
"E  c #45431C",
"W  c #54431C",
"Q  c #494322",
"!  c #444F31",
"~  c #4A5935",
"^  c #59522F",
"/  c #6D4B2D",
"(  c #674728",
")  c #744925",
"_  c #734B2C",
"`  c #7A4E2A",
"'  c #754926",
"]  c #7A542F",
"[  c #644A33",
"{  c #684D34",
"}  c #675235",
"|  c #785635",
" . c #704F32",
".. c #436635",
"X. c #536037",
"o. c #7D633F",
"O. c #1D5441",
"+. c #0E5D40",
"@. c #245D44",
"#. c #244D40",
"$. c #0E6541",
"%. c #0E6D41",
"&. c #146441",
"*. c #1B6542",
"=. c #136B43",
"-. c #1D6A44",
";. c #176F4A",
":. c #0E7142",
">. c #0E7B42",
",. c #127344",
"<. c #147C45",
"1. c #167549",
"2. c #1C774A",
"3. c #157C49",
"4. c #1B7C4B",
"5. c #1B7845",
"6. c #236443",
"7. c #236B45",
"8. c #2B6A42",
"9. c #286749",
"0. c #2C7C44",
"q. c #237D4C",
"w. c #257648",
"e. c #3C7643",
"r. c #2F7B52",
"t. c #577D45",
"y. c #786846",
"u. c #885C36",
"i. c #8A663F",
"p. c #865C46",
"a. c #846445",
"s. c #906240",
"d. c #0D8C3E",
"f. c #0E863B",
"g. c #12833C",
"h. c #158B3B",
"j. c #178838",
"k. c #358237",
"l. c #239439",
"z. c #359334",
"x. c #438A3A",
"c. c #0E8443",
"v. c #0C8D45",
"b. c #0D8E4A",
"n. c #0F854A",
"m. c #148145",
"M. c #1A8343",
"N. c #138B44",
"B. c #14844B",
"V. c #1A844D",
"C. c #138B4C",
"Z. c #1C894A",
"A. c #1B8A44",
"S. c #0D9145",
"D. c #0D934A",
"F. c #069145",
"G. c #149246",
"H. c #12934C",
"J. c #1C9749",
"K. c #188851",
"L. c #159352",
"P. c #248544",
"I. c #23824B",
"U. c #288947",
"Y. c #358845",
"T. c #2C9344",
"R. c #2B934C",
"E. c #269C4B",
"W. c #2A9E4A",
"Q. c #279A46",
"!. c #359B45",
"~. c #359A49",
"^. c #238451",
"/. c #2C8756",
"(. c #388657",
"). c #299850",
"_. c #319755",
"`. c #22A14B",
"'. c #2DA64A",
"]. c #37A64B",
"[. c #3DB24D",
"{. c #2DAA51",
"}. c #24A452",
"|. c #33A553",
" X c #3CAD53",
".X c #38A857",
"XX c #3CB454",
"oX c #3AB358",
"OX c #469349",
"+X c #4F8F52",
"@X c #43A545",
"#X c #43A44D",
"$X c #45AB4C",
"%X c #48A847",
"&X c #42B24B",
"*X c #49B24E",
"=X c #4FB246",
"-X c #59B74B",
";X c #4AA155",
":X c #41AD54",
">X c #4DA45B",
",X c #43AE5A",
"<X c #46A858",
"1X c #5AAA52",
"2X c #54A45B",
"3X c #53A559",
"4X c #44B353",
"5X c #47B159",
"6X c #5AB854",
"7X c #55A14A",
"8X c #62BA49",
"9X c #62B64A",
"0X c #64AB5D",
"qX c #6BBE55",
"wX c #7ABC59",
"eX c #7BBD57",
"rX c #74B74F",
"tX c #7FC74E",
"yX c #69C255",
"uX c #79C756",
"iX c #6FC34F",
"pX c #78C160",
"aX c #92BE4C",
"sX c #87BB55",
"dX c #93BB53",
"fX c #94BC5B",
"gX c #99B85D",
"hX c #86BA65",
"jX c #94B969",
"kX c #98B866",
"lX c #85C748",
"zX c #91C646",
"xX c #85C555",
"cX c #8AC15C",
"vX c #85C956",
"bX c #93C058",
"nX c #92C164",
/* pixels */
"                                                                                                                            ",
"                                            kXkX        jXjX        kXgX                                                    ",
"                                          gXdXfX        dXdX        aXaX                                                    ",
"                                          fXsXsX        sXsX        sXxX                                                    ",
"                                dXdXfXdXfXrX9X6X;XZ.Z.W.~.].#X;X>XOXT k.P.^.V.2.B u           r.                            ",
"                              fXaXzXzXzXxX9X&X[.W.N.N.D.F.v.'. X X~.l k H C.C.<.c u         q.I.r.                          ",
"                              hXsXtXlXlXtX-X[.oX].P.J.J.G.G.|. XXXT.F A c.C.C.B.N V 6.      ^.q.r.                          ",
"                    2X1XwXbXsX0X#X$X-X-X8X$X`.W.5X6X6X4X[.|._.P.P.U.B.B.V.C C ,.N C 5././.r.5.V 6.                          ",
"                  2X;X=XqXcXuX@Xh.d.'.[.&Xl.f.f.6XtXuXyX[.4XQ.k v g.v.n.3.9 7 m M n >.C.C.1.c 8 5                           ",
"                    ;X*XqXuXyX Xh.G.{.[.[.'.l.z.-XuXuX6X[.XXE.A A C.v.b.3.e q %.N v f.D.G.<.r 5 6                           ",
"                        2X%X%XT.g.M.{.&X&X-X-X8X-X%X@X].`.}.J.b.n.H.D.D.K.M %.>.B.v.G.H.H.B.V 6 #.                          ",
"                        Y.j.h.F k b `.[.&XiXvXvX%Xj.h.d.F.v.H.b.F.D.F.b.n.M n >.C.S.D.S.v.3.8 5 6                           ",
"                        _.C.H.m.b K !.*X=XqXeXwX#XA.d.J.v.b.L.N.F.H.b.C.V.M m 3.N.C.G.b.C.3.m w O.                          ",
"              2X0XhXjXhX<XN.N.E.T.!.6XiXiX7Xk.OXT K S <.D H B.>.>.<.:.,.;.+.+.&.1.,.,.,.C G N V O.9.@.                      ",
"            2X;X1XwXxXuX#Xh.G.{.XX4XyXlXxXx.4 4 c 9 9 c c c N n x N 9 q r w w +.8 7 r q 4 c m m =.V y @.                    ",
"              ;X1XqXuXyX#XM.G.{.XXXXyXuXeXOXl 0 m r r V m C =.m m =.e r +.w w r m e t r 0 C C N =.C y @.                    ",
"                  3X@X].R.F f.J.`.Q.'.].%XU.V B -.m m G C b =.m n =.$.$.=.$.M ,.3.4.2.N m %.N N =.B +.@.                    ",
"                  Y.j.N.D x v c.d.S.S.d.h.H V c =.M M C c c m 9 9 $.n e %.M v >.C.C.B.v M M M m V r 5 O.                    ",
"                  _.A.N.m.F F N.S.D.H.D.G.m.:.N :.M M =.m m =.e e %.M n =.N N <.C.K.K.M M %.%.$.=.r O.O.                    ",
"                  ;X|.{.E.c.C.H.D.H.b.>.D B.n.K.3.m V &.t m %.m $.:.%.%.=.V t C :.:.=.m m &.m r &.t w -.(.(.                ",
"                  >XoXoX`.v.b.D.F.b.D v F c.b.L.<.9 9 t q 7 m m n %.$.M V 8 w t e 9 r q q r 9 9 r 8 i -.V.^.(.              ",
"                  2X,XoX}.v.D.G.S.G.H b b B.b.K.1.r 9 t 8 0 =.m $.:.$.$.&.r w t 0 e r r q r e 9 r e 4 C q.q.r.              ",
"              kXsXOXj.I.B.D g.Q.{..XY.P P 5.<.<.5.m V 7.6.7.-.m m %.m m &.r r G V.V.1.m +.$.%.v 1.B.n.Z.                    ",
"            jXkXsXx.k N %.n z W.,X,XY.P I Z b x N c c 7.8.8.6.8 9 r 8 q t 8 0 ,.C.C.1.9 q e m v >.C.B.^.                    ",
"            nXcXeXz.k N G b K ~.5X5XY.T I U N M S N c 7.8.8.U 0 9 m 9 q &.w r ,.K.C.1.r q r b v m.C.B./.                    ",
"            0X6X6X!.g.Z.E.|.~.~.Y.Y.T Z Z G N %.%.c m *.y y 2.3.n.K.B.n.2.t 8 C D >.;.$.+.1.C.N.B.<.,.2.                    ",
"            >X:X$X`.h.G.|.:X<XY.L R Z k b %.M m m 9 9 t 8 4 <.C.v.H.v.C.1.4 7 c v x m q q =.K.C.m.v M -.                    ",
"              ;X<X_.<.Z.|.oX,XT.L T P B N %.$.$.$.e r t 8 0 <.N.S.H.b.C.<.x 7 m b N $.e q ,.V.C.m.N m 6.                    ",
"                        |.E.`.J.A.U.0.8.9.7.$.$.&.r r 9.6.-.I.H.H.L.c.>.3.M m =.m n %.=.N ,.3.>.,.V r @.                    ",
"                        R.v.S.G.N.U.0.I 8.6.e 9 e q 7 Z I U I.Z.N.n.n n =.m m +.7 7 m m m N v M m w 5 #.                    ",
"                          V.Z.U.P.e.0.U w.Z r r V 9 0 U I I U.P.5.<.B V *.m m =.q 9 m $.V C N m V u 6 g                     ",
"                              +Xt.+Xe.U 7.4.B.4.2.N V 0.U.U.Y Y R t.    9.y &.$.$.+.=.=.C =.V t @.                          ",
"                              a.y.y.Y l l M.C.K.<.v v m.A.k.Y 2 2         6 8 r 8 8 m $.m V 9 5 6                           ",
"                                p.y...L s w.U.^.5.v b M.P.T Y E Q         6 8 r 0 9 +.$.r t u 6                             ",
"                                    X.~ X.......I C C I R ....d a             7.1.2.w.                                      ",
"                                    {  . .W E E h B l d Q > d p 3               V.K./.                                      ",
"                                    { _ ` ( W Q ! s s d < < j 3 6               q.^.                                        ",
"                                    }  .] X.! h h p p d                                                                     ",
"                                    [ / } ..g f p o o                                                                       ",
"                                      { ^ ..g g a # o                                                                       ",
"                                          ~ d ! Q # @                                                                       ",
"                                            , , & O +                                                                       ",
"                                          , , : = % @                                                                       ",
"                                          | _ ' : - < < 1                                                                   ",
"                                      y.p.| ` ` ) : - * @ .                                                                 ",
"                                    y.a.s.u.` ` ) : , , % .                                                                 ",
"                                [  .] u.u.u.u.s.' & & , = * < . +                                                           ",
"                              } [ / _ ' ` u.s.p.( % % * : : * . +                                                           ",
"                              } [ {  ./ / | a.a.[ @ . < , = < + +                                                           ",
"                                                                                                                            ",
"                                                                                                                            ",
"                                                                                                                            ",
"                                                                                                                            ",
"                                                                                                                            ",
"                                                                                                                            ",
"                                                                                                                            ",
"                                                                                                                            ",
"                                                                                                                            "
};
