/* XPM */
static char *_d9cb65824fa44d791ce490eccaf9ecbo69xAeY7qUzaIU9G[] = {
/* columns rows colors chars-per-pixel */
"44 64 121 2 ",
"   c None",
".  c #020303",
"X  c #070904",
"o  c #090C06",
"O  c #070709",
"+  c #0B0D0A",
"@  c #0E1306",
"#  c #0E120A",
"$  c #10160C",
"%  c #131A0C",
"&  c #161D10",
"*  c #191D16",
"=  c #1A1C1A",
"-  c #1A250F",
";  c #1D2A0F",
":  c #172012",
">  c #1B2412",
",  c #1E2A14",
"<  c #202E0F",
"1  c #21300F",
"2  c #212E13",
"3  c #222E18",
"4  c #233214",
"5  c #283716",
"6  c #273816",
"7  c #293B14",
"8  c #253519",
"9  c #2B361F",
"0  c #2A3B19",
"q  c #283123",
"w  c #323E25",
"e  c #343E2C",
"r  c #2E411C",
"t  c #31451C",
"y  c #364D1B",
"u  c #36511A",
"i  c #39541D",
"p  c #3E5D1D",
"a  c #3F611E",
"s  c #344624",
"d  c #354924",
"f  c #394D25",
"g  c #3C5427",
"h  c #3E5820",
"j  c #3C5328",
"k  c #405F1E",
"l  c #42641E",
"z  c #415D21",
"x  c #455E2B",
"c  c #456522",
"v  c #476922",
"b  c #4B6D22",
"n  c #46612E",
"m  c #49642E",
"M  c #4C6C2E",
"N  c #4E7225",
"B  c #4E7824",
"V  c #507627",
"C  c #527C26",
"Z  c #517629",
"A  c #547B29",
"S  c #587F2B",
"D  c #4A6630",
"F  c #597834",
"G  c #464747",
"H  c #4A5047",
"J  c #515151",
"K  c #558326",
"L  c #568328",
"P  c #5A832A",
"I  c #5C8A2B",
"U  c #5F902C",
"Y  c #5F8D30",
"T  c #608B2E",
"R  c #63922E",
"E  c #65982E",
"W  c #699E2E",
"Q  c #608634",
"!  c #638D35",
"~  c #638E39",
"^  c #659431",
"/  c #6A9E31",
"(  c #6F973F",
")  c #6C9C38",
"_  c #6FA533",
"`  c #6FA833",
"'  c #70A634",
"]  c #71A934",
"[  c #72A73A",
"{  c #75AA3A",
"}  c #78AE3D",
"|  c #7BB13F",
" . c #688545",
".. c #739054",
"X. c #79A547",
"o. c #7CAD45",
"O. c #79A648",
"+. c #7EAE4A",
"@. c #7DB343",
"#. c #7EB149",
"$. c #7D9168",
"%. c #7E8F70",
"&. c #81AE4E",
"*. c #84B54D",
"=. c #84AF51",
"-. c #84B152",
";. c #87B358",
":. c #8BB55E",
">. c #858F7D",
",. c #8EB663",
"<. c #92B866",
"1. c #94B66F",
"2. c #94B86A",
"3. c #98BC72",
"4. c #9DBF79",
"5. c #A1B38D",
"6. c #ACBA9D",
"7. c #A6C284",
"8. c #ABC68D",
"9. c #AFCB90",
"0. c #B3CC9A",
/* pixels */
"              J = * o o o o o o o o o o o o o o o o o o o o o O + O                     ",
"              G i P P P P P P P P P P P P T Q S P P S T P P z * f 2                     ",
"              . N ] ] ] ] ] ] ] ] ] ' ' ' *.4.] ] ] ' ' ] ] Z = m 3                     ",
"              . b ] ] ' ' ' ' ' ' ' ' ' ' ' { ' ] ] ' ' ' ] Z 2 m 3                     ",
"              . b ] ' ' ' ] ] ] ' ' _ ' ' ] ] ] } @.{ ' ' ' N 2 m 3                     ",
"              . b ' ' / N b b b R ' ' ' ' N b v b N ^ ' ' ] N 2 m 3                     ",
"              . b ] / z + % @ . 0 T ' _ x + % % % + t ) ' ] V 2 m 3                     ",
"              . b ] ^ $ + 5 3 @ O N ] ! # # 4 , 0 2 $ S ' ' V 2 m 3                     ",
"              . b ] ^ % < 3 % & # N ] R @ X o O 3 0 % S ` ] Z , m 3                     ",
"              . b ] R % @ o . O O N ] R # . . . X 2 % L ` ` Z > m 3                     ",
"              . b ] ^ @ . . . . . Z } R @ . . . . % % ! { ` Z , m 3                     ",
"              . b ] ^ @ . . . . X %.0.( @ . . . . . + P ] ] Z , m 3                     ",
"              . b ] R @ . . . . O F +.^ o . . . . . . K ' ] V , m 3                     ",
"              . b ] ^ 2 . . . . $ P ] ^ 2 . . . . . : I ] ] V , m 3                     ",
"              . b ] ' T 5 < ; < N } @.' I 5 < < 1 4 S ' _ ' V , m 3                     ",
"              . N ] ' ' / _ _ _ ' ' ' ' ' _ / _ _ _ ' ' ' ' V , m 3                     ",
"              X b ] ] ' ' ] ] ] ] ] ' ' ' ] ' ' ' ' ' _ ' ' V 3 x >                     ",
"              . b ] ] ' ' I y y y y y y u u u A ' ' _ ' ' ' V : t %                     ",
"              . b ] ' ' R 4 . . . . . . O & $ & t S ] ' ` _ v % 0 %                     ",
"              . b ] ' R 4 . . . . . . . O % % > # - P ' _ U p % 0 %                     ",
"              . b ] ] I X . . . . o o o o . . : : X N _ I L p % 0 %                     ",
"              . b ] ` I X . . # $ c T T N & O X % $ k I L K p % 0 %                     ",
"              . b ] ' ! > % y ^ R _ ' ' ' R b % % % l L K L p $ 0 %                     ",
"              X b ' ' ' E E ) ] ' _ ' ' ' ' ) R L B C L K L p % 0 %                     ",
"              . b { ] ] ] ] ] ] ' ' ] ' ' / R L I K K L L I a % 0 %                     ",
"              X t l l l b c c c c c c v l u u u u u u u u u 7 # > @                     ",
"                O . X O % y y y y y y y y 7 7 7 7 7 7 # $ % # O . .                     ",
"                        < W ' ' ' ' ] ' ' E R ^ U K C - 3 0 , O                         ",
"                        < / ' ' ' ' ' ' ' ' ' ' _ I C - 4 0 , .                         ",
"                        < / ' ' ' ' ' ' ' { ] ' ' W R , r r , .                         ",
"                        < / { { ' _ ' ] o.0.4.' ' ' _ 2 g g 4 .                         ",
"                        < W ,.2._ ' { 8.&.&.o.' _ _ / 2 g m s .                         ",
"                        < / { } ' _ } 9.*._ _ _ _ _ W 3 j D s O                         ",
"                        ; / _ _ ' _ ' @.{ ' ` _ ` _ _ 3 j D s .                         ",
"                        1 _ _ _ _ ' _ ' _ ' ' ' _ } _ , j D s O                         ",
"                        < W { } [ ' ' _ ' ' ' ' ` _ W 3 g D d .                         ",
"                        < _ { } ] _ ' ' ' ' ' _ _ ,.O., j D s X                         ",
"                        < W _ _ ' ' ' ' ' ' ] _ _ :.O.2 j D s .                         ",
"                        < / _ ' _ _ _ ' ' _ ' _ ` _ W 4 j D d O                         ",
"                        ; _ _ ' ' ' ' ' ] _ _ ' _ _ W 2 j D s .                         ",
"                        < / _ ' ' ' ' ' _ { { _ _ ` / 2 g D s .                         ",
"                        ; _ ' _ ' _ _ ' _ -.4._ _ _ / , j D d O                         ",
"                        < _ ' [ ' _ _ ' _ [ } ' _ _ I ; j m d .                         ",
"                        < W } @.} _ _ ' ' _ } } _ _ K - j D s .                         ",
"                        2 _ _ ' ' _ ] _ ' _ ] } _ U C - j D s O                         ",
"                        < / _ ' _ _ _ ' _ ' ' _ W I C , j D s .                         ",
"                        2 W _ ' :.*._ _ _ ' ' ' U L C - j D s .                         ",
"                        < / _ _ ;.+._ ' _ ' ' W I K C , j D s O                         ",
"                        2 W _ _ _ } | ] _ ' ` E K L C > j x 8 .                         ",
"                        1 _ ' ' ' ] { ' _ _ / L L L C > f d , X                         ",
"                        4 { ' ' _ ' ' ' _ E I K K K C - 8 0 , .                         ",
"                        2 _ _ _ _ ' ' ' / I K L L K B - 8 0 > .                         ",
"                        4 W ] ] ' ' _ E I L L L L I K - 3 0 , X                         ",
"                        - Z A A C C v l a a a p p a i % - , % O                         ",
"                X ; 7 7 7 7 5 < , % : > : $ 6 6 7 7 7 4 ; ; # : > & +                   ",
"                o S ] ' ' ' E C K 3 d m f 6 _ _ _ _ _ L K l , x m D ,                   ",
"                X P ] o.<.} / C K ; d m f 6 [ ` :.-.{ U K c > n m D >                   ",
"                o Z ' =.0.} / K K 1 d m f 4 _ ` 7.3.` U K l > n D n >                   ",
"                O $.o.[ ;./ P K K ; f D f e 1._ #.#.U L K a > n n z *                   ",
"                o  .) i _ C y K K , d n 0 9 +.N v ` u v I l : n z 9 #                   ",
"                X B U 4 E v w ~ L , 8 r , 1 ` p i ` 6 M ~ v % r r 0 %                   ",
"                X N I 2 I u H 6..., , 0 2 , R i u I 3 >.5.m % 0 0 0 #                   ",
"                . 2 3 # 8 > * s 9 # : 4 > $ 0 : : 8 # q w , # 3 3 3 #                   ",
"                . . O . . . . . O . O X X . O . . X . . . X . X . . O                   "
};
