/* XPM */
static char *result[] = {
/* columns rows colors chars-per-pixel */
"64 64 60 1 ",
"  c #01AB00",
". c #0BAE01",
"X c #11AF04",
"o c #0FB002",
"O c #12B103",
"+ c #1CB300",
"@ c #17B209",
"# c #1CB20A",
"$ c #24B601",
"% c #29B701",
"& c #2DB900",
"* c #23B50D",
"= c #2AB60C",
"- c #2FB90C",
"; c #32BA01",
": c #3CBD00",
"> c #30B60B",
", c #34B90C",
"< c #3DBB0B",
"1 c #2DB711",
"2 c #2DB811",
"3 c #34B711",
"4 c #38B712",
"5 c #33B913",
"6 c #3CBB15",
"7 c #3EBC18",
"8 c #42BF01",
"9 c #43BE0B",
"0 c #4BBF0A",
"q c #45BB15",
"w c #4ABD16",
"e c #43BD19",
"r c #4EBD1A",
"t c #53BF16",
"y c #50BD1A",
"u c #46C000",
"i c #4BC200",
"p c #4FC20F",
"a c #54C400",
"s c #5CC600",
"d c #56C20D",
"f c #5DC40C",
"g c #4CC113",
"h c #4DC01E",
"j c #56C213",
"k c #5CC414",
"l c #54C11E",
"z c #5AC41B",
"x c #64C706",
"c c #63C901",
"v c #6DCC00",
"b c #62C60B",
"n c #65C80B",
"m c #68CA08",
"M c #70CC00",
"N c #60C712",
"B c #63C810",
"V c #4EC120",
"C c #56C221",
"Z c #58C422",
/* pixels */
"   avv&            iMvBlZCCCzvvco     uvvi            8vvvvMs$++",
"  .aMv&            aMvnCCCZlzvvc.     uvvi            :vvvvvs+++",
"   avv; .     . . .avvBlCCCCjccsO o   8vvu.o..    .   8vvvvMs+++",
"   svvdhh*  o7ghssstyzCCCCCCe+O+asa+  4zzjssssssghh#  :vvvvvs+++",
"   svvNCZ2  oVCCmvvNCllZCCCZe  .cvv+  5ZCzvMvvvvzZC2  :vvvvvs$++",
"   avvkCC2  @VClxvvtCVllCClZe  .svv+  5CCkvvvvvmzCZ*  8vvvvvs+++",
"uuu&$%qCCguuilCr>$%elC6##5CCe  .jkkg56hCCzvvvvvvzCC2  8vMa$$&iai",
"vMv+  5lCBMvmlCe.  7yC5  *CZe  .hCCCZZCCCkvvvvvvzCC*  :vvu  +vvM",
"vvv@  5CCBvvmlVro  7CC5  *CCg  .hCCCCZClCzvMvvvvzCC*  :MMu  +cvv",
"8::.  5CCzbbBBkjo  *52-;&<CC7  odkk625555,:8:888lCCq&&::8$  o:88",
"      5CCCClzvvcO     &vvnCC7  ocvv+            hlCnvM;         ",
"      3CCCCZzvMco     &vvBCCh  ocvv$           .hCCBvM;         ",
"######7CCe666uuu&$$$$$8vvnZZg$$&uuu&$$###@  .+$$gCCpui;#########",
"ylllllllC1     osvvvvvvvvnCCzvvso .ivvzCC6  OcvvlCC=  5CCCCCCCCC",
"CVCClCllC2     .svvvvvvvvbCCzvvso  ivvkCC6  OvvvzCC*  5CCCCCZCCC",
"yllrVrVVl1   . OsmvvmvvmvnlCzccsO.oivvkZC7  Oscclhh2 o5zlCCCCzlz",
"mmx+..4CC1  .ehhlzzlzzzlzkvvaOo@7hhlzlzCC6   oXXooo:sscvvNCClmcm",
"vvvX  3lC2  XCCCClCCCCCCCBvva  .hCCCCCZlC7         :vvvvvbCCzvvv",
"vvv+  3CC2  XlCCCllCCCCClkvva  ohlClCClZC7         :vvvvvbZCzvvv",
"vvv+  <bn;  OfmnnnnzCC7###+$&uiu*@@hCCClCh666774o  :vvu$$,ZCzzkk",
"vvc+  :vv:  OcvvvvvzCl5     +vvco  7ZCCClCZClZZV.  :vv;  *CCCCCC",
"vvv+  8vv:  OvMvMvMzCC5     +vvco  7ZCCZCZlZZllVX  :vv;  *ZCCCCC",
"ai0%@@0xmu++&iiaiiijCC7@@o  +cvso  7CCh777g6qzNt=++iMM;  @77ekzk",
"   qClCClkvva.    .7CCClC5  +vvco  7CC#     Xvvvcvvvvv;     +cvv",
"   qZCCCCNvMs      7CCCCZ5  +vvco  7ZC#     Xxvvvvvvvv;     +vvv",
"   wNkzCCguu:&&$&%&pkkg66-&$:vvc;$&gCC*  .##%vvvvvvvnn<**##*-fbb",
"  .aMvkCC2  Ocvvvvvvvv8  &vvvvvvvvvkCC#  @rrtvvvvvvNCCCCCCCCCCCC",
"   aMvNCC2  +cvvvMvvvv8  &vvvvvvvvvzCZ*  +rrtvvvvvvkCCCCCCCCCCCC",
"   8aijlC6++&cvvmnmvvv8  %nnnnBBnnnNzz,++>yrtxxxmmmfzzkzzzCCCzkz",
"      5ZCbvvvvvmzllxvv8  *ZZZZZZZZZnvvvvvbyyyyyyryyfvvvvvbCCzvvv",
"      5ZCNvvvvvvlllnvvu  *ZZZZZVZZCmvvvvmxyyyrryyyyfvvvvvnlCzvvv",
"ooo.oo5lCkvmcvvmlllnvvuoo=VVCCZZZCzfcscsssqqwyyrwqqfvvvmvbCCzssc",
"cscxxxtyyyllZyzllClnvvcxci$+2CCZmvm$oooooo. #lCh@..:vvNzlzCCe+..",
"vvvvvMfyrlllClVlCllmvvvvvu++=CCzvvv+        OhCho  :vvBCCCCZe   ",
"vvvMvvttyyVlylCVllynvvvvvu++=CZZmvv+        @VChO  :vvkCCCCCe   ",
"vvvvvvfyr4##*lCr*@@+++8vMi++&bmmvvv+  =77777eCClpiasvvBCC7@@@   ",
"vvvvvvkyy=  XCCV.     %vMi++;vvvvvv+  5ZCCCZCCCzvvvvvvBCZ5      ",
"vvvvvvtty=  XVCV.     ;vvi++;vvvvvv+  5ZCCCCCCClmvvvvvNCC6      ",
"NkNkkkyyy=  XVCl745X  $kk044qttt;%&>>5=***#*2lCZvvvu&%qCCg554888",
"CCCCCZyry=  XVCZCCC@  #yyyyyyyte.  6yl#     OhCzmvv;  2lCCZZzvMv",
"CZCCCClrt=  XVllCCl#  *yyyytyrrq.  4yy#     .CClmvv;  5CCZCCzvvv",
"677CCCjkt<$+&kkzCCV#  @33qtttyyq.  4yy>$$+  Ojzkvvv;  #76rzkkvvv",
"   eCCbvvvvvvvvvlCC@     &vvmllr.  6yybvv0  Xvvvvvv;     %vvvvvv",
"   eCCnvvvvvvvvmClC#     %vvvylV.  6yybvv8  Xcvvvvv;     &vvvvvv",
"   6hejssscscvvvNzt#.....>vvbllrXXXqyy0xx8..$cvvcss;oo.o.&csssss",
"   ....o....+cvvmmmtqqqqqryyyVlZxcctry=..%xxcvvv+.o:ccdhh5oOoooo",
"            XvvMvvvtyyyyyyyyyllyvvvtry+  $vvvvvcO  :vvNCC5      ",
"            +cMvMvMtyyyyyrrryllZcvvtyy#  $vvvvvxO  :vvkCZ5      ",
"   uaa$  $sisvvvMvvmmcmmmu@X*CVzvvvmxx$  $vvvzzzo  .++6CChe77g67",
"  .aMv&  :MMvvvvvvvvvvMvv:  XClymvvvvv%  +vvmllho     5CCCZClZZZ",
"   avv&  ;vvvvvvvvvvvvvvv8  Xyllvvvvvv%  $vvmlCho     5ZlCllCCCC",
"uuicvvsiu:$$$$$&cvvvvvvvv:  .##=xvvxttq35uvvmzCC7659uu&##5llyyyh",
"vvMvvvvvv:     osvvvvvvvM8     .xvvtryyyrjMvmlCCCCCBvM;  #ryyryr",
"vvvvvvvvv:     .cvvvvvvvM8     XxvvtrrryrjvvvCCCCCCBvv&  #yyryry",
"vvvBNkmvva:::8::;&;svva;;;::;514cvvxbbtrykvvs112hZZNvvs::9yyyffb",
"vvvzZZBvvvvvvvvc+  ivM8  &MMmZlyvvvvMMtyrtvMd.  hZCNvvvvvbyytvvv",
"vvvZZZBvvvvvvvvcO  aMM:  &vvblCymMMvvMttrjvvs  .rZZBMMMMvbyytvvv",
"iiiVZZNBnnBNnvvc.  ;uu:%$8vMmlClbbbmvv0466iu8*#*VZZBvM0800yytbbx",
"   VZZZZZZCZzvvcO     &vvvvvbylCyllnvv%     @VZCCZZBvM;  *ryrryy",
"   7ZZZZZZZCzvvcO     &vvvvMmCCllClnvv%     XCZZCZZBvv&  #tyryyy",
"   hzzzzzzzzzaai$++   &Mvvvvmtztllybvv%     @eeeCCCzvM&  #44qyyy",
"  .avvMvvvvvso osvc+  &vvvvvvvMvllZmvv%        .VCZNvM;     Xwyy",
"   aMvvvMMvvs  osMv$  &vvvvvvvvvyZCmvv%        .VZZNMv&     Xryy",
"  .aMvvvvvvvs. osvc+  &vvvvMMvvmClybvv%         VZZNvM&     Xwyy"
};
