/* XPM */
static char *result[] = {
/* columns rows colors chars-per-pixel */
"44 64 209 2 ",
"   c #020000",
".  c #0B0606",
"X  c #2F1917",
"o  c #2F1B19",
"O  c #2F1715",
"+  c #311917",
"@  c #331C1A",
"#  c #391F1C",
"$  c #311615",
"%  c #35221D",
"&  c #3B211E",
"*  c #3B2322",
"=  c #3C2926",
"-  c #382823",
";  c #3D3728",
":  c #3B3829",
">  c #383737",
",  c #42261F",
"<  c #412423",
"1  c #442926",
"2  c #4D2D25",
"3  c #432D2C",
"4  c #4B2E2B",
"5  c #532E2B",
"6  c #47332D",
"7  c #523126",
"8  c #56332B",
"9  c #5A332C",
"0  c #5D392B",
"q  c #453332",
"w  c #4A3837",
"e  c #4B3C3C",
"r  c #4B3736",
"t  c #553533",
"y  c #5D3C39",
"u  c #5A3936",
"i  c #653E2E",
"p  c #683F2F",
"a  c #733E38",
"s  c #6E3C36",
"d  c #2F4A2D",
"f  c #334B2E",
"g  c #3A4E39",
"h  c #365434",
"j  c #3B5535",
"k  c #3E623C",
"l  c #42412E",
"z  c #454933",
"x  c #5F433D",
"c  c #55523B",
"v  c #465136",
"b  c #6B4231",
"n  c #65423F",
"m  c #7B433D",
"M  c #764D39",
"N  c #61503C",
"B  c #45613F",
"V  c #494947",
"C  c #474848",
"Z  c #4A4A4A",
"A  c #4A4546",
"S  c #524545",
"D  c #554949",
"F  c #5A4847",
"G  c #475C44",
"H  c #595858",
"J  c #5F5445",
"K  c #664442",
"L  c #6A4543",
"P  c #6D4946",
"I  c #614F4D",
"U  c #734D4A",
"Y  c #774943",
"T  c #6F5741",
"R  c #7A524C",
"E  c #715847",
"W  c #615F5E",
"Q  c #6E5E5D",
"!  c #7C5453",
"~  c #53694B",
"^  c #4C7548",
"/  c #55744A",
"(  c #557C4D",
")  c #59724B",
"_  c #597F51",
"`  c #586754",
"'  c #68615F",
"]  c #6B7253",
"[  c #666363",
"{  c #6C6B6A",
"}  c #756967",
"|  c #7D706C",
" . c #7E7B7B",
".. c #727171",
"X. c #8B593E",
"o. c #86563D",
"O. c #814D48",
"+. c #86544F",
"@. c #845652",
"#. c #835956",
"$. c #895B57",
"%. c #965C57",
"&. c #96524A",
"*. c #A3554E",
"=. c #A55B54",
"-. c #BA5F58",
";. c #8D615D",
":. c #84685A",
">. c #9B635E",
",. c #9C6052",
"<. c #9E755C",
"1. c #A36C59",
"2. c #BA6057",
"3. c #BB625B",
"4. c #B36659",
"5. c #A2715B",
"6. c #8F6360",
"7. c #8C6F6B",
"8. c #936663",
"9. c #946A65",
"0. c #9A6A66",
"q. c #97756C",
"w. c #837E7D",
"e. c #8A7E7D",
"r. c #837573",
"t. c #9C7974",
"y. c #A46C67",
"u. c #AB766A",
"i. c #A67471",
"p. c #AD7975",
"a. c #A97772",
"s. c #B77D79",
"d. c #B86E67",
"f. c #C16E67",
"g. c #C2736D",
"h. c #C57973",
"j. c #C67F79",
"k. c #5B8855",
"l. c #63955D",
"z. c #649C5F",
"x. c #6B935E",
"c. c #6D8B5B",
"v. c #659D61",
"b. c #6A9C63",
"n. c #7E9C6C",
"m. c #749A65",
"M. c #7A8B65",
"N. c #70A06B",
"B. c #7FA67A",
"V. c #8C875F",
"C. c #828B60",
"Z. c #82807F",
"A. c #919974",
"S. c #9A9575",
"D. c #8A946D",
"F. c #A2827C",
"G. c #A38673",
"H. c #B7817E",
"J. c #AA977F",
"K. c #C9837E",
"L. c #8D8583",
"P. c #8A8885",
"I. c #938C8B",
"U. c #948A87",
"Y. c #969392",
"T. c #9A9494",
"R. c #9D9A98",
"E. c #919D8A",
"W. c #A68782",
"Q. c #BA8581",
"!. c #AF9881",
"~. c #A29E9E",
"^. c #B59886",
"/. c #94A98E",
"(. c #A8A09E",
"). c #ABA7A6",
"_. c #B5AEAE",
"`. c #B2ABA7",
"'. c #AAB6A4",
"]. c #B3B4AC",
"[. c #B6B4B4",
"{. c #BCB6B6",
"}. c #BFBAB9",
"|. c #BAB9B4",
" X c #C28A85",
".X c #CC8A85",
"XX c #C68E8A",
"oX c #C98E8B",
"OX c #C88682",
"+X c #CC928E",
"@X c #C5988D",
"#X c #D0938F",
"$X c #CE9590",
"%X c #D19692",
"&X c #D59895",
"*X c #C4BEBE",
"=X c #C6C0BF",
"-X c #C6BFC0",
";X c #C6C1C0",
":X c #C9C2C3",
">X c #DBDCD9",
",X c #E0DAD7",
"<X c #E3E2DD",
"1X c #E8E8E5",
"2X c #EFF0EC",
"3X c #F2F6F2",
"4X c #FEFEFE",
"5X c #F5FAF7",
"6X c None",
/* pixels */
"6X6X6X6X6X6X6X6X6X6X6X6X6X6X6X6X6X6X6X6X6X6X6X6X6X6X6X6X6X6X6X6X6X6X6X6X6X6X6X6X6X6X6X6X",
"6X6X6X6X6X6X6X6X6X6X6X6X6X6X6X6X6X6X6X6X6X6X6X6X6X6X6X6X6X6X6X6X6X6X6X6X6X6X6X6X6X6X6X6X",
"6X6X6X6X6X6X6X6X6X6X6X6X6X6X6X6X6X6X6X6X6X6X6X6X6X6X6X6X6X6X6X6X6X6X6X6X6X6X6X6X6X6X6X6X",
"6X6X6X6X6X6X6X6X6X6X6X6X6X6X6X6X6X6X6X6X6X6X6X6X6X6X6X6X6X6X6X6X6X6X6X6X6X6X6X6X6X6X6X6X",
"6X6X6X6X6X6X6X6X6X6X6X6X6X6X6X6X6X6X6X6X6X6X6X6X6X6X6X6X6X6X6X6X6X6X6X6X6X6X6X6X6X6X6X6X",
"6X6X6X6X6X6X6X6X6X6X6X6X6X6X6X6X6X6X6X6X6X6X6X6X6X6X6X6X6X6X6X6X6X6X6X6X6X6X6X6X6X6X6X6X",
"6X6X6X6X6X6X6X6X6X6X6X6X6X6X6X6X6X6X6X6X6X6X6X6X6X6X6X6X6X6X6X6X6X6X6X6X6X6X6X6X6X6X6X6X",
"6X6X6X6X6X6X6X6X6X6X6X6X6X6X6X6X6X6X6X6X6X6X6X6X6X6X6X6X6X6X6X6X6X6X6X6X6X6X6X6X6X6X6X6X",
"6X6X6X6X6X6X6X6X6X6X6X6X6X6X6X6X6X6X6X6X6X6X6X6X6X6X6X@ @ 6X6X6X6X6X6X6X6X6X6X6X6X6X6X6X",
"6X6X6X6X6X6X6XZ Z Z Z Z Z C C C C Z Z Z Z Z Z 6X@ @ @ @ @ @ @ @ @ @ @ @ @ @ 6X6X6X6X6X6X",
"6X6X6X6X6X6X6XZ H W H W [ {  .P.P.P.T.M.{ W Z = ; c ! #.#.R P L L L U K 1 @ 6X6X6X6X6X6X",
"6X6X6X6X6X6X6XV  .{.}.{.{.}.*X*X-X-X-X*X}.[.W - / n.$X%X%X%X%X%X%X%X$X$XP @ 6X6X6X6X6X6X",
"6X6X6X6X6X6X6XV  .;X*X*X-X*X*X-X*X*X*X=X=X=XE.k.z.N.$X%X%X%X%X%X%X%X%X$XL + 6X6X6X6X6X6X",
"6X6X6X6X6X6X6XZ P.;X-X-X*X-X*X*X;X*X*X*X*X*X/.v.v.D.$X%X%X%X$X%X%X%X%X$Xn + 6X6X6X6X6X6X",
"6X6X6X6X6X6X6XZ P.;X*X*X*X=X*X-X=X=X=X=X}.'.A.v.z.G.+X%X%X$X%X%X%X%X%X%XL X 6X6X6X6X6X6X",
"6X6X6X6X6X6X6XZ Y.;X*X;X*X*X*X*X=X=X}.=X|.N.z.m.<.3.f.+X%X%X%X%X%X%X%X%XU @ @ @ 6X6X6X6X",
"6X6X6X6X6X6X6XZ R.;X*X*X*X;X-X-X-X-X-X-X].N.v.<.3.-.3..X%X%X%X%X%X%X%X%X6.# # @ @ 6X6X6X",
"6X6X6X6X6X6X6XZ Y.;X*X-X[.Y.Z. . .Y.}.;X'.v.b.5.-.-.3..X&X&X%X%X%X%X%X%Xy.a Y 4 @ 6X6X6X",
"6X6X6X6X6X6X6XZ I.;X*X;XR.Z Z Z C Z ).;X'.b.b.<.-.f.j.%X Xs.Q.oX%X%X%X%Xy.O. X6.# o 6X6X",
"6X6X6X6X6X6X6XZ P.;X*X;XY.Z Z Z Z Z I.;X'.b.v.S.OX%XoX#.4 3 3 K  X%X%X%X@.2 p.XXu o 6X6X",
"6X6X6X6X6X6X6XZ  .-X-X;X).Z Z Z Z Z Y.-X'.v.v.!.%X%X#.3 L.;XT.w #.%X%X%XU O U &Xi.* @ 6X",
"6X6X6X6X6X6X6XV ..-X*X-X).D Z Z Z Z P.).E.l.l.J.$XXXt e.4X[.H D L $X%XoXy o 1 Q.$Xu @ 6X",
"6X6X6X6X6X6X6XZ { }.-X-X).H Z Z Z g h h h h f t y y @ L.1X>   . K $X%XoXt o o ;.&X6.@ @ ",
"6X6X6X6X6X6X6XC ..}.-X-X-X).R.~.R.G h j k B J y n t @ w _.>   o %..X%XoXt o 6Xu Q.$.* o ",
"6X6X6X6X6X6X6XZ [ *X*X*X*X-X;X;X|.G h k.z.A.$X$X+Xp.7 1 U x y >.3.3.g.oXt + 6X# 1 # @ 6X",
"6X6X6X6X6X6X6XZ ..*X*X*X*X*X;X;X}.~ d j k.J.$X%Xs.m 8 y +X+X+Xd.-.3.3. Xt + 6X6X@ 6X6X6X",
"6X6X6X6X6X6X6XZ Y.-X*X*X*X_.T.I.T.` d d ^ N.J.&X>.a 8 y +X#X#Xh.3.3.h.XXt @ 6X6X6X6X6X6X",
"6X6X6X6X6X6X6XZ I.*X*X*X_.F # @ - : d d k.v.A.&X>.a 5 < n n U i.j..X%X X4 @ 6X6X6X6X6X6X",
"6X6X6X6X6X6X6XZ  .;X-X;XU.# | `.I.= j ^ l.v.A.@Xs.$.8 + r Q F 4 Q.%X$XQ.1 @ 6X6X6X6X6X6X",
"6X6X6X6X6X6X6XC [ }.:X:Xe.@ {.4X<Xr z l.v.v.A.%X&X.Xy = }.5X*X1 i.&X&XQ.* @ 6X6X6X6X6X6X",
"6X6X6X6X6X6X6X- q } r.e.Q @ L.>X~.* # ; q v E 7.8.U # I 2X3X_.1 8.s.p.0.* @ 6X6X6X6X6X6X",
"6X6X6X6X6X@ @ @ @ @ @ @ # @ * q * O X O O O % % = < & 3 ' Q 6 @ * * # * # @ @ 6X6X6X6X6X",
"6X6X6X6X6X@ # q q e e e q # @ * } U.Z.e.| L c l.M.Q.i.u # + @ - q q w w e = @ 6X6X6X6X6X",
"6X6X6X6X6X@ q D D D D D D q O I <X3X3X3X2XJ.N v.n.$X%X Xp.t * S D D D D D e # 6X6X6X6X6X",
"6X6X6X6X6X# e D D D D D D q + 8 ;.q.q.t.9.Y E v.n.$X%X%XoXu 3 D D D D D D S - 6X6X6X6X6X",
"6X6X6X6X6X% e D D D D D D q @ u t.a.F.F.t.+.E z.m.@X%X%XXXt q D D D D D D D = 6X6X6X6X6X",
"6X6X6X6X6X# e D D D D D D 3 # 7.,X<X<X1X2XW.M x.M.s.%X%XoXy 3 D D D D D D S % 6X6X6X6X6X",
"6X6X6X6X6X@ q D D D D D S = % Y @.R @.$.;.O.M >.4.3..X&XoXt - D D D D D D q @ 6X6X6X6X6X",
"6X6X6X6X6X@ @ * = = - - & @ 1 >.,.+.R M M E *.2.2.-.h..XOX4 @ q w e A e q * @ 6X6X6X6X6X",
"6X6X6X6X6X@ @ @ @ @ @ @ * 4 #.#X$X&XA.v.z.x.u.f.f.f.3.3.d.a # + @ # # @ @ @ @ 6X6X6X6X6X",
"6X6X6X6X6X6X6X6X6X6X6X@ r ! ;.0.9.0.] ( ) ~ :.0.0.1.*.*.*.*.Y + 6X6X6X6X6X6X6X6X6X6X6X6X",
"6X6X6X6X6X6X6X6X6X6X6X@ @ @ @ + # % % @ # @ + # % & # & & , < # 6X6X6X6X6X6X6X6X6X6X6X6X",
"6X6X6X6X6X6X6X6X6X6X6Xo @ 9 b b b b i i b b b b b b b 0 7 2 # @ 6X6X6X6X6X6X6X6X6X6X6X6X",
"6X6X6X6X6X6X6X6X6X6X6X@ # M X.X.X.X.X.X.X.X.X.X.X.X.X.X.X.o., $ 6X6X6X6X6X6X6X6X6X6X6X6X",
"6X6X6X6X6X6X6X6X6X6X6X@ @ M X.X.X.X.X.X.X.X.X.X.X.X.X.X.X.M & @ 6X6X6X6X6X6X6X6X6X6X6X6X",
"6X6X6X6X6X6X6X6X6X6X6X# + , 2 2 2 7 2 2 2 7 7 7 8 0 0 7 7 , @ @ 6X6X6X6X6X6X6X6X6X6X6X6X",
"6X6X6X6X6X6X6X6X6X6X6X@ & , < % % % * * # @ @ % @ @ @ # # < * # @ 6X6X6X6X6X6X6X6X6X6X6X",
"6X6X6X6X6X6X6X6X6X6X6X$ i =.,.] k.k.F.s.$.@ z k.( ) ) q.p.Q.8.# @ 6X6X6X6X6X6X6X6X6X6X6X",
"6X6X6X6X6X6X6X6X6X6X6Xo t d.V.b.v.m.@X&X0.@ N V.m.z.b.^.%X&Xi.# % 6X6X6X6X6X6X6X6X6X6X6X",
"6X6X6X6X6X6X6X6X6X6X6X@ # 3 3 : : q #.$X$.o a -.1.c l n P P y @ @ 6X6X6X6X6X6X6X6X6X6X6X",
"6X6X6X6X6X6X6X6X6X6X6X# @ @ @ + @ @ * #.P o 9 &.o.# @ + + @ @ @ @ 6X6X6X6X6X6X6X6X6X6X6X",
"6X6X6X6X6X6X6X6X6X6X6X6X@ @ @ @ @ @ @ @ # @ @ @ $ + @ @ @ @ @ @ 6X6X6X6X6X6X6X6X6X6X6X6X",
"6X6X6X6X6X6X6X6X6X6X6X6X6X6X6X6X6X6X6X6X6X6X6X6X6X6X6X6X@ @ % 6X6X6X6X6X6X6X6X6X6X6X6X6X",
"6X6X6X6X6X6X6X6X6X6X6X6X6X6X6X6X6X6X6X6X6X6X6X6X6X6X6X6X6X6X6X6X6X6X6X6X6X6X6X6X6X6X6X6X",
"6X6X6X6X6X6X6X6X6X6X6X6X6X6X6X6X6X6X6X6X6X6X6X6X6X6X6X6X6X6X6X6X6X6X6X6X6X6X6X6X6X6X6X6X",
"6X6X6X6X6X6X6X6X6X6X6X6X6X6X6X6X6X6X6X6X6X6X6X6X6X6X6X6X6X6X6X6X6X6X6X6X6X6X6X6X6X6X6X6X",
"6X6X6X6X6X6X6X6X6X6X6X6X6X6X6X6X6X6X6X6X6X6X6X6X6X6X6X6X6X6X6X6X6X6X6X6X6X6X6X6X6X6X6X6X",
"6X6X6X6X6X6X6X6X6X6X6X6X6X6X6X6X6X6X6X6X6X6X6X6X6X6X6X6X6X6X6X6X6X6X6X6X6X6X6X6X6X6X6X6X",
"6X6X6X6X6X6X6X6X6X6X6X6X6X6X6X6X6X6X6X6X6X6X6X6X6X6X6X6X6X6X6X6X6X6X6X6X6X6X6X6X6X6X6X6X",
"6X6X6X6X6X6X6X6X6X6X6X6X6X6X6X6X6X6X6X6X6X6X6X6X6X6X6X6X6X6X6X6X6X6X6X6X6X6X6X6X6X6X6X6X",
"6X6X6X6X6X6X6X6X6X6X6X6X6X6X6X6X6X6X6X6X6X6X6X6X6X6X6X6X6X6X6X6X6X6X6X6X6X6X6X6X6X6X6X6X",
"6X6X6X6X6X6X6X6X6X6X6X6X6X6X6X6X6X6X6X6X6X6X6X6X6X6X6X6X6X6X6X6X6X6X6X6X6X6X6X6X6X6X6X6X",
"6X6X6X6X6X6X6X6X6X6X6X6X6X6X6X6X6X6X6X6X6X6X6X6X6X6X6X6X6X6X6X6X6X6X6X6X6X6X6X6X6X6X6X6X",
"6X6X6X6X6X6X6X6X6X6X6X6X6X6X6X6X6X6X6X6X6X6X6X6X6X6X6X6X6X6X6X6X6X6X6X6X6X6X6X6X6X6X6X6X"
};
