/* XPM */
static char *d6012821bbe44e7e8a3fa937725e1c43LNUDhMPS89BZb90Z[] = {
/* columns rows colors chars-per-pixel */
"64 64 171 2 ",
"   c None",
".  c #000000",
"X  c #060905",
"o  c #0C0F0B",
"O  c #0D1309",
"+  c #0C1407",
"@  c #131D0C",
"#  c #141912",
"$  c #181D15",
"%  c #231317",
"&  c #241519",
"*  c #261B1A",
"=  c #281E1D",
"-  c #16220E",
";  c #18260F",
":  c #1A290F",
">  c #192611",
",  c #1A2911",
"<  c #27211B",
"1  c #29231B",
"2  c #2D2C1D",
"3  c #203314",
"4  c #243816",
"5  c #2B3F1D",
"6  c #31311F",
"7  c #2D2421",
"8  c #322925",
"9  c #2D3627",
"0  c #2F392A",
"q  c #333A21",
"w  c #383E27",
"e  c #31392B",
"r  c #3B3F2A",
"t  c #373428",
"y  c #3D3830",
"u  c #423F34",
"i  c #2C451B",
"p  c #2D481B",
"a  c #324D1F",
"s  c #354322",
"d  c #394424",
"f  c #354E24",
"g  c #3C4C26",
"h  c #37472C",
"j  c #3B4029",
"k  c #3D4B28",
"l  c #375224",
"z  c #395426",
"x  c #3C5C25",
"c  c #3E5329",
"v  c #3E5B29",
"b  c #384330",
"n  c #3D4A34",
"m  c #3E6225",
"M  c #43552A",
"N  c #425D2B",
"B  c #434930",
"V  c #454438",
"C  c #4A5A34",
"Z  c #406626",
"A  c #43632A",
"S  c #49652E",
"D  c #456B2B",
"F  c #4A6C2E",
"G  c #477229",
"H  c #4B722E",
"J  c #4E7B2E",
"K  c #446130",
"L  c #4C6D32",
"P  c #516D3E",
"I  c #4D7532",
"U  c #4E7A31",
"Y  c #517531",
"T  c #527D33",
"R  c #517738",
"E  c #547B3A",
"W  c #597E3E",
"Q  c #4A5840",
"!  c #5E7E44",
"~  c #657455",
"^  c #538636",
"/  c #598735",
"(  c #568A36",
")  c #5A8B35",
"_  c #568539",
"`  c #59833C",
"'  c #578A38",
"]  c #5B8D3A",
"[  c #5D9237",
"{  c #5D9339",
"}  c #5F983B",
"|  c #61953C",
" . c #639C3B",
".. c #66A43C",
"X. c #68A73D",
"o. c #69A93D",
"O. c #618346",
"+. c #628E44",
"@. c #66854F",
"#. c #658B49",
"$. c #688E4C",
"%. c #669643",
"&. c #669D40",
"*. c #6A9D46",
"=. c #6C954E",
"-. c #6B944D",
";. c #6B994B",
":. c #6C9C4A",
">. c #6F8B5A",
",. c #718D5C",
"<. c #6C9250",
"1. c #6D9450",
"2. c #6D9451",
"3. c #729D56",
"4. c #74915C",
"5. c #6AA343",
"6. c #6DAA44",
"7. c #70AE45",
"8. c #72AD48",
"9. c #74AD4C",
"0. c #76B04E",
"q. c #77AC52",
"w. c #7AAD56",
"e. c #76A05A",
"r. c #7BA75E",
"t. c #7CAC59",
"y. c #7CB355",
"u. c #7EB459",
"i. c #758463",
"p. c #789B60",
"a. c #7D936B",
"s. c #80B55A",
"d. c #82B85C",
"f. c #83AF64",
"g. c #88AC6D",
"h. c #82B164",
"j. c #87BC62",
"k. c #89BD65",
"l. c #87B16A",
"z. c #8AB16E",
"x. c #8DBF6A",
"c. c #87A273",
"v. c #89A575",
"b. c #92AF7D",
"n. c #8EB275",
"m. c #8FBC71",
"M. c #90B377",
"N. c #90BA74",
"B. c #95B37F",
"V. c #8FC16C",
"C. c #91C26E",
"Z. c #93C471",
"A. c #9AC67A",
"S. c #9CCA7B",
"D. c #96B480",
"F. c #9EBE87",
"G. c #A3C18C",
"H. c #A5D088",
"J. c #ABD38F",
"K. c #ABCB94",
"L. c #AFD098",
"P. c #B0D795",
"I. c #B2D997",
"U. c #B3D79A",
"Y. c #B6DA9E",
"T. c #B8DD9E",
"R. c #B8DD9F",
"E. c #BBDFA2",
"W. c #BBDFA3",
"Q. c #BDE0A4",
"!. c #BDE1A4",
/* pixels */
"                                                                                                                                ",
"                                                                                                                                ",
"                                                                                                                                ",
"                                                                                                                                ",
"                                                                                                                                ",
"                                                                                                                                ",
"                                                                                                                                ",
"                                                                                                                                ",
"                                                                * = * & & &                                                     ",
"                      * & & & & & & & & % & & & & & & & * * & % % % % % & & & & & & & & *                                       ",
"                      & & * = * = = 1 1 2 q g S L F F H I T I v d s d k M S I A g q 2 & *                                       ",
"                      & & A ) ) / / ] +.%...X.o.o.o.6.o.X. ...5.6.y.u.u.6.6.o.{ ^ ' D * &                                       ",
"                      & & T o.o.o.:.2.-.;.*.X.X.o.o.o.X.] ( ^ ' N.T.T.R.V.X.X.{ ^ ^ F * &                                       ",
"                      & & U o.o.X.-.2.2.-.;.X.X.o.o.X.X.] ^ ^ ^ N.!.W.!.C.X.X...{ { J * *                                       ",
"                      & & Y o.o.X.;.2.2.-.;.X.o.X.X.X.X.] ^ ^ ^ z.!.W.W.k.X.X.X.o...( * &                                       ",
"                      & & F o.o.X.5.%.%. .|  . . .X.o.X.} ' ^ ^ d.P.P.J.w. . ...o.6.( * *                                       ",
"                      & * L o.o...z ; ; ; - @ @ - J o.o.X. . . .o.9.9.5.` _ ` ] X.o./ = &                                       ",
"                      & * T o.o. .- . . . . . . . x o.X.o.o.o.X.o.X.o. .` W ` ` ..o./ * &                                       ",
"                      & = / o.o...: . . . . . . . x o.o.o.X.o.o.o.o.6. .` ` ` ` ..X.^ = &                                       ",
"                        < [ o.o. .: . . . . . . . m o.o.o.o. .m a f f p i I ]  .X.o.) = *                                       ",
"                        1 [ o.o. .; . . . . . . . m o.o.o.o.H X . . . . . m o.o.X.o.) < &                                       ",
"                        1 } o.o. .- . . . . . . . z o.o.o.o.G . . . . . . m o.o.X.o.[ 1 *                                       ",
"                        6 [  . ...; . . . . . . . p o.o.o.6.H . . . . . . D o.o.o.o.[ 1 &                                       ",
"                        2 U ^ (  .> . . . . . . . + p p p a i . . . . . . m o.X.o.o.| 1 &                                       ",
"                        < T ^ (  .T H H D Z m m i . . . . . X . . . . . . Z o.o.o.o.} 1 %                                       ",
"                        < F ^ ^  .o.o.o.o.o.o.o.J . . . . . e a.~ Q n n h ) o.o.o.o.| 1 &                                       ",
"                      & % ! h.l.9.o.o.o.o.o.o.o.J X . . . . b W.!.F.B.D.g.6.X.o.o.o.} 1 &                                       ",
"                      * % c.!.W.C.o.o.o.o.o.T 4 ; . . . . . 9 L.Y.F.B.B.z.o.X.X.o.o.) 1 &                                       ",
"                      * % i.!.!.Z.o.o.X.X.o.x . . . . . . . O 9 n p.M.M.t.o.o.X...o.( * &                                       ",
"                      * % ~ W.W.C.o.X.o.o.o.x . . . X + + X . . . D 6.6.o.o.o.o.6.6.( * &                                       ",
"                      & % C k.x.0.X.o.o.o.o.x . . . i } ) 3 . . . H o.o.o.X.X.6.l.n.4.= &                                       ",
"                      & % d ..X.X.o.o.X.X.o.R $ # # D o.o.z X X + U o.X.o.X.X.w.D.D.a.7 &                                       ",
"                      * & 6  .o.X.o.o.o.o.6.n.v.c.c.9.X.X. .^ U ( ..X.o...5.o.t.b.b.a.7 &                                       ",
"                      * & = d B g l N U J U @.>.>.>.! D A A A N v m D H D c k B V u y * &                                       ",
"                        & & & % % % < f f l f f f f f f f f f f f f f f a * % % % & & & &                                       ",
"                                & & 1 f f f f f f f f f f f l z z v A H I 7 & &                                                 ",
"                                & & 1 l f f f f f f l z A K U `  . ...X...6 &                                                   ",
"                                * & 2 l l x A I T ^ )  .] ` ` 5.S.S.x.X. .2 &                                                   ",
"                                & % q ^ |  .X.o.o.o.o.o.] ` ` 2.Y.W.J.7. .2 %                                                   ",
"                                * & A 9.n.z.f.6.X.X.X.o.{ ` ` 2.Y.!.H.o. .2 &                                                   ",
"                                & & F w.B.B.B.w.....o.o...' [ { r.l.t.o. .2 &                                                   ",
"                                & * T t.B.B.B.w.......o...o...( ^ ^ ] o. .6 %                                                   ",
"                                  1 ) 9.M.n.M.A.A.V.6.o.o.o...( ^ ^ ) o...q &                                                   ",
"                                  1 { 5.6.6.s.R.Q.Q.u...o.o.o.} ' ( } o.5.k &                                                   ",
"                                  1 | o.X...s.T.Q.E.j...X.X.X.X.X...X...o.c &                                                   ",
"                                  < [ o.X.X.8.J.T.I.q.{ ]  .X.o.X.X.o.o.o.N &                                                   ",
"                                  < / o.X.X.o.8.y.0.{ ^ ^ ' ..o.o.o.X...o.M %                                                   ",
"                                & * T X.5.6.X.o...X.' ^ ^ { ..X.X.X.X.o.o.M &                                                   ",
"                                & & L :.2.2.;.o.o.X.| ] ] ] ] ] { *.:.*. .s &                                                   ",
"                                & % S :.2.2.-.o.o.X.X.X.X.] W ` ` -.<.2.#.8 &                                                   ",
"                                & & M +.#.#.$. .X.X.X.....^ R E W #.$.1.O.1 &                                                   ",
"                          & & & & & 5 c M v v Z m D D A Z c l l z v N K c * & * * *                                             ",
"                          & = < 1 1 5 c g g P P L A Z f N v l l f f f z f < & & & &                                             ",
"                          & M | ) | / T Y f.U.U.A.6.^ z [  .[ / ( W ! O.` L N c 2 &                                             ",
"                          & N  . . .) T T e.K.G.g.{ H f / o.o.o.o.-.2.2.%.^ ` ' s &                                             ",
"                          & * 2 2 6 2 6 6 6 u 8 1 < * & 6 N M c g r r r j q q q = &                                             ",
"                          & & & & & & & & % & & & & & & & & & & % % & % & % % & & &                                             ",
"                          & & & & & & & & & & & & & & & & & & & & & & & & & & & & &                                             ",
"                        * & & & & & & & & & % & & & & & & & & & & & & & & & & & & &                                             ",
"                          & & & & & & = & & & & & & & & & & & & & & & & & & & & & &                                             ",
"                                                                                                                                ",
"                                                                                                                                ",
"                                                                                                                                ",
"                                                                                                                                "
};
