/* XPM */
static char *_651987795ef4383b6351bbf632716b3IrlY99n1q3NLv4AT[] = {
/* columns rows colors chars-per-pixel */
"64 64 230 2 ",
"   c None",
".  c #341F12",
"X  c #331F0D",
"o  c #2C260F",
"O  c #3B220B",
"+  c #3A2213",
"@  c #372416",
"#  c #2C3F21",
"$  c #46210D",
"%  c #482A15",
"&  c #522B14",
"*  c #4C371C",
"=  c #5A351D",
"-  c #59371C",
";  c #60381C",
":  c #4B3924",
">  c #563823",
",  c #663D24",
"<  c #1C4A29",
"1  c #09552D",
"2  c #1B5E2D",
"3  c #0C4E32",
"4  c #144C34",
"5  c #194A37",
"6  c #055634",
"7  c #0B5535",
"8  c #065A35",
"9  c #0A5B35",
"0  c #0B553A",
"q  c #075C38",
"w  c #0B5C3A",
"e  c #07573A",
"r  c #115336",
"t  c #125C36",
"y  c #13553B",
"u  c #135C3B",
"i  c #1B5B3E",
"p  c #1B5836",
"a  c #2B4423",
"s  c #384A27",
"d  c #27532A",
"f  c #3B532D",
"g  c #3A562A",
"h  c #265834",
"j  c #3A5832",
"k  c #304A32",
"l  c #076A2E",
"z  c #1B692F",
"x  c #1A732D",
"c  c #066535",
"v  c #0A6435",
"b  c #046A32",
"n  c #0A6B36",
"m  c #07653A",
"M  c #0C643B",
"N  c #066A3A",
"B  c #0C6B3C",
"V  c #1C6B35",
"C  c #12643D",
"Z  c #1A643F",
"A  c #116B3D",
"S  c #1A6B3B",
"D  c #156834",
"F  c #0C7336",
"G  c #0B733C",
"H  c #0C7C3D",
"J  c #077238",
"K  c #13723D",
"L  c #127A3C",
"P  c #197839",
"I  c #256C35",
"U  c #22663F",
"Y  c #246D3C",
"T  c #2B6839",
"R  c #346A35",
"E  c #2D7D3D",
"W  c #26753B",
"Q  c #35733A",
"!  c #4D481D",
"~  c #6B411F",
"^  c #474626",
"/  c #47572C",
"(  c #465433",
")  c #5C5633",
"_  c #595937",
"`  c #5B4C23",
"'  c #6C4D2D",
"]  c #6B4426",
"[  c #744D2C",
"{  c #754A26",
"}  c #7D522D",
"|  c #74512E",
" . c #644D33",
".. c #6C4C32",
"X. c #664732",
"o. c #775232",
"O. c #6C552E",
"+. c #416533",
"@. c #7F603E",
"#. c #1F5F45",
"$. c #205E42",
"%. c #0E6540",
"&. c #0E6B41",
"*. c #126441",
"=. c #126C41",
"-. c #1C6842",
";. c #0E7341",
":. c #0E7B44",
">. c #127343",
",. c #1B7445",
"<. c #137C45",
"1. c #147C4A",
"2. c #1B7C4B",
"3. c #197B48",
"4. c #246B43",
"5. c #2A6A41",
"6. c #246844",
"7. c #2C7442",
"8. c #2B7D44",
"9. c #257C4D",
"0. c #227446",
"q. c #307440",
"w. c #377941",
"e. c #277E51",
"r. c #7C5C44",
"t. c #547444",
"y. c #686C43",
"u. c #7D6244",
"i. c #796647",
"p. c #875B37",
"a. c #85613C",
"s. c #855D43",
"d. c #896243",
"f. c #0E883E",
"g. c #1C833C",
"h. c #158A3D",
"j. c #198B39",
"k. c #1A953C",
"l. c #24863C",
"z. c #279538",
"x. c #399038",
"c. c #0E8344",
"v. c #0C8E45",
"b. c #0F8749",
"n. c #0E8D4A",
"m. c #138445",
"M. c #1C8444",
"N. c #138B44",
"B. c #1D8B45",
"V. c #14844B",
"C. c #1C844B",
"Z. c #138B4B",
"A. c #1C8B4B",
"S. c #0D9245",
"D. c #0D924A",
"F. c #079047",
"G. c #139445",
"H. c #12934B",
"J. c #1D9A4A",
"K. c #1C9348",
"L. c #198651",
"P. c #149351",
"I. c #258445",
"U. c #2B8A41",
"Y. c #22824C",
"T. c #258946",
"R. c #24944B",
"E. c #239C4C",
"W. c #279746",
"Q. c #309445",
"!. c #379B49",
"~. c #278353",
"^. c #388755",
"/. c #369B52",
"(. c #2F9149",
"). c #25A14B",
"_. c #2DA146",
"`. c #33A44E",
"'. c #35AC4D",
"]. c #39A74A",
"[. c #3CB24D",
"{. c #2BA952",
"}. c #26A251",
"|. c #34A353",
" X c #3BAD55",
".X c #3AAA55",
"XX c #3CB254",
"oX c #38B156",
"OX c #498648",
"+X c #469D49",
"@X c #569A43",
"#X c #529A4B",
"$X c #459E54",
"%X c #569E50",
"&X c #47A749",
"*X c #57A94B",
"=X c #44B34C",
"-X c #4DB34B",
";X c #53B44B",
":X c #5DBA4C",
">X c #5AB54A",
",X c #4BA255",
"<X c #43AC52",
"1X c #47A557",
"2X c #51A059",
"3X c #56A954",
"4X c #46B356",
"5X c #56B853",
"6X c #63B84C",
"7X c #76BA4F",
"8X c #64BD52",
"9X c #6BB654",
"0X c #75BB58",
"qX c #5FC053",
"wX c #77C24A",
"eX c #6EC352",
"rX c #7DC656",
"tX c #7CCA52",
"yX c #74C358",
"uX c #6DC04C",
"iX c #8DBC53",
"pX c #89BC5A",
"aX c #92BB55",
"sX c #94B85B",
"dX c #93BF49",
"fX c #95B966",
"gX c #8FBF60",
"hX c #8BC448",
"jX c #93C14C",
"kX c #86C558",
/* pixels */
"                                                                                                                                ",
"                                              fX          fX                                                                    ",
"                                            sXsXfX        aXaX        iXaX                                                      ",
"                                            aXjXpX        iXiX        pXiX                                                      ",
"                                            7XwX9X2X    $X*X*X3X      @X@XOX                                                    ",
"                                aXdXjXjXiXhX>X-X<X/.m.N.A.K.W.`.<X1X!.x x L A.Z.m.B t h         9.9.                            ",
"                                iXhXhXhXhXwX;X[.'.W.N.S.H.F.k.). X<XQ.l b H Z.Z.V.B M h       ~.9.9.                            ",
"                                9X7XwXwXwXuX=X[..X].!._.).E.J.|.`.`.(.H G c.m.<.1.G M Z       ~.2.9.                            ",
"                    2X*X9XpXkX9X&X!.<X;X>X;X_.k.).5XeXqX4X'.|./.g.g.B.V.L.1.;.B &.&.B >.Y.~.Y.,.C C                             ",
"                    ,X&X:XrXrX>Xz.f.K.'.[.].k.j.z.5XtXtXqX<X.XR.l b H N.n.1.q 6 w m b G m.Z.C.B 6 3                             ",
"                    ,X<X5XyXyX5XW.h.J.'.[.[._.z.x.:XeXeX:X[.oXR.G J c.v.n.V.m q M B J H v.n.Z.>.7 4                             ",
"                        2X*X&X!.g.<.A..X=X=XqX;X>X;X&X&X'.).}.J.v.b.H.D.D.V.&.m ;.V.c.N.H.D.Z.=.y 5                             ",
"                          U.k.g.F l P ].[.-XeXkXyX&Xj.k.k.F.S.H.v.v.D.D.F.b.N N ;.Z.D.S.S.v.m.=.r 4                             ",
"                          A.N.m.F l l.].=X>XyX0XyX!.j.h.G.v.S.P.v.v.D.D.n.V.B w ;.Z.n.n.D.Z.m.>.w 4                             ",
"                        2XR.H.K.B.l.!.;X6X6X%X@X#Xl.H f.m.m.m.V.c.c.Z.:.1.>.%.*.=.3.:.<.<.<.K =.M u #.                          ",
"              2X2X0XkXkX3XW.N.J.`.].;XuXtX6Xx.z z D v v G B B >.N B B m m %.%.0 w C w M M M v B M C *.$.$.                      ",
"              2X3X9XrXrX5X(.h.J.oX[.5XeXkX9XQ 1 1 q 8 9 M v v A c m B q 6 w 0 0 0 w 6 w 7 7 9 M M D *.u i                       ",
"              2X3X9X8X:X&XT.m.K.{.'.[.qXqX>X7.D M M w M A D A =.M %.&.w w %.w w %.%.B *.C M n B n A A C $.                      ",
"                  ,X!.Q.W.L F f.G.J.).)._.Q.0.D D =.M n A n M A q q %.%.M &.%.M &.1.V.1.;.m &.&.B A C t y                       ",
"                    j.h.m.n b H f.S.f.S.f.h.K M M &.N N A v v M 8 8 %.M M B n n G Z.Z.V.G N N N M M M 7 r                       ",
"                    R.K.Z.H J f.N.D.D.D.S.N.L G &.&.&.M =.M M =.m q &.M B &.B M <.V.Z.V.;.M B &.M %.C w y                       ",
"                    /.|.}.N.m.Z.D.D.Z.c.H c.V.V.V.>.M M -.w w %.m m &.&.B =.C w C ;.;.=.M M M M w %.u 0 y 0.^.^.                ",
"                    1XoX{.G.v.D.D.F.v.G b G b.n.V.;.8 7 w 7 6 M m N &.&.M C e 0 w 9 8 q e 8 e w e e t 7 7 ,.C.~.                ",
"                    <XXX|.H.v.G.S.S.m.F b G Z.Z.Z.>.8 w u 7 7 *.m N &.&.B C w 0 u e 8 w w e e q q q 9 1 q >.2.9.                ",
"                  %XU.W.A.m.f.N.).{.R.0.I S 1.V.<.>.M C -.Z -.-.q %.&.%.M *.w w *.>.>.=.*.w %.%.m B >.:.L 2.                    ",
"              fXsX*Xx F ;.G J j.|.XX1X8.I Y S F B B M C 4.4.5.6.6 q M e w u 9 7 A V.L.V.M e w M n N 1.V.V.                      ",
"              gXiX@Xx l B n l l..X4X/.E I Y S M n B v D 4.Y 5.U 7 6 w 6 6 u 0 7 B Z.P.V.%.e e M b J m.Z.C.                      ",
"              0X0X&XP F <.M.P U.!.$X!.E I S S B B G M C 4.U U 4.B B ;.&.B =.u 0 =.<.V.1.%.0 M &.G H m.V.2.                      ",
"              3X-X].j.N.R.|..X!.U.Q E I D A &.B B B c w u t t 3.V.Z.Z.b.V.2.w 7 M F F B %.w *.1.Z.m.m.G A                       ",
"              <X<X`.N.N.E. X4X/.E T I D v n N m M M 6 e r 7 1 <.b.D.H.n.b.m.9 6 9 b c M e e %.1.Z.Z.;.M M                       ",
"              2X1X/.Y.B./..XoX`.l.P I I D =.=.%.%.%.e w u 7 9 1.Z.D.H.S.Z.3.v 6 M M n M w e %.1.V.Z.:.M C                       ",
"                        |.}.E.E.T.T.I.7.4.4.-.w %.%.w w 6.6.Y Y.H.D.Z.c.:.<.B M %.%.M B &.M &.>.<.;.A M y                       ",
"                          B.N.G.N.I.I.7.5.5.Z e q 9 6 7 6.4.Y Y.M.N.b.N M =.B M M e 6 m M M B B n M M 7 4                       ",
"                          M.m.R.B.I.I.7.Y 4.C e 9 w 7 9 U T Q 8.I.B.M.v t Z M M %.q 8 q M M n B M M y 4 5                       ",
"                              ^.OXOXt.E Y 0.2.3.,.>.M D 0.8.I.w.R R E     6.Z u *.%.w C &.=.=.A C u 6.                          ",
"                                y.i.t.T D S V.Z.C.>.n n 3.B.U.+.g s /       p 7 w w w w %.B C u 7 r                             ",
"                                d.u.y.T D z M.C.C.K n b m.g.l.+.^ * ^       5 4 0 7 6 w M M M u 3 5                             ",
"                                  u.y.R g R Q W q.0.n B W Q R +.s ^         5 4 *.*.C *.C u u p 4                               ",
"                                      ) ) ) / / f T S D T g / j d a               2.1.9.                                        ",
"                                      X.' ' ` * ^ j z 2 g : : k < <               e.L.~.                                        ",
"                                      ..| O.` ^ ^ j 2 d f : : ( d 5               e.~.~.                                        ",
"                                      ..| O./ f j s # # s                                                                       ",
"                                      X...) ( h h # o o                                                                         ",
"                                      X. .) R h h # @ .                                                                         ",
"                                          _ ( ( ( # % +                                                                         ",
"                                            : : > & O X                                                                         ",
"                                            > > ; & + .                                                                         ",
"                                            ' ] ] - & % :                                                                       ",
"                                        i.s.} { { ~ - - > + @                                                                   ",
"                                      i.u.d.} { { ] ; - > . @                                                                   ",
"                                      u.a.a.} p.p.] ; - > $ % :                                                                 ",
"                                 . .| } } p.p.a.p., & & = = > * . @                                                             ",
"                                 .' [ [ [ } p.d.p.> $ $ > ; ; = . .                                                             ",
"                                 . ...' ' o.p.d.s.> + + > > > * + @                                                             ",
"                                                                                                                                ",
"                                                                                                                                ",
"                                                                                                                                ",
"                                                                                                                                ",
"                                                                                                                                ",
"                                                                                                                                ",
"                                                                                                                                ",
"                                                                                                                                ",
"                                                                                                                                ",
"                                                                                                                                "
};
