/* XPM */
static char *_af7e736daf94f10baddc05c6b041d64y2gT93GjVBaWB6u5[] = {
/* columns rows colors chars-per-pixel */
"24 26 106 2 ",
"   c None",
".  c black",
"X  c #040F10",
"o  c #051415",
"O  c #061718",
"+  c #021A1B",
"@  c #091818",
"#  c gray9",
"$  c #1A1A1A",
"%  c #201E1E",
"&  c #0A2729",
"*  c #0B2A2C",
"=  c #053335",
"-  c #173537",
";  c #1D3537",
":  c #233131",
">  c #2F3232",
",  c #303232",
"<  c #1D7479",
"1  c #1D868B",
"2  c #1C888D",
"3  c #1C8B91",
"4  c #1C9197",
"5  c #19949A",
"6  c #18989F",
"7  c #20858B",
"8  c #23888D",
"9  c #279197",
"0  c #289196",
"q  c #28959A",
"w  c #1799A0",
"e  c #299FA5",
"r  c #2BA0A6",
"t  c #2CA3A9",
"y  c #27ACB3",
"u  c #29ACB3",
"i  c #3AACB2",
"p  c #28B2B9",
"a  c #31B6BD",
"s  c #45AEB3",
"d  c #0FBBC4",
"f  c #0BBEC8",
"g  c #10BBC4",
"h  c #2BBDC4",
"j  c #10C4CE",
"k  c #04CBD6",
"l  c #0FCCD6",
"z  c #06CFDA",
"x  c #0FCED8",
"c  c #04D1DC",
"v  c #11D4DF",
"b  c #27C5CE",
"n  c #2CC3CB",
"m  c #37C7CF",
"M  c #27C9D1",
"N  c #29CAD2",
"B  c #38CAD1",
"V  c #04D5E0",
"C  c #04D9E5",
"Z  c #0DD8E3",
"A  c #09DFEA",
"S  c #11D5E0",
"D  c #09E1EC",
"F  c #03E5F1",
"G  c #04EBF6",
"H  c #08ECF7",
"J  c #05ECF8",
"K  c #0AEDF9",
"L  c #15EBF7",
"P  c #11EFFB",
"I  c #1BEFFB",
"U  c #00F2FF",
"Y  c #0DF1FD",
"T  c #14F1FD",
"R  c #1AF3FE",
"E  c #23F3FE",
"W  c #2DF3FD",
"Q  c #32F3FE",
"!  c #3BF2FC",
"~  c #47C7CD",
"^  c #45CDD4",
"/  c #6EE9EF",
"(  c #71E4EA",
")  c #7BE8EE",
"_  c #6DEAF1",
"`  c #8FE2E7",
"'  c #97EAEF",
"]  c #85ECF1",
"[  c #8CECF1",
"{  c #A5E8EC",
"}  c #C3C2C2",
"|  c #C8C5C5",
" . c #CADFDF",
".. c #D3DEDE",
"X. c #DCDBDB",
"o. c #CADFE0",
"O. c #C4E1E2",
"+. c #CCE3E4",
"@. c #DAE4E4",
"#. c #C3FCFF",
"$. c #CCFBFE",
"%. c #D3FCFE",
"&. c #DCFCFD",
"*. c #E7FFFF",
"=. c #E8FFFF",
"-. c #F4FFFF",
/* pixels */
"                . . . . . . . .                 ",
"                $ $ $ $ $ $ $ $                 ",
"            . $ } X.X.X.X.X.X.| $ .             ",
"            # ,  .=.=.=.*.=.-.@.: o             ",
"        . $ } o.! E E E E W [ ` i 9 O .         ",
"        $ , ..&.E U U U T E _ ( B p * o         ",
"    . $ } ..{ [ T U U R #.#.W P H D u 0 @ .     ",
"    . $ X.-.[ / E R K W %.&.W Y U J N u O .     ",
"    . # X.=.W E #.%.] ) ' ' ) _ Y U J c + .     ",
"    $ >  .%.Q W $.&.[ ) ) ) ) / L J U C - $     ",
". $ } o.! Q #.$.! R T P P T P L b M G R O.| % . ",
". $ X.*.E R %.&.E U U U U U U J n n H R %. .$ . ",
". $ X.*.E Y ] [ T U U U U U U J n n H H ^ s @ . ",
". $ X.*.Q I ( ( P U U U U U U J n n A A h e O . ",
". $ X.-.[ ( ~ m H U U U U U U J n a 4 3 1 < X . ",
". # X.-.[ ( m b A F F F F F F D b h 4 1 7 < o . ",
". $ X.*.Q P J D 6 3 3 3 3 3 3 5 A G F A h r O . ",
". $ | +.I U F C 4 1 1 1 1 1 1 4 C G U G p 9 O . ",
"    % ; V G w 4 j l l l l l l j 5 5 F C = O     ",
"    . + k D 3 1 l Z Z Z Z Z Z x 1 2 D c + .     ",
"    . o y h 1 1 l Z Z Z Z Z Z x 1 7 h y O .     ",
"    . o 9 t 8 3 l Z Z Z Z Z Z x 3 8 t q O .     ",
"        o & r h v Z Z Z Z Z Z S h t * O         ",
"        . o 0 u g f f f f f f d u q O .         ",
"            O O + + + + + + + + O O             ",
"            . . . . . . . . . . . .             "
};
