/* XPM */
static char *_525fa674c584fd2b77216ed880e92f6QSThwmzxQtfaSKKA[] = {
/* columns rows colors chars-per-pixel */
"50 64 85 1 ",
"  c None",
". c #06050B",
"X c #09060D",
"o c #0A080F",
"O c #0A0711",
"+ c #0D0A14",
"@ c #0E071A",
"# c #0E0B19",
"$ c #110D16",
"% c #120E1A",
"& c #190F1A",
"* c #15111D",
"= c #19121D",
"- c #130C22",
"; c #12092A",
": c #190E2C",
"> c #161222",
", c #1A1424",
"< c #1E1825",
"1 c #1C162A",
"2 c #1E192C",
"3 c #150B32",
"4 c #190E33",
"5 c #16093A",
"6 c #1A0C3B",
"7 c #1C1134",
"8 c #1F1A31",
"9 c #1E123A",
"0 c #211726",
"q c #221827",
"w c #20172C",
"e c #22192D",
"r c #291D2E",
"t c #231537",
"y c #241B33",
"u c #291E34",
"i c #22143C",
"p c #251E39",
"a c #291E3A",
"s c #252037",
"d c #2D2135",
"f c #262039",
"g c #2B223D",
"h c #302237",
"j c #33253C",
"k c #160740",
"l c #1B0B43",
"z c #1D0B4A",
"x c #210D4C",
"c c #251544",
"v c #281447",
"b c #261943",
"n c #2A1946",
"m c #26124D",
"M c #2A144C",
"N c #261849",
"B c #230E53",
"V c #271255",
"C c #2B1254",
"Z c #2C135B",
"A c #301456",
"S c #33145D",
"D c #33185B",
"F c #2D2542",
"G c #2E2844",
"H c #2F2649",
"J c #312442",
"K c #3A2A43",
"L c #342749",
"P c #332B4B",
"I c #3E2C48",
"U c #362E51",
"Y c #382F51",
"T c #393055",
"R c #3C335A",
"E c #2D1462",
"W c #331663",
"Q c #381760",
"! c #361866",
"~ c #381966",
"^ c #321668",
"/ c #39166E",
"( c #3A1869",
") c #411A6E",
"_ c #421B73",
/* pixels */
"%+++..$++Xo**%$$oXX$++X+>*$$+o.+$++X**%+$O..++XX+$",
"++++.oo+OXo>*$$$+.o++o.%>%$$$Xoo++XX**$+$+.o+oX.+%",
"++$$o=+OXX+>**#%+$*Oo.o+>*%%%+&$XX.X***%%$$&oo..+$",
"+$++o$oX+,=#>**%X$$Xo*,*>>*>$O$oX+,,*>**%o+$..$&++",
".oo.$==%,2>%%%%++=>=%w2=#%%%o%,,=>22%##%+X%>=+==+.",
"X$+X1ew,%<*++>2+=uyy>,,%++2,o2uy1*<>+$*2%+yy2%+$o.",
".$o+ew1,#$%1<>2$1ayw,%#-8>2*%suw2%##,1*2$,uw1*ooX+",
".o$$11w,+*8f>$<*1tyy>#2as%*<*syy2%*8f2$*>>yw,%X+%+",
".&<%+**+$>22%<jd%>1%+=,21*dje%,,+$,12*>jd%*=%X+++o",
".&=+%<%+rd,%+2je%11%>jr=**dd<%e,+yj1*#>jq*>,++1=o.",
"..oX%2*+err=+*=$%ye%1hur*+==$,y,%eur<+#>++<2+%=%$X",
"+$#+>>%22>**8ss2>y>1p1=*,fsy,w2-yy,=%8f82>2=%>%+..",
"*=,>>#>p81+8UPPg12%ya8>%FUPPp1>>py1#,PUPH,,%,2>+.+",
"%*%>$+181>>Pg1>>%O#@####1,>>%@%+#@##1GGss2$$2>*X+%",
"$$%>$=,,>*1Uf3;3;;l53;433;5;;66:;3334ffsp8*,>*+X+=",
"+%**$s1%#%,GfcBlBzzBllBzzkVzzBzzBzzB48fs8,<d%+oX++",
"+#*+$=%+1jaypcE                    A18sy2#=&++*,#+",
".+o.*2y2eJa,>4x                    A9,,1=+yy2=,,+o",
".*$+eap2,e,%-4S                    Vi>2g>>gay=+$..",
".+o#yeee%%-peN_                    ^9>,e%,gy2=+oo+",
".o$$1ee,+,FF,c^                    !9>=ee,pe2*o#*+",
".=0%o,>+=w111nZ                    W7*1Kj=#,%X+++X",
".&*+=2*+dje,,iB                    C7%1je$1e+$<=+.",
".ooX%1%%err,%4S                    At=%=%%1,+*=#+X",
"$%=#,,>88,*%89S                    m7yGgs>2>>1%+..",
"%=,>=+>p81#sHNE                    S9FTPG2<#,,*+X+",
"##*>++1y2,,UF9W                    Z9HGss2+%1>%O+*",
"+#*>*,,,>%,TFcE                    Z7gfsf2>0>%#.+*",
"+****r<+#>2FbbC                    D1yffs,2d*+X++$",
"++#++*$%8PF8s9C                    m9pss2+*=++,,++",
"o++o,yd22Fu,%9)                    Sb>>2%%pue=,=+.",
"X%++epp2>e=%,M/                    (9=2J,>Jpy>$+..",
".+o+yyy8*%1Fwv^                    (92>1*2gyw,oX+#",
".$=+,e2,+1gF1cZ                    Q7,*dr,ey1+X$%+",
".&=&+=%o,2,,wiZ                    C:-eKj*%,$X%$oX",
".&&+>2>%jKr>=i~                    Cp=,de%ee%$q=+X",
".OXo*>%*2ee,#4Z                    C9%*>*%,,$%%$$.",
"+=,#,>>sy,+=fc^                    Z9pPHf,8>>1%+..",
"*>,>%#,88,%fHcE                    Z9HTGF1>#,1%+X+",
"#+**#+221,2TFcV                    D9JFss2%%,>%++=",
"+$**%e,>=#,UgcZ                    D:sfsse,q=%+.+*",
"+**#*q=$$0yfa7Q                    x9pffp=0r%o+$+#",
"++$++***uLg289/                    ~ne8y2+=*%%11++",
".++o<sd2way>#NE                    !9*>e*#agy%=%+.",
"X%$+yyyw-1%>,cE                    ~1-2g=,jyy&$+.o",
".+X+r2yy%#2F2iC                    C72=,#2gy1>XO++",
".$,&&w1%+,aawiS                    m4>=dd=<w1$O%#+",
".&=%+>%O1y,,,6Z                    Vt*1Kg*%,OO&$oX",
".$$o>y>#jju,+4EE                  /V9%*e,#yy$&q=$X",
"XXoo#>+><10>,96zl6xml3lll5x55Vx66llz9*,*%%,%+%%$o.",
"%=,%1>>pe1%>f>@;#@;@@%-@@#--+-;O#---#sUPF>y>>2%+.X",
"**,-#+>y2>@FH222>+#,1>#>ffe2,*o*1>*+2PPFg1%#,,%Oo$",
"+%**+%,1,>>UUfss2*,y82=gRPffs,*2y2,,UUfs82$%,>%o+=",
"+$*=*e>>%$>HFsss2ed,>*#pPfssp,de1-#>GGs8p1>e%$OX+*",
"++=#$<*+%22pf8s8*eq%+,u2gppp2*r,+%1p8fs82*=2$O$%++",
"+++O+==*eFs1212>+,,>,FJ22122+*>,>yJf12,<>+=>%%,,+o",
".$+X1py1,y1#+>2#-jga,et,+%01+ejae,y2%+%w%#upe%&%o.",
".$++ww0<#=+*,1u+1gyy:%%#1=y1#aayw%>#%1,u%=ue2%Oo.o",
".Xo$w11,+#2p,+=+1ywy,+=yy%%%%ye2w%+,y1+%$,y11%Oo%+",
".&=$$*=$X*,,#*r0%=,%O$>,>+0y=%,,%X%1,%%eq%%=%Xo$++",
".&$+o$o.==+++*0=$$$Xo0*+++<1&o%+.&=$++$0=+o$oo$$o.",
"..o.+%$X==*+.+$+O%%X$==$+.+$.+=+o*<*+Xo$$X&%oo&&+.",
"+o..o+.+$oo.++oooOoX+oooo+oo.++o++o+oo+oo.+o.++X..",
"%$*++OX$++.o#*=$o+X+$$..+*=*+++o++o.o$***o+.+$oX.X"
};
