/* XPM */
static char *result[] = {
/* columns rows colors chars-per-pixel */
"50 64 144 2 ",
"   c #06050B",
".  c #09070E",
"X  c #07080D",
"o  c #0A080F",
"O  c #0A0711",
"+  c #0D0A14",
"@  c #0B0619",
"#  c #0F0C1A",
"$  c #110D16",
"%  c #120E1A",
"&  c #180F1B",
"*  c #14111D",
"=  c #19121D",
"-  c #0F0720",
";  c #130C24",
":  c #160D2A",
">  c #180D2A",
",  c #161221",
"<  c #1A1424",
"1  c #1E1826",
"2  c #17122A",
"3  c #1D162A",
"4  c #1E192C",
"5  c #100731",
"6  c #130934",
"7  c #1C0E34",
"8  c #160A3C",
"9  c #1A0C3C",
"0  c #1D1334",
"q  c #1F1A31",
"w  c #1D123A",
"e  c #201625",
"r  c #211826",
"t  c #20172C",
"y  c #23192D",
"u  c #281D2E",
"i  c #211436",
"p  c #231C33",
"a  c #291E34",
"s  c #22143D",
"d  c #261E3A",
"f  c #2A1E3A",
"g  c #252037",
"h  c #2D2134",
"j  c #262039",
"k  c #2B213D",
"l  c #33243B",
"z  c #170A44",
"x  c #1C0C44",
"c  c #1C0C49",
"v  c #1F1242",
"b  c #200D4B",
"n  c #280F4C",
"m  c #221342",
"M  c #281645",
"N  c #271B44",
"B  c #25134A",
"V  c #29154A",
"C  c #2D1A4F",
"Z  c #230E50",
"A  c #290F57",
"S  c #290E59",
"D  c #271253",
"F  c #2A1253",
"G  c #2C135C",
"H  c #311557",
"J  c #301A53",
"K  c #2D2543",
"L  c #2F2846",
"P  c #2F2848",
"I  c #332644",
"U  c #382741",
"Y  c #322945",
"T  c #392942",
"R  c #332A4B",
"E  c #372F52",
"W  c #393155",
"Q  c #2F1463",
"!  c #341564",
"~  c #3B1667",
"^  c #3B1966",
"/  c #35146B",
"(  c #3A166C",
")  c #3D186C",
"_  c #3B1673",
"`  c #3C1971",
"'  c #3E1979",
"]  c #421971",
"[  c #441C7E",
"{  c #471B84",
"}  c #4B1D86",
"|  c #4E1E88",
" . c #521E87",
".. c #511E8A",
"X. c #4D218B",
"o. c #55218D",
"O. c #59208D",
"+. c #542394",
"@. c #5B2393",
"#. c #612696",
"$. c #632896",
"%. c #662898",
"&. c #682A9D",
"*. c #6527A3",
"=. c #6729A3",
"-. c #6C2AA5",
";. c #6D2BA9",
":. c #722DAD",
">. c #6F2CB7",
",. c #6E2CB8",
"<. c #742DB1",
"1. c #742EBB",
"2. c #7A2FBD",
"3. c #7F34B6",
"4. c #7730BD",
"5. c #7B31BE",
"6. c #7D32C1",
"7. c #8335B6",
"8. c #8A37B7",
"9. c #8435BC",
"0. c #8335C3",
"q. c #8936C5",
"w. c #8738C6",
"e. c #8B39C6",
"r. c #8B37C9",
"t. c #8639C8",
"y. c #8D39C9",
"u. c #9039C7",
"i. c #9B3EC3",
"p. c #943CCB",
"a. c #9A3ECE",
"s. c #9C3FD0",
"d. c #A03FD0",
"f. c #9C40CF",
"g. c #9E40D1",
"h. c #A142CF",
"j. c #A443D3",
"k. c #AB45D6",
"l. c #AC48D7",
"z. c #AD47D8",
"x. c #AE48D9",
"c. c #B047D7",
"v. c #B047D8",
"b. c #B249DA",
/* pixels */
"+ + + +     + + O O   * * + + + +   o + + o X + , * + + + O   o + O O   % * % + + +     O + o . . % ",
"+ + + $ . $ $ o O     , , * * * + o $ + + .   O , * # * % + $ $ + o . . % , % * $ % O * $ o .     % ",
"+ + * + O & $ .   + % % * * * * + $ = o   o % % , * * * % + & & o . + % # , * * = $ O & $     o + O ",
"o + + o . + + + * r 3 % * * * $ . + $ $ + < y < # , * * + O + + + % e t * * * * % O + $ o o & = * . ",
"  o o   = r t < % 4 < $ + $ , $ + t p y , < 4 < $ + % , O * y a y % 3 3 * O + * % O < y 4 * + = + o ",
"o $ $ . < y r 3 % , + + , * g * % f p i 3 % ; + % * 3 p + 3 f y p * * % + * * p , $ y p 3 = + +     ",
"  o o o 4 i r 3 % + * p 4 # , $ < f p p r $ % 4 j , * , $ p f p t < + * q g # * $ % p p 3 < + o + + ",
"  $ = & % < 3 * O * p g 3 $ u h , r y i % @ < f d * , h y , y y 3 $ # p d 4 # r a , < r < % o O % # ",
"  & = = + % % O = 1 * , * , U h , % , % + < y , , * u l a $ ; , + $ y < * , * l l 1 + = %   $ & O   ",
"  $ $ O # y < + u l u < + * h 1 % q f , = l l y * $ r g = & a p $ t T a 1 * + y r $ , y , + < e $ + ",
"    X O # , # % < < r < * * * * % 3 3 $ < r r r * , , * $ < 3 < % < y r 1 # ; % % + , < + % % % $ o ",
"* * , * , < % p p 4 * $ k R L K < p 3 t K d 4 # 1 R R R k 1 p < p N p , + g P L L 3 4 < % 3 < +     ",
"* * , , % + , p q 3 $ q P K j j < * + , i < % $ q L j g p ; * + 3 4 , # * K E L K q * $ * 4 , +   $ ",
"+ $ * , $ + < 4 3 , , R P 2 ; ; ; @ ; % # @ ; ; , : ; ; # # ; % @ # ; @ 2 p L g g q * $ < , * + o % ",
"$ $ * * $ e 1 , , # * L P q 6 6 8 6 c c 9 6 8 8 8 6 9 9 5 b b 9 6 8 8 z 7 p j j g g * 4 < * $ X o % ",
"+ $ * * $ u < + # , q d j v D Q ' _ / _ Q / _ / _ ` ` ` / / / / _ / ` G 9 2 j j g 2 * h * + X + $ + ",
"+ + $ + + = * $ r I I 4 p s F @.0.5.e.q.3.q.e.9.e.p.1.9.u.5.5.u.w.9.3.] w q q p y % $ , % # < < * . ",
"X + + X * g j p < k a < # : x ..j.l.z.j.5.k.z.z.u.w.k.k.l.w.p.z.z.j.<.! m < * 1 , O p K a < = , % . ",
"X % $ O r a p y % 3 , % < 0 ! @.f.j.p.j.p.j.0.p.p.w.l.f.f.h.j.q.q.s.:./ V 3 < k p $ h f p < + $ O   ",
"  X o O t p t p , % < N p w ^ o.w.y.p.z.j.j.1.,.0.t.r.r.j.k.k.w.,.2.;./ M : * < ; % k p y < $ . O + ",
"  $ = $ % r i < + , k K 4 i G { r.r.p.b.j.b.y.5.r.y.r.w.j.k.k.g.6.0.;._ B 3 % u l < 1 y 1 * o + * # ",
"  = = = + % , + = y < , 3 f F o.p.2.2.a.2.j.6.0.p.y.r.1.p.0.a.a.2.p.;.! s ; , U l y % , * X $ % o o ",
"  $ $ $ % p < + a T h < % i b o.a.f.u.k.p.v.p.j.a.r.g.p.g.a.k.g.p.k.:.~ i < % a y % < p < + 1 1 $ o ",
"    o X # , % % e r y 3 $ > H  .w.a.e.j.a.z.a.j.w.2.f.e.a.j.k.j.a.s.*.~ m < * * , $ < < + + = + $ o ",
"$ * < * , < , p p q # * g w D X.1.p.>.0.y.6.6.a.0.1.r.0.1.y.q.6.p.q.#.S x 3 R R L 3 4 4 * 3 , #     ",
"* * , , % $ % d q 3 # q R N G o.e.f.4.0.0.5.r.j.f.p.f.q.1.t.1.0.a.j.9.) B p W L K p , # * 4 , #   $ ",
"# $ * * % + < 4 3 3 , R R s D $.f.y.r.r.6.0.p.a.k.x.u.y.t.r.5.r.p.j.i.] v g R g g p * $ < < % + O % ",
"$ $ * , * < < < , # * R Y m F #.q.5.f.p.5.p.a.e.e.a.5.u.a.0.w.a.p.r.9.` v q K g g g < y , * # X O * ",
"+ # * * + u e $ + < p g K s D X.h.c.z.g.0.k.z.z.a.q.v.x.z.q.a.k.z.k.<.` w 4 f g d 4 = a , + . $ $ + ",
"+ + * + o * % % 4 R I y p 0 n O.a.j.p.k.a.h.4.q.e.w.j.p.s.j.j.q.5.a.<.! s p d p p % % * % $ , e % + ",
"X + + X * g j a 1 k j 3 * 0 ^ @.0.y.p.c.j.k.2.1.w.r.y.y.j.z.k.r.1.2.;.! C < % 4 < O p k f < % < $   ",
"X # $ o y g p p * 1 * * < s ! X.t.w.r.c.f.x.r.4.q.y.q.0.j.j.k.d.6.0.:.` V ; < I u % k f p 3 + $ .   ",
"  o o o y p y p , % < f p i ! o.p.9.4.a.5.k.5.r.p.p.e.1.p.0.a.p.6.a.-./ V 3 ; < * , k p i < + o + + ",
"  $ = $ % 3 p < # , k K y s G o.a.h.p.z.p.c.a.j.a.r.h.p.j.s.j.j.s.j.:.) m 3 % u l 1 1 p t * o + % $ ",
"  & e & + % , + * u < < 3 i B | 0.a.9.g.f.k.p.f.6.5.a.r.p.a.j.j.p.a.*.~ w : , T U r # < % o $ $ + O ",
"  $ $ $ % y < + h T h 1 % 0 H o.,.p.,.w.e.5.5.f.0.4.q.0.1.y.w.1.y.y.*.Q M 3 % a u = < p < + e e $ O ",
"    . o # , % # 1 t y 1 * 2 D ..p.j.2.0.0.4.r.j.j.a.j.q.4.r.4.t.a.k.9.~ w , % , * + , < % # % $ $ o ",
"$ = < % , 1 , p p 4 * % g N G $.p.y.r.y.0.0.y.f.j.l.q.e.r.r.5.r.p.d.i.] m 4 R R L 4 4 4 % q < $     ",
"* * , , * # , q q 4 # p R s S #.r.q.a.p.5.a.f.e.r.p.0.p.s.0.q.s.a.r.7./ v p W R L p , # * 3 , $   + ",
"+ $ = , # + , 4 4 < * R R m D ..j.c.k.j.w.z.j.c.a.q.b.z.z.r.s.k.k.k.:.` m f R f g p * # < < % + o * ",
"+ * * * * < < < ; % * R R s F ..p.f.e.k.a.f.1.9.r.t.f.y.s.j.j.9.1.r.<.( 7 p k d g p , y < % % . . * ",
"+ + * * + u 1 + # , y g k w V @.r.y.a.b.j.l.6.1.0.r.y.p.j.v.z.p.6.6.;.A 7 p g k d 1 = h < + . + $ + ",
"+ + * + + = & $ r I I 4 q 0 G X.r.0.0.l.p.k.q.5.r.y.t.6.j.a.j.h.6.0.;.( J p p p p # % * % + , < =   ",
"X O + X * g j y 3 f a 3 * 0 ! o.p.0.5.f.5.k.6.p.p.p.p.1.p.w.a.p.6.f.;.( V : % t , + y h a 3 & , % X ",
". % % o 1 p p p % 1 , % , i ! ..a.s.p.z.a.b.a.k.p.w.g.a.k.s.k.k.f.j.;.] m % < k p # f f p 3 $ $     ",
"  o o + y p t p * % < k p 7 D } 6.a.0.a.a.j.u.s.6.6.a.q.t.s.j.a.p.a.*.) w 0 , < * * l p t 3 $ . + + ",
"  + & % , r y < + ; d K p i D ..1.p.,.0.r.1.0.s.w.1.q.0.,.r.6.1.y.y.=.G 7 3 % y h < 1 p t % O + % % ",
"  & e * O % & @ % p , < < i B o.g.g.6.0.0.6.p.j.k.j.j.r.6.r.6.t.g.k.8.! m , % U T r # , % O $ % O X ",
"  $ $ + # y < # p l a < $ ; G [ @.+.X.X.{ { | o.&.=.+.+.} } { { X.@.%.` v , $ g y % , d , + e e % o ",
"    . . * , * # 1 u y 3 = 0 x c c z c D c 8 z c c z c z 6 Z Z c 8 z c c v * * * * # , < $ + = $ $ o ",
"% % = % , , ; p p 4 % % d q @ 2 : @ : : - - ; : - @ : > # : 2 - @ ; ; : 2 2 P L K < 4 < * 3 , $     ",
"* = , , # # * p 4 < # q P q , , # # O , , , % + < p 1 < , * + + , , * + # g E L L p , % * 3 ; +   + ",
"% $ * * $ + < 4 2 1 * L W K j j g * * q i p , 4 W W k j j 2 $ < a q 3 % k W L g q q , # < < % $ o = ",
"+ $ * * $ < < , , % # K P d p d p < u 1 < , % 1 E L j j j 4 y u 3 3 ; % j E j g p q * 1 , % $ O o % ",
"+ * * * $ r 1 $ + * 1 g K p j p 1 < h = # $ 3 t k k j j g * g u $ # % r 4 k p p p 3 * u , O . + + + ",
"+ + $ O + * $ + 1 k k 2 q 4 q 4 + * * * * g R p 4 q q q < + * * % , K I 4 p 4 4 4 # $ * % + & e = o ",
". O O . , p p t , g p , + % < ; + p k k r p f y % # , 3 + % h h f < a f < % % , , + < a p < % , $   ",
". $ % o 3 p t 4 % < % # , , h , ; l a p 3 ; < # % , y a % 4 I p p ; < % + , % a < # a p 3 < + $ .   ",
"  . O O t t r r * + % y p % , + , f p t r # + , p < % & # p a i y , + % 3 p % * % $ a t 3 < + . + $ ",
"  + & $ $ , , * o # 1 q ; $ < r % 3 < < % + , p 4 % % y , % 3 r , $ + 3 p < # , e % & e , % . O % + ",
"  $ & $   $ +   + = $ $ + $ u y $ + $ +   = = $ % + , u = + $ % . + = % + + + y r & + $ +   + $ o   ",
"  + + + o = $ o = e = + o o = $ o % = + o e = $ O . $ = $ + % % o $ e = $ O . = $ + + & + . & & $ . ",
"  .     o + O . + + $ +     o   . + +   o $ $ $ o   o o . o $ +   + $ $ + X   o . . + + . . $ O o . ",
"$ $ + + + + . + $ o     $ = % $ . + + + $ + o     % * % + O + . + $ o X   + * $ $ o + + . $ + .     "
};
