/* XPM */
static char *result[] = {
/* columns rows colors chars-per-pixel */
"35 55 200 2 ",
"   c #231417",
".  c #221517",
"X  c #231619",
"o  c #251719",
"O  c #261719",
"+  c #24171A",
"@  c #25171A",
"#  c #26171A",
"$  c #251819",
"%  c #261819",
"&  c #24181A",
"*  c #25181A",
"=  c #25181B",
"-  c #27181A",
";  c #25181E",
":  c #28191A",
">  c #281B1B",
",  c #291B1B",
"<  c #28191F",
"1  c #2B1C1C",
"2  c #2C1D1C",
"3  c #2F201D",
"4  c #31221E",
"5  c #31221F",
"6  c #32241E",
"7  c #34251F",
"8  c #271824",
"9  c #2C1E20",
"0  c #2D1E20",
"q  c #281A29",
"w  c #2A1B2B",
"e  c #2E1D39",
"r  c #252023",
"t  c #252527",
"y  c #2E2024",
"u  c #292A2F",
"i  c #362522",
"p  c #372524",
"a  c #362525",
"s  c #3A2726",
"d  c #372920",
"f  c #382A22",
"g  c #392A23",
"h  c #3C2D25",
"j  c #3C2E26",
"k  c #312629",
"l  c #30242A",
"z  c #352829",
"x  c #372B2D",
"c  c #3B2B29",
"v  c #3B2B2B",
"b  c #3E2B29",
"n  c #3F3027",
"m  c #312539",
"M  c #31213F",
"N  c #263134",
"B  c #293B3D",
"V  c #3D3236",
"C  c #3F3639",
"Z  c #3D3E3F",
"A  c #43322A",
"S  c #40312D",
"D  c #47352C",
"F  c #453332",
"G  c #4D3533",
"H  c #523B33",
"J  c #523C33",
"K  c #584037",
"L  c #5D423A",
"P  c #60453B",
"I  c #61473E",
"U  c #60463F",
"Y  c #63493D",
"T  c #67493E",
"R  c #312142",
"E  c #35244B",
"W  c #362A48",
"Q  c #3D314C",
"!  c #392659",
"~  c #3F2E5E",
"^  c #333352",
"/  c #3D2864",
"(  c #483F43",
")  c #493E49",
"_  c #4D3C6E",
"`  c #442E77",
"'  c #483570",
"]  c #48327C",
"[  c #2A4245",
"{  c #2D4B4D",
"}  c #2A5356",
"|  c #2E585D",
" . c #3F5252",
".. c #2F676B",
"X. c #306164",
"o. c #306467",
"O. c #306D72",
"+. c #337477",
"@. c #33777B",
"#. c #317A7D",
"$. c #474245",
"%. c #4E4447",
"&. c #504953",
"*. c #5C5153",
"=. c #5A555C",
"-. c #694C40",
";. c #684D43",
":. c #6A4F45",
">. c #6B5046",
",. c #705246",
"<. c #725349",
"1. c #745649",
"2. c #7B594B",
"3. c #795A4E",
"4. c #7D5B4D",
"5. c #6A5752",
"6. c #6E5B56",
"7. c #60585D",
"8. c #7D5D50",
"9. c #7C6054",
"0. c #73615A",
"q. c #5A4E65",
"w. c #554768",
"e. c #665C72",
"r. c #446160",
"t. c #507C7A",
"y. c #676264",
"u. c #69686B",
"i. c #7D6A63",
"p. c #767068",
"a. c #6B657A",
"s. c #68607C",
"d. c #716F76",
"f. c #835D4E",
"g. c #836355",
"h. c #876355",
"j. c #886152",
"k. c #886556",
"l. c #8B6758",
"z. c #8E6A5B",
"x. c #906656",
"c. c #926757",
"v. c #946858",
"b. c #916D5D",
"n. c #936E5E",
"m. c #886D62",
"M. c #8D746A",
"N. c #977160",
"B. c #9A7464",
"V. c #9D7664",
"C. c #817376",
"Z. c #8A7974",
"A. c #927D79",
"S. c #A07766",
"D. c #A17867",
"F. c #A17967",
"G. c #A47B69",
"H. c #A57C6A",
"J. c #A77D6B",
"K. c #A17F6F",
"L. c #AA7F6D",
"P. c #8E817F",
"I. c #81897F",
"U. c #9E8475",
"Y. c #A7806E",
"T. c #AB806E",
"R. c #AC816E",
"E. c #AD826F",
"W. c #AE8370",
"Q. c #4C358A",
"!. c #4F3791",
"~. c #513897",
"^. c #5F5187",
"/. c #564291",
"(. c #847A8B",
"). c #328083",
"_. c #378487",
"`. c #368A8D",
"'. c #3A898A",
"]. c #378E91",
"[. c #389194",
"{. c #389497",
"}. c #399598",
"|. c #39969A",
" X c #439596",
".X c #678F8A",
"XX c #958986",
"oX c #908588",
"OX c #958D98",
"+X c #9C9295",
"@X c #A49997",
"#X c #A49BA5",
"$X c #A89FA5",
"%X c #B3ACB2",
"&X c #B8B0B1",
"*X c #BAB2B8",
"=X c #C4BCC0",
"-X c #C8C0C3",
";X c #D0CACC",
":X c None",
/* pixels */
":X:X:X:X:X:X:X:X:X:X:X:X:X:X:X:X:X:X:X:X:X:X:X:X:X:X:X:X:X:X:X:X:X:X:X",
":X:X:X:X:X:X:X:X:X:X:X:X:X:X:X:X:X:X:X:X:X:X:X:X:X:X:X:X:X:X:X:X:X:X:X",
":X:X:X:X:X:X:X:X:X:X:X:X:X:X:X:X:X:X:X:X:X:X:X:X:X:X:X:X:X:X:X:X:X:X:X",
":X:X:X:X:X:X:X:X:X:X:X:X:X:X:X:X:X:X:X:X:X:X:X:X:X:X:X:X:X:X:X:X:X:X:X",
":X:X:X:X:X:X:X:X:X:X:X:X:X:X:X:X:X:X:X:X:X:X:X:X:X:X:X:X:X:X:X:X:X:X:X",
":X:X:X:X% O O O % % O O O O , , , y y y y y 9 9 % , O O O O % & :X:X:X",
":X:X:XX o 2 4 4 5 6 7 6 2 > g h h j j j j j j g g g g g g 7 1 + :X:X:X",
":X:X:XX o 4 d d d d d d 3 > h n n A D n 3 f D D D h 4 A A h 1 = :X:X:X",
":X:X:XX o 4 d f f f f d 3 > h n D -.>.g   K 1.1.1.Y 3 A Y A 1 . :X:X:X",
":X:X:X:Xo 6 d d d d d d 3 > h n H b.B.D D n.G.G.J.N.H H k.D 1 . :X:X:X",
":X:X:X:Xo 7 d d d d d d 4 2 D D P S.G.,.z.R.E.E.W.E.N.1.n.K 1 . :X:X:X",
":X:X:X:Xo 7 d d h D D f 4 g 8.k.b.J.n.<.8.F.E.E.W.L.J.H.J.k.S . :X:X:X",
":X:X:X:Xo 7 d d L 2.,.n 4 D V.J.L.B.Y *.6.9.N.G.b.g.1.8.V.G.J & :X:X:X",
":X:X:X:Xo 7 d f T c.f.n 3 D H.W.R.g.0.@X$X@Xm.g.A.@XXX0.1.S.P @ :X:X:X",
":X:X:X:X- 6 d d Y x.f.D f H H.E.J.8.@X%X#X=X+X5.%X;X&X+X5.l.I :X:X:X:X",
":X:X:X:X$ 6 d d P x.j.-.K -.J.E.F.i.-Xs.Q +X=Xu.;X$XC.*XXX8.I :X:X:X:X",
":X:X:X:Xo 5 d d P x.c.x.f.4.L.E.F.i.=Xe.R (.-Xy.&Xe.W OX$X8.I :X:X:X:X",
":X:X:X:Xo 5 d d T x.v.c.f.8.L.E.J.g.+X$XoX*X+X>.P.OX(.$XZ.z.I :X:X:X:X",
":X:X:X:Xo 5 d f T x.v.c.f.4.L.E.E.B.m.P.XXoX6.1.6.C.C.Z.m.D.;.:X:X:X:X",
":X:X:X:Xo 5 d d Y x.v.c.f.4.L.E.E.R.N.m.M.9.>.8.1.g.m.b.S.T.:.:X:X:X:X",
":X:X:X:Xo 5 d f P x.v.c.4.4.L.E.E.W.W.J.V.b.g.g.l.S.L.W.W.R.:.:X:X:X:X",
":X:X:X:X* i D D -.x.v.c.4.4.L.E.E.W.E.E.G.N.l.l.l.N.J.E.W.T.:.:X:X:X:X",
":X:X:X:X$ H 2.2.j.c.v.c.4.4.L.E.W.W.E.J.2.P L L L T n.E.W.T.:.:X:X:X:X",
":X:X:X:X, L x.x.c.c.c.c.4.4.L.E.W.W.E.L.k.1.1.1.2.8.S.E.E.L.P :X:X:X:X",
":X:X:X:X- L v.v.v.v.v.v.4.2.L.W.W.W.W.E.G.S.V.V.S.F.R.W.W.J.J @ :X:X:X",
":X:X:X:Xo K j.k.j.j.f.j.,.,.F.L.L.L.T.T.E.W.W.W.W.W.T.L.L.V.S & :X:X:X",
":X:X:X:Xo A -.-.T P K L H K 8.g.k.k.l.l.l.l.z.l.z.z.k.g.g.3.p @ :X:X:X",
":X:X:X:XO o 1 3 > > # # > > 4 i i i i f f c c c c c c i 6 0 o :X:X:X:X",
":X:X:X:XX + < 5 #             # > r u B [ [ B N B } | Z 5 * & :X:X:X:X",
":X:X:X:X:X# G >.z > r u N B [ } | X.O.@.#.#...} O._._.p.,.F : :X:X:X:X",
":X:X:X:X:Xo <.B.$.[ | o...+.#._.`.[.{.|.|.|.)...]. X.XU.F.,.1 = :X:X:X",
":X:X:X:X:X< h.K.r.O.].{.|.|.|.|.|.|.}.}.{.{.)...]..XU.W.W.8.0 & :X:X:X",
":X:X:X:X:Xa h.K.r.#.{.{.{.{.{.}.}.}.}.{.{.{.`.O.'.I.E.E.J.I # :X:X:X:X",
":X:X:X:X:X:X9.Y.u.#.{.{.{.{.{.{.{.{.}.{.{.{.[.#.t.U.E.E.z.s :X:X:X:X:X",
":X:X:X:X:X:X;.V.y.+.}.|.|.}.}.}.}.}.}.}.|.|.}._. .b.W.D.U :X:X:X:X:X:X",
":X:X:X:X:X:Xv L C | )._.`.].[.{.{.{.[.].[.[.[.'.[ K g.<.a :X:X:X:X:X:X",
":X:X:X:X:X:X= : o N { } | ..O.O.O.O...o.X.o.o.o.B 2 F b :X:X:X:X:X:X:X",
":X:X:X:X:X:X:X:X@ o w e E Q ^ ^ ^ ^ u r r r r t r o ; :X:X:X:X:X:X:X:X",
":X:X:X:X:X:X:X:X:X0 / ] Q.Q.Q.Q.Q.] R         # # * :X:X:X:X:X:X:X:X:X",
":X:X:X:X:X:X:X:X; ! Q.~.~.~.~.~.~.` w       8 e R % :X:X:X:X:X:X:X:X:X",
":X:X:X:X:X:X:X# m ] ~.~.~.~.~.~.~./ # # w e ! / / e + :X:X:X:X:X:X:X:X",
":X:X:X:X:X:X. l &.^./.~.~.~.~.~.Q.R w e ! / ` ] _ Q 9 :X:X:X:X:X:X:X:X",
":X:X:X:X:X:XO C u.a.^./.~.~.~.!.~ q E / ` ` ' _ q.*.z : :X:X:X:X:X:X:X",
":X:X:X:X:X:XO C u.d.a.^./.~.~.] y ; ! ` ` _ w.7.7.*.x O :X:X:X:X:X:X:X",
":X:X:X:X:X:X. 9 %.u.d.d.s./.Q.E :X:XM ' w.=.7.7.&.S * . :X:X:X:X:X:X:X",
":X:X:X:X:X:X:X:Xk ) y.d.d.s.~ < :X:X; ) 7.7.*.$.v & :X:X:X:X:X:X:X:X:X",
":X:X:X:X:X:X:X:X:X:X( =.u.=.l @ :X:XX x %.$.F k :X:X:X:X:X:X:X:X:X:X:X",
":X:X:X:X:X:X:X:X:X:X:XV %.C o :X:X:X:X* z 9 = :X:X:X:X:X:X:X:X:X:X:X:X",
":X:X:X:X:X:X:X:X:X:X:X:X: $ @ :X:X:X:X+ o . :X:X:X:X:X:X:X:X:X:X:X:X:X",
":X:X:X:X:X:X:X:X:X:X:X:X:XX :X:X:X:X:X:X:X:X:X:X:X:X:X:X:X:X:X:X:X:X:X",
":X:X:X:X:X:X:X:X:X:X:X:X:X:X:X:X:X:X:X:X:X:X:X:X:X:X:X:X:X:X:X:X:X:X:X",
":X:X:X:X:X:X:X:X:X:X:X:X:X:X:X:X:X:X:X:X:X:X:X:X:X:X:X:X:X:X:X:X:X:X:X",
":X:X:X:X:X:X:X:X:X:X:X:X:X:X:X:X:X:X:X:X:X:X:X:X:X:X:X:X:X:X:X:X:X:X:X",
":X:X:X:X:X:X:X:X:X:X:X:X:X:X:X:X:X:X:X:X:X:X:X:X:X:X:X:X:X:X:X:X:X:X:X",
":X:X:X:X:X:X:X:X:X:X:X:X:X:X:X:X:X:X:X:X:X:X:X:X:X:X:X:X:X:X:X:X:X:X:X"
};
