/* XPM */
static char *_8f6286026c6486881a88ed98ce3b095h2jlF9ahWxA2ReL5[] = {
/* columns rows colors chars-per-pixel */
"41 64 194 2 ",
"   c None",
".  c #221316",
"X  c #24161A",
"o  c #26191B",
"O  c #2A1B1C",
"+  c #301D1F",
"@  c #2F211F",
"#  c #261D22",
"$  c #2A1C22",
"%  c #311F21",
"&  c #2A1C35",
"*  c #301F3C",
"=  c #252126",
"-  c #2C2224",
";  c #2B2A2C",
":  c #27282C",
">  c #322222",
",  c #392626",
"<  c #372824",
"1  c #3B2C25",
"2  c #322A2C",
"3  c #3E2B29",
"4  c #312528",
"5  c #3E3027",
"6  c #3F3128",
"7  c #292934",
"8  c #292A33",
"9  c #382A3A",
"0  c #293A3E",
"q  c #283538",
"w  c #353334",
"e  c #3E3439",
"r  c #422D2C",
"t  c #43332B",
"y  c #49392F",
"u  c #48312E",
"i  c #4B3531",
"p  c #4D3932",
"a  c #40373B",
"s  c #463838",
"d  c #523C35",
"f  c #5A3F35",
"g  c #593E38",
"h  c #544135",
"j  c #5A443A",
"k  c #5F483C",
"l  c #50403A",
"z  c #62453E",
"x  c #63493C",
"c  c #332142",
"v  c #36244C",
"b  c #392B48",
"n  c #2B3E42",
"m  c #392654",
"M  c #392855",
"N  c #3B2759",
"B  c #3C285C",
"V  c #3E2A61",
"C  c #463E42",
"Z  c #402E5E",
"A  c #422D6A",
"S  c #442F73",
"D  c #48327E",
"F  c #463277",
"G  c #2B4245",
"H  c #29474B",
"J  c #2C4D51",
"K  c #274C50",
"L  c #2D5A5D",
"P  c #2F5356",
"I  c #334D4E",
"U  c #2E5E62",
"Y  c #315E61",
"T  c #2B6669",
"R  c #306164",
"E  c #31686B",
"W  c #296E70",
"Q  c #336F72",
"!  c #2D7A7D",
"~  c #2A7376",
"^  c #337174",
"/  c #337779",
"(  c #387B7D",
")  c #4D454B",
"_  c #484445",
"`  c #594943",
"'  c #554E53",
"]  c #545353",
"[  c #5C5757",
"{  c #4C4255",
"}  c #654C42",
"|  c #6C4D44",
" . c #704F46",
".. c #6E5247",
"X. c #6A554D",
"o. c #65524B",
"O. c #725449",
"+. c #74594D",
"@. c #7A5A4D",
"#. c #6C5B56",
"$. c #7C5E52",
"%. c #755A50",
"&. c #7F6155",
"*. c #78635C",
"=. c #554B66",
"-. c #554A66",
";. c #605C60",
":. c #635A73",
">. c #635978",
",. c #537672",
"<. c #666369",
"1. c #6C6A6F",
"2. c #756763",
"3. c #6E6B72",
"4. c #6D667C",
"5. c #6A6577",
"6. c #716F79",
"7. c #706F75",
"8. c #727176",
"9. c #727179",
"0. c #805D4F",
"q. c #815E52",
"w. c #836254",
"e. c #886757",
"r. c #856659",
"t. c #87685B",
"y. c #8D6A5B",
"u. c #886558",
"i. c #926D5E",
"p. c #94705F",
"a. c #806E68",
"s. c #956F60",
"d. c #83736D",
"f. c #957161",
"g. c #9B7564",
"h. c #9F7A69",
"j. c #897A75",
"k. c #8B7F7B",
"l. c #A17867",
"z. c #A47C6A",
"x. c #A97F6C",
"c. c #7C857B",
"v. c #88857A",
"b. c #9C8576",
"n. c #918077",
"m. c #AC826F",
"M. c #AE8370",
"N. c #A78573",
"B. c #B18571",
"V. c #4D368D",
"C. c #4C3785",
"Z. c #4F3791",
"A. c #4F3892",
"S. c #523B96",
"D. c #523A99",
"F. c #503A88",
"G. c #2D7D81",
"H. c #337F82",
"J. c #59478F",
"K. c #564585",
"L. c #584491",
"P. c #564294",
"I. c #675D82",
"U. c #6A6381",
"Y. c #756C82",
"T. c #867D91",
"R. c #368385",
"E. c #36898D",
"W. c #378789",
"Q. c #388F91",
"!. c #378F92",
"~. c #399396",
"^. c #3A9598",
"/. c #578D8A",
"(. c #4E8B89",
"). c #6A8A84",
"_. c #738B82",
"`. c #988D8B",
"'. c #938885",
"]. c #958C98",
"[. c #9E9698",
"{. c #8D8595",
"}. c #A49997",
"|. c #9E96A2",
" X c #A69CA2",
".X c #ADA3A2",
"XX c #ABA2AD",
"oX c #B4ABAB",
"OX c #B7AFB7",
"+X c #BEB6BD",
"@X c #BCB5B8",
"#X c #C1BAB8",
"$X c #CAC3C6",
"%X c #D7D1D1",
/* pixels */
"                                                                                  ",
"                                                                                  ",
"                                                                                  ",
"                                                                                  ",
"                                                                                  ",
"              X X X X X X o O O O O O o o o o . X X . . X o X X X X               ",
"              X X O o O O @ > < < @ @ O O O o O O o o o O o O o o X X             ",
"            X X O < 1 1 1 6 6 6 6 6 6 6 5 1 1 5 1 1 < 1 1 < 1 1 > o o             ",
"              o < t 6 6 6 6 6 6 6 6 6 5 5 5 6 5 5 5 5 5 5 t 6 6 < o .             ",
"              O < 6 6 y h h h h h h h j j j k x k k j j h t 6 6 < o O             ",
"              O < 6 t k e.e.e.e.r.e.y.y.y.i.i.p.p.y.i.y.&.h 6 6 < X               ",
"              O < 6 t ..m.B.B.m.M.M.M.M.B.B.B.B.B.B.B.B.p.h 6 5 < O               ",
"              O t y h +.m.m.m.m.m.m.M.m.m.m.m.h.m.m.m.m.g.} y y r O               ",
"              r ..&.&.p.m.m.m.z.z.z.m.m.m.m.e.X...y.m.m.z.y.$.@.x >               ",
"              u i.m.m.m.m.m.h.w...+.r.h.m.&.o.k l x p.B.M.m.x.x.i.u               ",
"              y i.m.m.m.m.z.X.k 2.v.j.&.w.2..X#X`.X.&.m.M.M.B.B.i.i               ",
"              p s.B.m.x.x.i.o.'.#X%X#Xd.*.oX+X+XoX`.%.z.M.M.m.M.s.i               ",
"              d s.B.M.B.z.q.k.oXXXOX$X[.v.$XT.:.].oX*.z.x.M.m.M.i.i               ",
"              d s.B.M.m.z.r..X|.=.>.XX}.[.+X-.& Y.@Xa.g.x.M.M.M.s.i               ",
"              i i.B.x.B.z.t.}.].=.>.].j.'.@X4.-.{..X*.h.M.M.x.B.s.i               ",
"              u i.x.M.M.x.f.j. X X[.`.X.#.oXXXXX X'.q.x.M.B.m.B.i.u               ",
"              3 y.m.m.B.m.z.r.*.2.2.X.X.| #.`.`.a.$.l.m.x.x.M.m.i.i               ",
"              , w.m.B.m.m.m.z.f.a.u.&.%.X.| X.*.y.l.M.x.B.M.m.m.y.r               ",
"              > $.x.M.m.m.M.M.x.z.z.y.r.&.w.y.g.x.x.M.M.B.x.B.x.r.,               ",
"              > q.x.M.m.M.M.M.B.m.z.g.i.y.p.z.B.B.B.m.B.M.m.B.x.$.>               ",
"              > @.x.B.m.M.M.m.m.g.w.O.@.@.0.0.g.m.m.m.m.M.M.M.z.@.O               ",
"              O @.z.M.m.M.M.M.M.p.x f f f f z y.m.M.m.M.M.m.B.z.O.O               ",
"              O O.z.B.m.M.M.M.M.l.y.0.0.0.0.q.l.m.m.M.M.m.m.B.z.O.O               ",
"              O O.l.B.m.M.M.m.m.B.x.x.x.x.B.x.x.m.m.m.m.B.m.B.l.| O               ",
"              O  .z.B.M.M.M.M.M.B.B.B.x.B.B.B.B.B.m.B.m.m.m.B.l.| o               ",
"              O | g.M.m.x.m.m.m.x.x.x.x.z.l.x.x.m.m.m.m.m.m.m.f.} X               ",
"              X u } | | O. .O.| | | | } z z z z |  .|  . .| x g 3 .               ",
"            X o @ - > - + > > > O @ O O o @ - ; w w w w 2 ; ; ; O O .             ",
"          $ r d _ I q o . . . . X @ = : q G J L L U T L H G J P _ g , O           ",
"          , $.l.c.(.T : X o = : 0 J R ^ H.W.!.~.^.^.^.!.W W W./.v.g...>           ",
"          r y.M.b././ K 0 H Y ^ W.!.~.~.^.^.~.~.^.~.~.!.W ~ Q.).N.m.O.>           ",
"          3 q.x.m._.( W ! E.Q.~.~.^.^.^.~.^.^.^.~.~.^.~.! ! (.v.M.z.| >           ",
"          > | z.M.v.,.W E.^.^.^.^.^.~.~.^.~.^.~.^.^.~.~.! R.c.n.B.l.j             ",
"            j h.m.b.,.W E.^.^.^.^.^.^.^.^.^.^.^.^.~.~.~.! ( c.M.x.f.i             ",
"            y f.B.h.#.L W.~.~.~.~.^.~.^.~.^.~.~.^.~.^.~./ ,.k.B.x.y.r             ",
"            , q.f.$.i n R.^.^.^.^.^.~.~.^.^.^.~.^.~.^.Q.T ] u.x.g.| %             ",
"            O d g 3 X q ( Q.!.~.~.~.~.Q.~.Q.Q.Q.Q.~.^.!.K 4 d $.+.r O             ",
"            X X o X X ; P R R E ^ ^ ^ Q Q ^ E L Q E.^.Q.J # o % % O               ",
"                      O # = = = : : 8 : 7 7 : $ G R.^.Q.H =     X X               ",
"                      & m m N m Z A N & v A A * n / R.Q 0 #                       ",
"                      v D V.V.V.V.Z.S * B Z.Z.N 7 n G q # o                       ",
"                      v V.D.D.D.D.D.F c B Z.D.S m m m c $ X                       ",
"                      v V.D.D.D.D.D.D c A Z.D.Z.V.V.V.D * #                       ",
"                      v Z.S.S.S.D.D.C.m A S.D.D.D.D.D.V.c o                       ",
"                    - b K.J.J.L.L.P.C.Z F F.P.S.S.P.S.F.c $                       ",
"                    O b 5.4.4.4.4.U.>.C =.>.U.I.I.I.I.>.e #                       ",
"                    o a 1.8.8.8.8.9.5.) [ 3.9.6.6.6.6.3.e $                       ",
"                    o e <.3.7.8.8.8.;.s ) 3.3.3.3.3.1.<.e O                       ",
"                    o 4 a ) ) ' [ ' C $ w ) ) ) C _ C C 4 o                       ",
"                      o o O O 4 2 2 $ X O > $ O o o o o X X                       ",
"                                                                                  ",
"                                                                                  ",
"                                                                                  ",
"                                                                                  ",
"                                                                                  ",
"                                                                                  ",
"                                                                                  ",
"                                                                                  ",
"                                                                                  "
};
