/* XPM */
static char *result[] = {
/* columns rows colors chars-per-pixel */
"35 55 186 2 ",
"   c #221417",
".  c #241619",
"X  c #26191A",
"o  c #2B1C1C",
"O  c #2F201E",
"+  c #32231F",
"@  c #251C22",
"#  c #2A1C23",
"$  c #2A1B2B",
"%  c #2E1E38",
"&  c #2D1D35",
"*  c #301F3C",
"=  c #252224",
"-  c #2F2225",
";  c #2B272D",
":  c #342422",
">  c #372920",
",  c #3A2B24",
"<  c #362A2C",
"1  c #3C2B29",
"2  c #30242E",
"3  c #3F3027",
"4  c #282D33",
"5  c #31233C",
"6  c #2A3B3D",
"7  c #263335",
"8  c #3C3335",
"9  c #3D3E3F",
"0  c #402D29",
"q  c #403027",
"w  c #44332B",
"e  c #49362E",
"r  c #42363A",
"t  c #42383B",
"y  c #4B3532",
"u  c #533C34",
"i  c #583E36",
"p  c #5C4137",
"a  c #5D433A",
"s  c #564137",
"d  c #61463D",
"f  c #64493E",
"g  c #694A3E",
"h  c #312242",
"j  c #35244B",
"k  c #362A48",
"l  c #3A304A",
"z  c #3A275B",
"x  c #3B2A57",
"c  c #343452",
"v  c #3D2964",
"b  c #3F2A68",
"n  c #463B48",
"m  c #40335A",
"M  c #4B396E",
"N  c #442D78",
"B  c #442E75",
"V  c #463176",
"C  c #47327C",
"Z  c #493576",
"A  c #2C4244",
"S  c #2A484A",
"D  c #2C5255",
"F  c #2E595B",
"G  c #2B575A",
"H  c #3F5252",
"J  c #325A65",
"K  c #2B676A",
"L  c #2D696C",
"P  c #316366",
"I  c #33656B",
"U  c #31696C",
"Y  c #2C6E71",
"T  c #336C73",
"R  c #2E7679",
"E  c #327275",
"W  c #327B7E",
"Q  c #33767A",
"!  c #4A4145",
"~  c #484748",
"^  c #564B4C",
"/  c #5B5255",
"(  c #5B555C",
")  c #5F585C",
"_  c #4D4758",
"`  c #654B41",
"'  c #6A4D42",
"]  c #6D5146",
"[  c #655049",
"{  c #725246",
"}  c #74554A",
"|  c #7C5B4D",
" . c #6A5753",
".. c #61595D",
"X. c #6A5B57",
"o. c #725C55",
"O. c #7E5D51",
"+. c #6F605A",
"@. c #7B6156",
"#. c #77625B",
"$. c #52436B",
"%. c #584C66",
"&. c #5F5660",
"*. c #675E77",
"=. c #456261",
"-. c #507C7A",
";. c #6D676A",
":. c #676668",
">. c #7D6B64",
",. c #767068",
"<. c #6B647B",
"1. c #706F76",
"2. c #727176",
"3. c #835D4E",
"4. c #835D50",
"5. c #885F51",
"6. c #856355",
"7. c #8B6455",
"8. c #8B6758",
"9. c #8D6A5B",
"0. c #806358",
"q. c #916757",
"w. c #916758",
"e. c #936A5A",
"r. c #97705F",
"t. c #876E65",
"y. c #8A6D61",
"u. c #977261",
"i. c #9D7564",
"p. c #9F7867",
"a. c #8A7A75",
"s. c #817376",
"d. c #927D79",
"f. c #8D746A",
"g. c #A07766",
"h. c #A17967",
"j. c #A57C6A",
"k. c #A97F6D",
"l. c #88857F",
"z. c #9D8475",
"x. c #AC826F",
"c. c #A7806E",
"v. c #AE8370",
"b. c #A18676",
"n. c #4A3484",
"m. c #4C368A",
"M. c #4F3791",
"N. c #513996",
"B. c #523998",
"V. c #307F82",
"C. c #59478C",
"Z. c #5E5089",
"A. c #554092",
"S. c #635785",
"D. c #847B8B",
"F. c #338285",
"G. c #358588",
"H. c #368A8D",
"J. c #3F898A",
"K. c #388E91",
"L. c #378F91",
"P. c #389396",
"I. c #399599",
"U. c #379294",
"Y. c #5D8F8C",
"T. c #438D8E",
"R. c #708E87",
"E. c #8D8387",
"W. c #948987",
"Q. c #968784",
"!. c #9C908E",
"~. c #958D98",
"^. c #9C9193",
"/. c #9E969C",
"(. c #A69996",
"). c #A69EA3",
"_. c #A89FA5",
"`. c #A9A0AA",
"'. c #B3ACB2",
"]. c #B8B0B1",
"[. c #BAB2B8",
"{. c #C5BDBF",
"}. c #C3BBC1",
"|. c #CAC3C5",
" X c #D1CACC",
".X c None",
/* pixels */
".X.X.X.X.X.X.X.X.X.X.X.X.X.X.X.X.X.X.X.X.X.X.X.X.X.X.X.X.X.X.X.X.X.X.X",
".X.X.X.X.X.X.X.X.X.X.X.X.X.X.X.X.X.X.X.X.X.X.X.X.X.X.X.X.X.X.X.X.X.X.X",
".X.X.X.X.X.X.X.X.X.X.X.X.X.X.X.X.X.X.X.X.X.X.X.X.X.X.X.X.X.X.X.X.X.X.X",
".X.X.X.X.X.X.X.X.X.X.X.X.X.X.X.X.X.X.X.X.X.X.X.X.X.X.X.X.X.X.X.X.X.X.X",
".X.X.X.X.X.X.X.X.X.X.X.X.X.X.X.X.X.X.X.X.X.X.X.X.X.X.X.X.X.X.X.X.X.X.X",
".X.X.X. . X X X X o X o o O - : : O o o o X X X X X X . . . . .X.X.X.X",
".X.X.XX X + , , , , , , 1 3 1 3 3 3 , 3 , o o + + + + O + o . .X.X.X.X",
".X.X.X. + , w w + 3 w w w , O 1 w w 3 3 , o O > + + , > + + .   .X.X.X",
".X.X.X. o w f w O a } } } s . , g f w 3 , o + + 3 + > , > + X .X.X.X.X",
".X.X.X  o e 6.u s u.j.c.j.e.e e p.9.s , , O + , , , > > > + o .X.X.X.X",
".X.X.X  O s r.} u.x.v.x.x.x.9.] c.r.a s w O + + + , + > + + X .X.X.X.X",
".X.X.X. 3 8.j.j.c.c.v.x.v.h.3.{ r.c.e.7.| , + + e e q , 3 + X .X.X.X.X",
".X.X.XX u j.i.3.} 6.e.j.r.o.X./ f r.c.c.r.w + q g 3.a + + + O .X.X.X.X",
".X.X.XX a p.} #.Q.(.d.0.t.(._./.+.6.x.v.c.w + q 5.e.g > , + X .X.X.X.X",
".X.X.X.Xf 8. .^.]. X].X.!.}.).'.(.@.c.x.c.s , e 3.q.f , + + X .X.X.X.X",
".X.X.X.X` | W.[.s.`. X;.{./.l *.|.t.r.x.c.g p g 7.q.f + 3 + X .X.X.X.X",
".X.X.X.X` @.(.~.k *.].:.|.D.h *.{.,.h.x.x.| 3.q.q.q.g + + + o .X.X.X.X",
".X.X.X.X` 9.a.).D.~.d.[ ^.[.E.`.!.@.c.x.c.3.3.q.q.q.g , , + X .X.X.X.X",
".X.X.X.X` i.y.a.s.s.X.} o.Q.W.l.y.i.x.x.x.| 3.q.q.q.g + + + X .X.X.X.X",
".X.X.X.X' k.h.e.9.6.} O.] @.f.9.r.x.x.x.c.| 3.q.q.q.g + > + X .X.X.X.X",
".X.X.X.X' c.v.v.c.p.8.6.7.9.p.j.x.x.x.x.x.| | q.e.q.g + > O X .X.X.X.X",
".X.X.X.X] x.v.v.j.r.8.8.9.r.h.x.x.v.v.x.c.| | q.q.q.g e e > X .X.X.X.X",
".X.X.X.X] c.x.x.u.g a a a d | k.x.v.v.x.x.| | q.e.q.6.| | u X .X.X.X.X",
".X.X.X.Xd c.x.x.p.| } | } } 7.c.x.v.v.x.c.3.| q.q.q.q.q.7.a X .X.X.X.X",
".X.X.XX u j.v.v.x.h.p.h.i.h.j.x.v.v.v.v.c.| | q.e.e.q.e.q.d   .X.X.X.X",
".X.X.X. w i.k.k.x.x.x.x.v.x.x.c.k.k.k.k.h.{ { 3.5.5.5.q.q.i o .X.X.X.X",
".X.X.X. : | 6.6.8.9.9.8.e.9.8.8.8.7.7.6.O.s u p d d g g g w X .X.X.X.X",
".X.X.X.X. : : : < 1 1 1 , 1 , , : : > + + o O X   o o o O X . .X.X.X.X",
".X.X.X.X. . # 9 F G 6 7 6 A A 6 ; = o X             X #   X . .X.X.X.X",
".X.X.X.XX e ] ,.J.H.Y G U W W Q T P G D S k 7 = @ o < ] y X .X.X.X.X.X",
".X.X.XX o { h.b.R.T.H.K F.I.I.I.I.U.H.G.V.Q U P F A H u.} o .X.X.X.X.X",
".X.X.XX o O.x.v.z.Y.H.K F.P.P.I.I.I.I.I.I.I.I.I.L.Y =.j.5.O .X.X.X.X.X",
".X.X.X.Xo a j.v.v.E.J.Y H.P.I.P.I.I.I.I.I.P.I.P.I.R =.c.7.: .X.X.X.X.X",
".X.X.X.X.X, 9.v.c.z.-.W U.I.I.P.I.P.P.P.P.I.P.I.P.W :.c.O..X.X.X.X.X.X",
".X.X.X.X.X.X^ j.x.y.~ G.I.I.I.I.I.I.I.I.I.I.I.I.P.Q :.u.' .X.X.X.X.X.X",
".X.X.X.X.X.X0 { 6.s S H.U.U.U.U.U.P.P.P.P.K.J.G.F.F 9 a 0 .X.X.X.X.X.X",
".X.X.X.X.X.X.X1 y o 6 K P P P P U T T T T I J D S 7 X X   .X.X.X.X.X.X",
".X.X.X.X.X.X.X.X.   @ = = = X = 4 c c c c x j % # . o .X.X.X.X.X.X.X.X",
".X.X.X.X.X.X.X.X.X. @       . X h C m.m.m.m.m.C z # .X.X.X.X.X.X.X.X.X",
".X.X.X.X.X.X.X.X.XX h % @       $ N N.N.N.N.N.N.m.z X .X.X.X.X.X.X.X.X",
".X.X.X.X.X.X.X.X. % b b z % &   . v M.B.B.B.B.B.B.C 5 . .X.X.X.X.X.X.X",
".X.X.X.X.X.X.X.X# n M V N v z % $ 5 n.B.B.B.B.N.N.Z._ - X .X.X.X.X.X.X",
".X.X.X.X.X.X.X. : / %.$.Z V N b j $ v M.M.B.N.A.Z.<.;.9 X .X.X.X.X.X.X",
".X.X.X.X.X.X.X. < / ) ) %.M V N z o $ V B.B.A.S.<.2.;.t X .X.X.X.X.X.X",
".X.X.X.X.X.X.X. o 8 ^ ..) ) $.M h .X@ j m.C.<.1.2.:.! o . .X.X.X.X.X.X",
".X.X.X.X.X.X.X.X.X= < n / ..&.n # .X.X$ m S.1.2.:.! - .X.X.X.X.X.X.X.X",
".X.X.X.X.X.X.X.X.X.X.X< t ! ^ < X .X.XX 2 ( :./ ! .X.X.X.X.X.X.X.X.X.X",
".X.X.X.X.X.X.X.X.X.X.X.X# : 2 X .X.X.X.XX 8 ^ 8 .X.X.X.X.X.X.X.X.X.X.X",
".X.X.X.X.X.X.X.X.X.X.X.X.X  . . .X.X.X.Xo X o .X.X.X.X.X.X.X.X.X.X.X.X",
".X.X.X.X.X.X.X.X.X.X.X.X.X.X.X.X.X.X.X.X.XX .X.X.X.X.X.X.X.X.X.X.X.X.X",
".X.X.X.X.X.X.X.X.X.X.X.X.X.X.X.X.X.X.X.X.X.X.X.X.X.X.X.X.X.X.X.X.X.X.X",
".X.X.X.X.X.X.X.X.X.X.X.X.X.X.X.X.X.X.X.X.X.X.X.X.X.X.X.X.X.X.X.X.X.X.X",
".X.X.X.X.X.X.X.X.X.X.X.X.X.X.X.X.X.X.X.X.X.X.X.X.X.X.X.X.X.X.X.X.X.X.X",
".X.X.X.X.X.X.X.X.X.X.X.X.X.X.X.X.X.X.X.X.X.X.X.X.X.X.X.X.X.X.X.X.X.X.X",
".X.X.X.X.X.X.X.X.X.X.X.X.X.X.X.X.X.X.X.X.X.X.X.X.X.X.X.X.X.X.X.X.X.X.X"
};
