/* XPM */
static char *result[] = {
/* columns rows colors chars-per-pixel */
"64 64 13 1 ",
"  c #3C7718",
". c #3B7218",
"X c #346E10",
"o c #367012",
"O c #2F690C",
"+ c #336B11",
"@ c #407C1C",
"# c #2D640B",
"$ c #2F660E",
"% c #367312",
"& c #296107",
"* c #478720",
"= c #265D05",
/* pixels */
"....O$$$++++####+XXXXXXX++++&&&#    OOOOo%%%XXXX%%%%XXXX++++++++",
"....O$$$++++####+XXXXXXX++++&&&#    OOOO%%%%XXXX%%%%XXXX++++++++",
"....O$$$++++####+XXXXXXX++++&&&#    OOOOo%%oXXXX%%%%XXXX++++++++",
"...oO$$$++++$##$+XXXXXXX++++&&&#    OOOO%%%%oXXX%%%%oooXX+++++++",
"####$$$$    ....XX+X @@ +OOO&&&&@@@@O$$O****@   XXXo@@@ ....O$$$",
"&&&&$$$O  @ ....+++X@@@@+OO$&&&#@@@@O$#O****@ @ oXXo@@@@.o.o$$$$",
"&&&&$$$O   @....+++X@@@ +OO$&&&#@@@@$$#O****@   oXXo@@@@...o$$$$",
"####$$$$     . .+++X@@@ +OOO&&&&@@@@O$$O****@ @ oXXo@@@@....O$$$",
"....#&#####$ @@@+OO+%..%++++&&&&+++X%%%%***@@@@@%%%%%%%%@@@@X+XX",
"   .#&&&&&&# @ @+OOO%%%%X+++&&&&OOOO% % @@@*@@@@%%%%%%%%@@@@XXXX",
" . .#&&&&&&#@@@ +OOO%%%%++++&&&&OOOO%%% @*@*@@@@%%o%%%%%@@@@XXXX",
"    #####&&# @@ +OOO%%%.+X++&&&&O+++%%% @*@@@@@@%%%%%%%%@@@@XXXX",
"@@@ oXXX$$$$....XXXXoooo....+++X.%%%ooooXX%%%X%X%%%%XXXX%...oooo",
"@@@@oooo$$$$o...oooooooX....++XX.   XXXXXXXOXXXX%%%%oXXX%...oooo",
"@@@@oooX$$$$o...oooooooX....+.+X%%%%XXXoXXOX%X%X%%%%XXXX%...oooo",
"@ @ ooooO$$OooooXXXXoooo....+++X    ooX%XXXXXXXXo%%%oXXo%%..oXXX",
"###$o...+++++OOOOOOO@@@@   %##&O****%o%X%.%%%  .OOOO%.......+OOO",
"####%...++++OOOOOO$O@@@@    #&&$****%o%o.... ...OO$O.. . . .OOOO",
"####o...++++++OOOO$O@@@@@   &&&#**** o%o..... . O$$O.... ...OOOO",
"###$....++++OOOOOOO+@@@@   %###O****%%%%.... . .$$$O.. .. ..OOOO",
"XXXo.  ..o.o&&&#      @ XOOX% % ****@@@@X+++   .$#$$+XXXooooOOOO",
"oooo.   ...o&&&#        XOOO    ****@@@@X+++.   $###++++ooooOOOO",
"oooo. . ...o&&&#   .  . XOOX    ****@@*@X+++   .$##$+++XooooOOOO",
"oooo    .ooo#&&#  .  .  OOOO    @*@*@@@ X+++    $###++++ooooOOOO",
"oooo@@@@O$$O++++....+X++&=&&@@@@   %%oooXXXX@@@ $$$$$$$$........",
"ooo%@*@@O$$$+X+X...o++++&==&@@@@....XXXXXXXo@@@@$$$$###$........",
"ooXo@@*@+$$OXX+X....++++&==&@@@@.. .XXXXXXXo@@@@$$$$###$. . ....",
"ooo%@@@@O$$$+X+Xoo.o++++&==& @@@ ...oXXXXXXX@@@ $###$$#$........",
"   %% %%====$$$$XXX+####XX+XooXX+++++XXX++++%%%o&===#$$$&&&&XXXX",
" %  %%%%====#$$$XXX+####+o+o+.+XOOOO+XXXO+X+o%%o&===#$$$&&=&XXXX",
"  % %%%%====#$$$XXX+####+XX+o+X.$OOOXXXX+XOX%%%o====#$$$&&&&+XXX",
"    %%%o====$$$$XXX+###$XXXo+X++OOOO+++++++Xo%%o&==&$$$$&&&&XXXX",
"@*@@oXX+OO$OOOO+XXXX+O++oooo$#$#====#$#$........++++$$$$$$$$. ..",
"*@**X+X+++++++++XXoX++++oooo####====###$.. .....++++$$$OOOOO    ",
"*@*@X+X+O+++++++XXXX++++oooX####====###$.. .....++++$$$OOOOO.   ",
"@*@@oXXX++++++++XXXX+XXXoooX$###&===###$......o.++++$+$$OOOO. ..",
"#$#O @@ ....X++X    .%%%oXXo     . .$$$$$OOOoo.o++++###$.   X+++",
"&#&# @@@....XXXX    .%%%XXXo@@@ @ @.+$$$$$#$ooo.++++####    ++++",
"#&##@@@@....X+XX    %% %oXXo @@   . $$$$$$$Ooooo++++####    ++++",
"##&#@@@@ .  XoXX     %%%XXXX @  @.@.+$$O$$$Oo.oo++++$###    ++++",
"####@@@@***@OOOO        +OOO%%..++++.+.X&&&#o%%oOOO+$$$O....++++",
"###$@@@@****OOOO        OOOOoooo+++++.oo&&&&o%%%OOOOOOOOo...++++",
"####@@@@****OOOO   @    OOOOoooo++++.+.X&&&&o%%%OOOOOOOO....++++",
"###$@@@@****OOOO        OOOOoooo++++X.oo&&&#o%%%++++OOOOoooo++++",
"&&&&$$$+@*@*@@@@%oo%    ...oXXXXO$$$X++oo%o%..%. @   ...$#$#OOOO",
"&&&&#$#$@**@@@@ %ooo    ....XXX+O+$++XXX%%%%.... @    ..$###$OOO",
"&&&&#$#$@*@*@@@@%ooo .  ....XXXXOOOOXX+o%%%.....   @.. .####OOOO",
"&&&&$$$O@*@@@@@ %ooo.  ...o.X+++$$$$+X+X.%%o.... @  . ..####$OOO",
"OOO+    oXX%@**@oXoXXXXXXooo&===#$$#&&&####$....X+++OOOO####....",
"OOO+  @ XXXo@*@*oXXXXXXXXooX====$$#$&&&&###$....++++OOOO####....",
"OOO+  @ XXXo***@oXXXXXXXXooo====#$$#&=&&###$....++++OOOO$#&#....",
"OOO+ @  X++X@**@oXXXXXXXoooo=&&=$$$$&#&&#$$$....++++OOO$####....",
"###$....#&&&XX+X        oooo   .....$#$$+X+X........oooo####$$$$",
"###$.. .&&&&+++X        oooo   ...+.$$$$XXXX . .....%ooo$##$#$#$",
"###$. ..#&&&+++X  @ @   ooXo    ....#$#$+X+X........oooo$##$#$$$",
"$$$$.. .#&&#+X+X        ooo%   ....+$$$$+X+X.... .%.%%%o$###$$$$",
"   %OOOO%%%%XXXX++OOXooo@@@@    O$$$#&&&&&&&Xooo@@@@    oXoXOOOO",
"    OOOO%%%%oooXO$$$XXXo@@@@    O+$O#&&&&===Xooo @@@  % oooX+OOO",
"    OOOO%%%%ooooO$$+XoXo@@@@   %O$O$#&&&&===XoXo@@@@%  %oooXOOOO",
"    OOOO%%%%oooXO$$$+XXo@@@@    +OOO#&#&&&&&Xoo% @ @    oooX+OOO",
"@@@ %oo%@@@@%o%oO$O$####++OX    @@@@$###XXXo @ @%%%%@@@@X++X.   ",
"@ @ %oo%@@@@%%%o+O$+####OOOO%   @@@@$$$$ooX.@@@@%%%%@@@@X++X    ",
"@@@@%oo%@@@@%%%o+O$+####OOOO    @@@@$$$$Xooo @@ %%%%@@@@X++X    ",
" @ @%oo%@@@@%%%o+O+$####OOOX%   @@@@$$$$XoX.@@@@%%%%@@@@X++X    "
};
